<?xml version="1.0" standalone="no"?>
<!DOCTYPE svg PUBLIC "-//W3C//DTD SVG 1.1//EN" "http://www.w3.org/Graphics/SVG/1.1/DTD/svg11.dtd" >
<svg xmlns="http://www.w3.org/2000/svg">
<metadata></metadata>
<defs>
<font id="mullerregular_6" horiz-adv-x="1269" >
<font-face units-per-em="2048" ascent="1552" descent="-496" />
<missing-glyph horiz-adv-x="487" />
<glyph horiz-adv-x="0" />
<glyph unicode="&#xd;" horiz-adv-x="681" />
<glyph unicode=" "  horiz-adv-x="487" />
<glyph unicode="&#x09;" horiz-adv-x="487" />
<glyph unicode="&#xa0;" horiz-adv-x="487" />
<glyph unicode="!" horiz-adv-x="509" d="M45 123q10 56 49 87.5t94 31.5q63 0 99 -40.5t26 -107.5q-7 -56 -46.5 -87.5t-96.5 -31.5q-63 0 -99 40.5t-26 107.5zM133 451l139 983h232l-172 -983h-199z" />
<glyph unicode="&#x22;" horiz-adv-x="733" d="M184 1028l66 406h201l-113 -406h-154zM506 1028l65 406h201l-113 -406h-153z" />
<glyph unicode="#" horiz-adv-x="1374" d="M33 332l26 174h195l152 383h-181l27 174h221l131 330h213l-127 -330h320l129 330h215l-131 -330h149l-29 -174h-190l-152 -383h179l-27 -174h-219l-131 -332h-215l131 332h-320l-131 -332h-213l129 332h-151zM467 506h319l152 383h-320z" />
<glyph unicode="$" horiz-adv-x="1224" d="M25 102l34 222q188 -138 476 -138q319 0 346 179q7 41 -11.5 77.5t-51 62t-87.5 52t-103.5 44.5t-117 44t-111.5 45q-122 54 -187.5 150.5t-43.5 228.5q27 158 164 246t321 100l39 244h180l-38 -246q202 -27 327 -106l-33 -213q-161 112 -417 112q-130 0 -213 -39 t-95 -116q-8 -49 13.5 -89t65 -68.5t101.5 -54t122.5 -49.5t129 -50.5t121 -62t97 -79.5t58.5 -107.5t5 -140.5q-28 -177 -164 -270.5t-344 -104.5l-39 -241h-180l39 246q-235 21 -403 122z" />
<glyph unicode="%" horiz-adv-x="1861" d="M150 1139q24 153 137 237q116 84 256 84q145 0 239 -94q92 -95 68 -256q-22 -154 -135 -236q-115 -86 -256 -86q-148 0 -240 95q-93 93 -69 256zM305 -123l1104 1679h186l-1103 -1679h-187zM334 1118q-8 -69 26.5 -112t106.5 -43q80 0 132.5 46.5t64.5 120.5 q6 69 -28 112.5t-104 43.5q-82 0 -134.5 -47t-63.5 -121zM1049 324q24 153 137 237q116 84 258 84q146 0 237 -94q92 -95 68 -256q-22 -154 -135 -236q-115 -86 -256 -86q-143 0 -240 97q-93 93 -69 254zM1235 303q-8 -69 26.5 -112.5t106.5 -43.5q80 0 132 47t63 121 q8 69 -25.5 112.5t-103.5 43.5q-82 0 -135 -47t-64 -121z" />
<glyph unicode="&#x26;" horiz-adv-x="1447" d="M57 373q34 222 359 385q-142 176 -115 350q24 150 164 254q137 98 330 98q174 0 286 -100q114 -102 90 -250q-23 -95 -76 -162t-147 -127q-89 -57 -223 -121l279 -305q98 133 116 289h219q-35 -245 -202 -436l227 -248h-248l-117 125q-217 -152 -489 -152 q-227 0 -354 115q-126 114 -99 285zM283 365q-17 -88 56 -143.5t208 -55.5q177 0 321 102l-323 348q-241 -110 -262 -251zM510 1073q-15 -102 88 -231q124 48 223 112q119 74 135 166q12 62 -40.5 107t-133.5 45q-118 0 -189 -54.5t-83 -144.5z" />
<glyph unicode="'" horiz-adv-x="411" d="M184 1028l66 406h201l-113 -406h-154z" />
<glyph unicode="(" horiz-adv-x="616" d="M102 731q40 242 160 490q119 244 289 438h194q-334 -442 -411 -944q-40 -238 -10 -494q26 -249 118 -446h-184q-109 205 -151 457.5t-5 498.5z" />
<glyph unicode=")" horiz-adv-x="616" d="M-92 -225q157 204 266.5 454.5t147.5 495.5q38 227 10 492q-30 247 -119 442h184q109 -208 152 -459q41 -261 2 -504q-38 -244 -156 -483q-120 -243 -291 -438h-196z" />
<glyph unicode="*" horiz-adv-x="935" d="M154 1094l98 190l229 -106l19 256h202l-65 -256l260 106l41 -190l-272 -60l149 -200l-180 -117l-103 248l-182 -248l-155 117l206 200z" />
<glyph unicode="+" horiz-adv-x="1095" d="M84 618l31 197h370l58 369h194l-57 -369h369l-31 -197h-371l-57 -368h-195l58 368h-369z" />
<glyph unicode="," horiz-adv-x="489" d="M-115 -303l203 508h234l-256 -508h-181z" />
<glyph unicode="-" horiz-adv-x="993" d="M94 406l31 196h745l-30 -196h-746z" />
<glyph unicode="." horiz-adv-x="468" d="M29 125q7 58 47 88.5t98 30.5q65 0 101 -39.5t24 -106.5q-7 -58 -47 -89.5t-98 -31.5q-64 0 -100.5 40.5t-24.5 107.5z" />
<glyph unicode="/" horiz-adv-x="901" d="M-55 -121l882 1675h166l-882 -1675h-166z" />
<glyph unicode="0" horiz-adv-x="1439" d="M115 711q53 323 235 514q185 194 490 194q303 0 436 -207q134 -209 82 -530q-53 -320 -236 -512q-185 -197 -491 -197q-301 0 -434 207q-134 209 -82 531zM344 696q-37 -248 37 -379t262 -131q403 0 485 510q37 248 -37.5 379t-263.5 131q-401 0 -483 -510z" />
<glyph unicode="1" horiz-adv-x="907" d="M12 0l35 211h279l149 942l-295 -104l35 215l358 129h172l-188 -1182h248l-35 -211h-758z" />
<glyph unicode="2" horiz-adv-x="1198" d="M-4 0l18 115q37 239 207 379q87 72 154 112q83 50 188 101q22 12 47 24.5t39.5 20.5t22.5 12q48 27 88 53q64 39 86 64q28 30 52.5 71.5t29.5 81.5q12 86 -50 130t-190 44q-234 0 -479 -161l37 233q222 139 475 139q213 0 340 -106q126 -108 96 -299q-27 -167 -149 -275 q-61 -54 -120.5 -92.5t-168.5 -99.5q-53 -27 -86 -45q-74 -42 -86 -49q-112 -61 -141 -88q-106 -85 -109 -154h743l-34 -211h-1010z" />
<glyph unicode="3" horiz-adv-x="1212" d="M23 70l32 213q182 -102 434 -99q154 0 255.5 58.5t119.5 171.5q17 103 -48.5 150.5t-205.5 47.5h-231l35 207h188q128 0 207.5 53t93.5 144q14 93 -51.5 142.5t-204.5 49.5q-215 0 -444 -116l35 227q201 100 454 100q210 0 336 -108q127 -109 100 -287q-17 -105 -85 -184 t-171 -111q111 -34 171 -127.5t38 -234.5q-35 -195 -196 -293q-165 -101 -389 -101q-259 0 -473 97z" />
<glyph unicode="4" horiz-adv-x="1327" d="M2 285l31 198l885 910h243l-145 -906h237l-30 -202h-238l-45 -285h-227l45 285h-756zM303 487h488l94 598z" />
<glyph unicode="5" horiz-adv-x="1193" d="M20 70l33 209q154 -95 389 -95q171 0 279.5 64t126.5 186q23 124 -62.5 185t-257.5 61q-186 0 -381 -66l164 779h856l-32 -209h-646l-75 -334q99 22 209 22q79 0 150 -16t134.5 -51.5t106.5 -88.5t61.5 -132t3.5 -176q-35 -213 -207 -322q-174 -113 -415 -113 q-251 0 -437 97z" />
<glyph unicode="6" horiz-adv-x="1292" d="M115 698q59 361 262 541q204 180 487 180q193 0 353 -86l-33 -203q-131 82 -312 82q-182 0 -315.5 -107.5t-191.5 -326.5q198 107 409 107q188 0 320 -123q134 -128 100 -336q-34 -213 -195 -334q-162 -119 -381 -119q-297 0 -428 191.5t-75 533.5zM328 557 q-24 -383 286 -383q141 0 234 66.5t113 197.5q19 122 -53 182t-210 60q-194 0 -370 -123z" />
<glyph unicode="7" horiz-adv-x="1130" d="M141 1184l35 209h1034l-28 -185l-768 -1208h-256l753 1184h-770z" />
<glyph unicode="8" horiz-adv-x="1335" d="M63 406q14 98 88 190.5t195 159.5q-159 123 -129 305q24 145 166 254q140 104 391 104q232 0 369 -125q135 -126 114 -288q-24 -188 -235 -320q215 -120 180 -346q-26 -165 -183 -266t-423 -101q-278 0 -420 127q-140 125 -113 306zM295 412q-17 -110 70 -175t256 -65 q140 0 237.5 53t110.5 137q6 41 -6.5 78t-32.5 60q-18 21 -70 45q-60 24 -74 30q-31 12 -96 31q-77 21 -182 60q-189 -106 -213 -254zM442 1042q-15 -101 70 -157q15 -10 29 -17.5t23.5 -12.5t27.5 -12t26.5 -10.5t34.5 -12t39 -13.5q37 -10 156 -47q159 110 180 246 q12 91 -61 153t-209 62q-130 0 -217 -49.5t-99 -129.5z" />
<glyph unicode="9" horiz-adv-x="1290" d="M106 57l31 205q131 -82 314 -82q187 0 318.5 106t191.5 328q-201 -104 -406 -104q-70 0 -137 18t-126.5 56t-101 91t-59 128.5t-2.5 163.5q34 214 197 333q162 119 381 119q295 0 426 -192t75 -533q-58 -359 -260 -540q-205 -181 -489 -181q-194 0 -353 84zM362 958 q-19 -125 52.5 -185t212.5 -60q193 0 368 123q21 381 -293 381q-137 0 -227 -66t-113 -193z" />
<glyph unicode=":" horiz-adv-x="518" d="M47 125q7 58 47.5 88.5t98.5 30.5q65 0 100.5 -39.5t23.5 -106.5q-7 -58 -47 -89.5t-98 -31.5q-64 0 -100.5 40.5t-24.5 107.5zM154 797q7 58 46.5 88t96.5 30q67 0 103 -39.5t24 -107.5q-21 -119 -148 -119q-63 0 -98.5 40.5t-23.5 107.5z" />
<glyph unicode=";" horiz-adv-x="581" d="M-72 -303l203 508h234l-256 -508h-181zM190 862q10 58 50 88.5t98 30.5q65 0 101 -39t24 -106q-7 -59 -47 -90t-99 -31q-64 0 -100.5 40t-26.5 107z" />
<glyph unicode="&#x3c;" horiz-adv-x="1032" d="M88 608l35 219l840 306l-33 -207l-619 -211l551 -209l-31 -205z" />
<glyph unicode="=" horiz-adv-x="1163" d="M104 426l31 195h901l-30 -195h-902zM166 813l31 197h901l-31 -197h-901z" />
<glyph unicode="&#x3e;" horiz-adv-x="1032" d="M106 301l33 205l621 215l-553 207l31 205l743 -306l-35 -219z" />
<glyph unicode="?" horiz-adv-x="1011" d="M158 1135l35 219q190 106 403 106q75 0 142.5 -14t125 -43.5t97.5 -71.5t57 -103t4 -134q-9 -55 -36 -108.5t-70.5 -103.5t-82 -87t-91.5 -85q-17 -15 -25 -22q-155 -137 -168 -242h-213q11 79 59 154.5t109 135t121.5 115.5t106.5 116t54 116q13 88 -47 126t-194 38 q-185 0 -387 -112zM256 125q7 58 47 88.5t98 30.5q65 0 101 -39.5t24 -106.5q-7 -58 -47 -89.5t-98 -31.5q-64 0 -100.5 40.5t-24.5 107.5z" />
<glyph unicode="@" horiz-adv-x="2152" d="M72 520q29 185 123 354t239 300q148 133 353 209.5t434 76.5q220 0 398 -82t279 -219q98 -135 139.5 -291.5t16.5 -308.5q-42 -267 -173 -406t-329 -139q-123 0 -203.5 56.5t-97.5 154.5q-117 -164 -317 -164q-174 0 -268 132q-95 129 -68 307q27 176 152 295 q124 118 301 118q90 0 162.5 -44.5t105.5 -114.5l22 139h187l-84 -531q-27 -174 123 -174q107 0 177.5 103.5t100.5 288.5q19 121 -11.5 239.5t-104.5 218.5q-77 101 -214.5 162.5t-304.5 61.5q-369 0 -626 -222q-252 -218 -305 -542q-28 -182 19.5 -331.5t152 -245.5 t249.5 -148t314 -52q230 0 465 76l-29 -205q-201 -69 -453 -69q-209 0 -391.5 66.5t-316.5 189.5q-136 125 -194.5 318.5t-22.5 422.5zM795 483q-17 -105 35.5 -175t148.5 -70q90 0 167 52t109 126l25 153q-11 75 -64 122.5t-137 47.5q-106 0 -185.5 -72t-98.5 -184z" />
<glyph unicode="A" horiz-adv-x="1490" d="M-84 0l834 1434h258l376 -1434h-239l-78 309h-721l-176 -309h-254zM461 514h557l-154 608q-8 25 -14 88q-23 -60 -41 -90z" />
<glyph unicode="B" horiz-adv-x="1413" d="M80 0l227 1434h594q215 0 344 -99q106 -83 106 -220q0 -29 -5 -60q-20 -118 -92.5 -194.5t-180.5 -106.5q48 -14 90.5 -41.5t78.5 -71t51 -110.5q8 -37 9 -79q0 -33 -6 -69q-19 -111 -79 -191.5t-152 -119.5q-171 -72 -371 -72h-614zM346 205h350q133 0 230 37 q118 46 141 186q4 23 4 43q1 28 -7 51q-12 40 -37.5 62.5t-65 35.5t-74.5 17t-78 4h-393zM449 840l378 -2q115 0 190.5 51t92.5 149q4 22 4 42q0 68 -48 104q-62 46 -200 47h-356z" />
<glyph unicode="C" horiz-adv-x="1325" d="M106 752q26 164 114 304t214 228q123 85 261.5 130.5t273.5 45.5q231 0 391 -100l-33 -217q-126 102 -330 102q-227 0 -422 -133q-192 -134 -233 -385q-9 -53 -9 -102q1 -74 21 -139q34 -107 105.5 -170t162 -95.5t189.5 -32.5q219 0 391 111l-37 -242q-173 -84 -409 -84 q-137 0 -263.5 50t-224.5 143q-104 94 -148 248q-27 92 -26 195q0 69 12 143z" />
<glyph unicode="D" horiz-adv-x="1515" d="M80 0l227 1434h496q356 0 526 -203q131 -157 131 -384q0 -69 -12 -145q-52 -322 -266 -512q-217 -190 -590 -190h-512zM348 213h262q251 0 407.5 135t194.5 383q10 62 10 116q0 157 -82 249q-110 126 -360 125h-272z" />
<glyph unicode="E" d="M80 0l227 1434h987l-34 -213h-754l-62 -392h693l-33 -213h-692l-64 -403h764l-33 -213h-999z" />
<glyph unicode="F" horiz-adv-x="1241" d="M80 0l227 1434h989l-34 -215h-756l-66 -420h697l-35 -217h-696l-93 -582h-233z" />
<glyph unicode="G" horiz-adv-x="1441" d="M104 745q29 176 118 319t216 228q251 168 541 168q240 0 424 -96l-33 -219q-129 100 -371 100q-218 0 -407 -119q-98 -63 -165 -169.5t-87 -239.5q-9 -57 -9 -108q0 -75 19 -139q34 -109 111 -169q144 -115 344 -115q138 0 231 43l86 541h232l-111 -702 q-226 -95 -465 -95q-301 0 -508 183q-107 93 -152 246q-26 91 -26 195q0 71 12 148z" />
<glyph unicode="H" horiz-adv-x="1570" d="M80 0l227 1434h234l-97 -609h756l96 609h234l-227 -1434h-234l96 610h-755l-97 -610h-233z" />
<glyph unicode="I" horiz-adv-x="581" d="M80 0l227 1434h234l-228 -1434h-233z" />
<glyph unicode="J" horiz-adv-x="1044" d="M-55 61l35 218q113 -82 294 -82q309 0 353 262l118 760h-401l35 215h637l-160 -1010q-36 -228 -178.5 -338.5t-370.5 -110.5q-226 0 -362 86z" />
<glyph unicode="K" horiz-adv-x="1382" d="M80 0l227 1434h234l-95 -598h285l492 598h262l-582 -713l385 -721h-248l-333 621h-295l-99 -621h-233z" />
<glyph unicode="L" horiz-adv-x="1181" d="M80 0l227 1434h234l-193 -1217h754l-35 -217h-987z" />
<glyph unicode="M" horiz-adv-x="1857" d="M80 0l227 1434h211l402 -822l657 822h240l-228 -1434h-233l162 1018l-551 -686h-154l-336 688l-164 -1020h-233z" />
<glyph unicode="N" horiz-adv-x="1570" d="M80 0l227 1434h197l631 -1057q4 43 20 170l141 887h234l-227 -1434h-197l-631 1057q-6 -89 -18 -164l-144 -893h-233z" />
<glyph unicode="O" horiz-adv-x="1673" d="M102 731q23 143 91 272.5t174.5 232t261 163.5t334.5 61q337 0 518 -227q140 -179 140 -404q0 -62 -11 -127q-51 -294 -260 -503q-108 -106 -264.5 -166t-337.5 -60q-224 0 -387 108t-226 284q-43 113 -43 241q0 61 10 125zM338 713q-8 -49 -8 -95q0 -149 84 -270 q107 -155 348 -155q249 0 414 151q160 146 198 377q10 45 10 91q0 18 -2 36q-6 64 -22.5 121t-54 106.5t-87 86t-119 58t-151.5 21.5q-251 0 -411 -151q-161 -147 -199 -377z" />
<glyph unicode="P" horiz-adv-x="1361" d="M80 0l227 1434h522q95 0 177 -14.5t155.5 -50t121.5 -89.5t69 -139q12 -47 11 -101q0 -44 -7 -92q-21 -129 -80.5 -220.5t-152 -141.5t-200 -72t-243.5 -22h-289l-78 -492h-233zM426 705h289q367 0 407 266q4 26 4 50q0 30 -7 56q-13 46 -41 72.5t-72 43.5t-89 22.5 t-100 5.5h-309z" />
<glyph unicode="Q" horiz-adv-x="1673" d="M102 731q23 143 91 272.5t174.5 232t261 163.5t334.5 61q337 0 518 -227q140 -179 140 -404q0 -62 -11 -127q-53 -307 -262 -501l153 -181l-170 -139l-162 193q-186 -101 -421 -101q-224 0 -387 108t-226 284q-43 113 -43 241q0 61 10 125zM338 713q-8 -49 -8 -95 q0 -149 84 -270q107 -155 348 -155q148 0 256 57l-180 213l166 141l196 -231q140 137 174 348q10 45 10 91q0 18 -2 36q-5 63 -22 120.5t-54.5 107t-87 86t-119 58t-151.5 21.5q-251 0 -411 -151q-161 -147 -199 -377z" />
<glyph unicode="R" horiz-adv-x="1435" d="M80 0l227 1434h570q82 0 156 -14t142.5 -48.5t114.5 -86t66 -132.5q11 -45 11 -96q0 -41 -7 -86q-52 -328 -412 -410l363 -561h-262l-342 537h-308l-86 -537h-233zM434 743h346q139 0 231.5 61.5t114.5 184.5q4 26 4 49q0 85 -56 128q-70 55 -212 55h-352z" />
<glyph unicode="S" horiz-adv-x="1208" d="M23 102l34 220q195 -136 469 -136q319 0 346 179q2 15 2 28q0 35 -14 67q-20 42 -62.5 72t-99 56.5t-120 51.5t-126 52t-118 63.5t-95.5 80.5q-39 45 -57 110q-10 39 -11 82q0 30 5 62q27 180 189 276q155 94 366 94q260 0 434 -119l-32 -215q-150 121 -387 121h-11 q-299 0 -323 -176q-2 -11 -2 -22q0 -29 14 -55q18 -36 49.5 -62t85.5 -53.5t101.5 -46t115.5 -45.5t111 -46q117 -55 181 -154q47 -74 47 -165q0 -32 -5 -66q-13 -85 -52.5 -152t-94.5 -109.5t-127.5 -70.5t-147 -39.5t-158.5 -11.5q-296 0 -507 129z" />
<glyph unicode="T" horiz-adv-x="1232" d="M123 1219l35 215h1181l-34 -215h-474l-192 -1219h-233l192 1219h-475z" />
<glyph unicode="U" horiz-adv-x="1542" d="M147 539l144 895h233l-141 -897q-8 -48 -8 -88q0 -259 321 -259q388 0 447 361l139 883h234l-144 -910q-20 -121 -67 -216.5t-110.5 -157.5t-146 -102.5t-170 -57.5t-186.5 -17q-98 0 -185 18.5t-163 62t-126 107t-70 161.5q-10 49 -11 104q0 54 10 113z" />
<glyph unicode="V" horiz-adv-x="1429" d="M150 1434h243l260 -1164l633 1164h260l-805 -1434h-241z" />
<glyph unicode="W" horiz-adv-x="2107" d="M154 1434h241l154 -1153l536 1153h199l168 -1139l510 1139h254l-666 -1434h-264l-156 1051l-491 -1051h-266z" />
<glyph unicode="X" horiz-adv-x="1347" d="M-104 0l665 743l-395 691h260l293 -514l457 514h286l-628 -703l419 -731h-260l-315 555l-496 -555h-286z" />
<glyph unicode="Y" horiz-adv-x="1384" d="M147 1434h250l310 -689l528 689h270l-706 -908l-86 -526h-234l86 526z" />
<glyph unicode="Z" horiz-adv-x="1226" d="M-25 0l27 184l920 1035h-727l32 215h1037l-29 -187l-918 -1030h783l-35 -217h-1090z" />
<glyph unicode="[" horiz-adv-x="628" d="M6 -225l299 1884h432l-30 -207h-209l-236 -1470h209l-31 -207h-434z" />
<glyph unicode="\" horiz-adv-x="888" d="M209 1554h158l352 -1675h-158z" />
<glyph unicode="]" horiz-adv-x="628" d="M-70 -225l31 207h211l234 1470h-209l30 207h435l-297 -1884h-435z" />
<glyph unicode="^" horiz-adv-x="1140" d="M109 754l501 680h193l289 -680h-230l-180 450l-326 -450h-247z" />
<glyph unicode="_" horiz-adv-x="958" d="M-145 -328l30 195h959l-31 -195h-958z" />
<glyph unicode="`" horiz-adv-x="444" d="M233 1874h256l138 -303h-224z" />
<glyph unicode="a" d="M59 506q35 214 191 358q155 146 366 146q239 0 359 -193l24 166h197l-156 -983h-196l26 158q-156 -185 -397 -185q-218 0 -332 156q-90 120 -90 279q0 47 8 98zM276 489q-5 -32 -5 -61q0 -99 55 -170q71 -92 198 -92q106 0 202.5 59.5t152.5 151.5l39 239 q-21 88 -95 144.5t-176 56.5q-140 0 -243 -90.5t-128 -237.5z" />
<glyph unicode="b" horiz-adv-x="1267" d="M41 0l227 1434h219l-94 -582q158 158 371 158q215 0 332 -156q89 -119 88 -275q0 -49 -8 -102q-35 -216 -183 -358q-152 -146 -372 -146q-237 0 -355 189l-30 -162h-195zM317 367q27 -91 98.5 -146t172.5 -55q147 0 247.5 88t125.5 238q4 32 4 61q1 101 -53 172 q-70 92 -197 92q-111 0 -205 -58t-152 -153z" />
<glyph unicode="c" horiz-adv-x="1013" d="M61 506q21 131 84 231q63 99 152 158q177 115 379 115q174 0 307 -86l-33 -193q-101 84 -254 84q-149 0 -270 -80q-118 -81 -145 -248q-5 -34 -6 -65q0 -107 65 -171q83 -83 238 -83q144 0 307 82l-33 -209q-151 -68 -326 -68q-164 0 -288.5 75.5t-165.5 221.5 q-19 66 -19 139q0 47 8 97z" />
<glyph unicode="d" d="M59 506q35 213 189 358q152 146 360 146q236 0 344 -170l97 594h219l-228 -1434h-194l24 162q-145 -189 -397 -189q-218 0 -332 156q-90 120 -90 279q0 47 8 98zM276 487q-6 -34 -6 -65q0 -96 54 -165q71 -91 200 -91q106 0 202.5 59.5t152.5 151.5l41 241 q-24 87 -97.5 143t-175.5 56q-140 0 -243 -91t-128 -239z" />
<glyph unicode="e" horiz-adv-x="1116" d="M59 504q38 245 205 375q168 131 363 131q112 0 197.5 -35.5t134.5 -95.5q49 -59 72 -137q18 -60 18 -127q1 -19 -1 -37q-6 -86 -40 -172h-742v-7q0 -120 96 -178q94 -61 234 -61q195 0 338 76l-33 -197q-147 -66 -352 -66q-224 0 -375 142q-122 115 -122 297q0 44 7 92z M291 569h547q8 30 8 60q0 58 -31 114q-50 84 -190 84q-120 0 -215 -71.5t-119 -186.5z" />
<glyph unicode="f" horiz-adv-x="800" d="M76 791l30 192h179l20 131q16 97 58.5 167t102 107.5t123.5 54.5t136 17q134 0 233 -45l-30 -184q-73 37 -168 37q-213 0 -240 -178l-16 -107h336l-31 -192h-336l-125 -791h-219l125 791h-178z" />
<glyph unicode="g" horiz-adv-x="1271" d="M29 -377l30 195q145 -103 365 -103q164 0 270 75.5t129 223.5l21 117q-143 -158 -371 -158q-218 0 -332 156q-90 120 -90 279q0 47 8 98q35 214 191 358q158 146 366 146q240 0 355 -195l28 168h199l-156 -979q-24 -160 -114 -274t-217 -162q-119 -45 -269 -45 q-257 0 -413 100zM276 487q-6 -34 -6 -65q0 -96 54 -165q71 -91 200 -91q107 0 203 57t152 146l43 252q-25 87 -99 141.5t-176 54.5q-140 0 -243 -91t-128 -239z" />
<glyph unicode="h" horiz-adv-x="1202" d="M41 0l227 1434h219l-90 -568q156 144 342 144q182 0 277 -115q69 -88 69 -215q0 -38 -6 -80l-94 -600h-221l92 586q5 30 5 57q0 72 -36 114q-49 58 -151 58q-83 0 -167 -48t-147 -124l-100 -643h-219z" />
<glyph unicode="i" horiz-adv-x="501" d="M47 0l156 983h219l-156 -983h-219zM229 1315q7 58 47.5 88.5t98.5 30.5q63 0 97 -40q27 -31 26 -78q0 -14 -2 -28q-21 -117 -144 -117q-63 0 -98 39q-27 30 -27 77q0 13 2 28z" />
<glyph unicode="j" horiz-adv-x="499" d="M-283 -444l31 186q44 -23 102 -23q153 0 177 160l176 1104h219l-184 -1159q-46 -301 -349 -301q-96 0 -172 33zM227 1315q7 58 47.5 88.5t98.5 30.5q62 0 97 -40q26 -31 26 -78q0 -13 -2 -28q-21 -117 -144 -117q-63 0 -98 39q-27 30 -27 77q0 13 2 28z" />
<glyph unicode="k" horiz-adv-x="1085" d="M41 0l227 1434h219l-131 -826h168l334 375h256l-436 -485l309 -498h-235l-260 422h-164l-68 -422h-219z" />
<glyph unicode="l" horiz-adv-x="501" d="M47 0l238 1495h219l-238 -1495h-219z" />
<glyph unicode="m" horiz-adv-x="1806" d="M41 0l156 983h194l-22 -129q65 67 158.5 111.5t191.5 44.5q203 0 280 -154q186 154 367 154q182 0 262 -117q61 -91 61 -211q0 -36 -6 -76l-96 -606h-219l98 618q3 22 3 41q0 63 -32 103q-42 52 -128 53q-141 0 -273 -141q0 -34 -6 -68l-96 -606h-219l98 618q3 22 3 41 q0 63 -32 103q-42 52 -129 53q-148 0 -290 -160l-105 -655h-219z" />
<glyph unicode="n" horiz-adv-x="1202" d="M41 0l156 983h194l-22 -141q171 168 376 168q179 0 271 -115q69 -88 69 -214q0 -38 -6 -79l-96 -602h-219l92 586q5 31 5 58q1 72 -35 114q-48 58 -152 57q-82 0 -166 -48t-148 -122l-100 -645h-219z" />
<glyph unicode="o" horiz-adv-x="1210" d="M59 508q41 242 213 371q174 131 392 131t356 -144q107 -112 107 -284q0 -51 -9 -107q-38 -237 -213 -369q-177 -133 -391 -133q-218 0 -356 144q-108 113 -108 286q0 50 9 105zM276 483q-6 -34 -6 -65q0 -95 54 -159q71 -85 208 -85q142 0 244 89.5t127 236.5q4 31 4 59 q0 99 -54 165q-70 84 -206 85q-140 0 -243 -89.5t-128 -236.5z" />
<glyph unicode="p" horiz-adv-x="1267" d="M-31 -451l228 1434h194l-24 -160q156 187 397 187q215 0 332 -156q89 -119 89 -275q0 -49 -9 -102q-30 -213 -187 -358q-158 -146 -368 -146q-229 0 -338 177l-95 -601h-219zM317 365q25 -89 98 -144t175 -55q135 0 241 92q106 89 130 238q6 34 6 65q0 96 -54 165 q-71 91 -200 91q-109 0 -204 -59.5t-153 -153.5z" />
<glyph unicode="q" d="M59 506q35 214 191 358q155 146 366 146q243 0 357 -199l26 172h197l-227 -1434h-219l92 582q-146 -158 -369 -158q-218 0 -332 156q-90 120 -90 279q0 47 8 98zM276 487q-6 -34 -6 -65q0 -96 54 -165q71 -91 200 -91q109 0 205.5 60t149.5 151l41 244 q-24 87 -97.5 141.5t-175.5 54.5q-140 0 -243 -91.5t-128 -238.5z" />
<glyph unicode="r" horiz-adv-x="776" d="M41 0l156 983h194l-24 -158q127 182 375 182q32 0 67 -3l-35 -220q-41 8 -80 8q-86 0 -164 -37q-114 -54 -176 -165l-94 -590h-219z" />
<glyph unicode="s" horiz-adv-x="964" d="M16 72l31 194q144 -108 352 -108q214 0 232 106q4 24 -10.5 45.5t-39 37t-64 32t-76.5 28.5t-85.5 29t-81.5 31q-89 37 -138 105q-39 54 -39 123q0 18 3 38q21 143 148 211q129 66 284 66q197 0 351 -86l-29 -189q-137 94 -322 94q-86 0 -143.5 -27.5t-64.5 -80.5 q-3 -30 16 -54.5t60.5 -44.5t82 -34t102.5 -34t99 -34q88 -36 136 -106q36 -52 36 -118q0 -22 -4 -46q-47 -277 -459 -277q-233 0 -377 99z" />
<glyph unicode="t" horiz-adv-x="841" d="M57 791l31 192h176l47 293l226 59l-56 -352h357l-31 -192h-356l-74 -459q-3 -25 -3 -45q0 -57 26 -84q36 -37 130 -37q105 0 211 47l-30 -193q-109 -47 -258 -47q-155 1 -238 87q-64 67 -64 177q0 32 5 68l77 486h-176z" />
<glyph unicode="u" horiz-adv-x="1200" d="M88 385l94 598h219l-92 -586q-5 -31 -5 -57q0 -172 190 -172q177 0 309 170l102 645h219l-155 -983h-193l23 141q-68 -77 -163.5 -122.5t-197.5 -45.5q-186 0 -280 117q-76 90 -76 220q0 36 6 75z" />
<glyph unicode="v" horiz-adv-x="1124" d="M86 983h227l183 -743l424 743h245l-583 -983h-232z" />
<glyph unicode="w" horiz-adv-x="1644" d="M86 983h219l115 -719l354 719h205l123 -719l336 719h239l-485 -983h-234l-118 702l-351 -702h-231z" />
<glyph unicode="x" horiz-adv-x="1038" d="M-82 0l465 510l-283 473h240l186 -326l287 326h258l-444 -485l303 -498h-240l-205 350l-309 -350h-258z" />
<glyph unicode="y" horiz-adv-x="1122" d="M-59 -453l28 181q43 -15 90 -15q81 0 148 57.5t137 182.5l37 55l-307 975h225l215 -745l397 745h248l-637 -1122q-194 -336 -442 -336q-68 0 -139 22z" />
<glyph unicode="z" horiz-adv-x="966" d="M-27 0l27 164l625 633h-498l29 186h778l-27 -164l-624 -633h553l-29 -186h-834z" />
<glyph unicode="{" horiz-adv-x="673" d="M59 618l33 197q81 -2 124 34t56 124l70 438q25 158 132 221t286 25l-31 -191q-81 13 -121.5 -27.5t-58.5 -144.5l-60 -376q-27 -176 -176 -203q64 -6 95.5 -61t15.5 -154l-62 -377q-14 -95 15 -131.5t115 -24.5l-31 -194q-180 -41 -270.5 35.5t-65.5 234.5l70 436 q13 81 -19.5 110t-116.5 29z" />
<glyph unicode="|" horiz-adv-x="495" d="M8 -205l295 1864h225l-295 -1864h-225z" />
<glyph unicode="}" horiz-adv-x="673" d="M-47 -223l31 196q81 -19 122.5 17t55.5 133l65 405q27 182 189 197q-65 6 -101.5 64t-23.5 149l61 379q17 98 -11.5 132t-119.5 21l31 191q180 41 270.5 -36t65.5 -234l-68 -435q-13 -80 21.5 -112.5t109.5 -32.5l-30 -195q-154 6 -181 -155l-69 -434q-53 -335 -418 -250 z" />
<glyph unicode="~" horiz-adv-x="1226" d="M131 543q4 137 78.5 211.5t189.5 74.5q86 0 234 -53q143 -55 205 -55q94 0 94 92h194q-1 -136 -75.5 -211.5t-194.5 -75.5q-78 0 -229 56q-149 55 -207 55q-42 0 -68 -25t-26 -69h-195z" />
<glyph unicode="&#xa1;" horiz-adv-x="485" d="M-39 -449l172 984h199l-139 -984h-232zM152 891q7 58 46.5 88.5t96.5 30.5q63 0 99 -40.5t24 -107.5q-10 -56 -49.5 -86.5t-94.5 -30.5q-63 0 -98.5 39.5t-23.5 106.5z" />
<glyph unicode="&#xa2;" horiz-adv-x="1048" d="M72 506q24 152 110 266.5t203 169.5q107 52 233 64l35 223h162l-35 -225q117 -18 213 -80l-32 -193q-85 73 -211 82l-103 -641q128 15 248 78l-33 -209q-113 -52 -246 -64l-34 -223h-162l35 223q-194 27 -308 162q-113 134 -75 367zM291 487q-20 -124 33.5 -203 t162.5 -106l99 623q-117 -27 -196 -107.5t-99 -206.5z" />
<glyph unicode="&#xa3;" horiz-adv-x="1236" d="M-12 0l32 205h60q65 0 114 51t60 127l33 207h-168l28 192h170l25 160q40 247 193 363q150 114 358 114q171 0 313 -80l-28 -194q-119 82 -277 82q-132 0 -221 -77t-115 -228l-22 -140h426l-29 -192h-428l-35 -221q-21 -129 -106 -168l729 4l-33 -205h-1079z" />
<glyph unicode="&#xa4;" horiz-adv-x="1177" d="M78 373l145 127q-54 101 -33 231q20 127 101 217l-101 117l142 125l108 -127q99 51 219 51q119 0 213 -55l154 133l113 -129l-148 -129q52 -99 31 -232q-21 -126 -100 -217l102 -116l-141 -125l-111 127q-94 -52 -217 -52q-122 0 -211 56l-154 -133zM389 702 q-12 -91 35 -143.5t143 -52.5q104 0 174 62.5t82 162.5q17 91 -31 145t-145 54q-104 0 -174 -62.5t-84 -165.5z" />
<glyph unicode="&#xa5;" horiz-adv-x="1421" d="M186 1393h246l287 -664l500 664h260l-549 -705h246l-27 -168h-338l-18 -110h337l-26 -168h-338l-39 -242h-233l38 242h-337l26 168h338l19 110h-338l26 168h246z" />
<glyph unicode="&#xa6;" horiz-adv-x="524" d="M23 -205l118 746h226l-119 -746h-225zM201 913l116 746h226l-117 -746h-225z" />
<glyph unicode="&#xa7;" horiz-adv-x="1046" d="M47 27l29 182q66 -46 156 -73t167 -27q223 0 244 112q9 57 -61 94q-58 28 -170 62q-78 25 -122 45t-91 55q-99 70 -78 213q21 146 196 260q-122 76 -98 232q21 143 148 211q125 67 286 67q179 0 334 -88l-26 -180q-125 90 -299 90q-91 0 -153 -30t-69 -87q-5 -30 8.5 -51 t51.5 -41q46 -25 136 -54l15 -5q4 -1 10.5 -2.5t11.5 -3t9 -4.5q80 -27 123 -46.5t90 -52.5q95 -74 74 -211q-21 -143 -195 -258q113 -79 86 -231q-22 -140 -143 -207.5t-311 -67.5q-205 0 -359 97zM330 707q-12 -63 43 -97q9 -6 18 -11.5t15.5 -8.5t18.5 -8.5t17.5 -7.5 t23.5 -9t26 -10q12 -4 58.5 -16.5t57.5 -16.5q59 26 99.5 71.5t46.5 90.5q7 56 -28.5 86t-131.5 64q-16 6 -63 19t-52 15q-60 -24 -101.5 -70t-47.5 -91z" />
<glyph unicode="&#xa8;" horiz-adv-x="659" d="M217 1724q11 50 50.5 83.5t88.5 33.5q58 0 93.5 -43t25.5 -102q-8 -48 -48.5 -82.5t-90.5 -34.5q-56 0 -91.5 43.5t-27.5 101.5zM643 1724q11 50 50.5 83.5t88.5 33.5q58 0 93.5 -43t25.5 -102q-8 -48 -48.5 -82.5t-90.5 -34.5q-56 0 -91.5 43.5t-27.5 101.5z" />
<glyph unicode="&#xa9;" horiz-adv-x="1738" d="M113 731q38 237 180 404q143 171 325 247q185 78 379 78q141 0 270.5 -48.5t229.5 -139.5q103 -95 149.5 -245t18.5 -325q-29 -173 -116.5 -315.5t-213.5 -232.5q-257 -181 -553 -181q-141 0 -271 49.5t-230 141.5q-103 94 -149.5 243t-18.5 324zM190 717 q-20 -126 3 -235.5t79 -187t136 -133.5t174.5 -83t195.5 -27q270 0 508 164q117 79 197 210.5t104 291.5q20 126 -3 235t-78.5 187t-136 133.5t-175.5 82.5t-197 27q-187 0 -353 -72.5t-292 -222.5q-132 -156 -162 -370zM496 715q35 206 180 313q147 105 319 105 q153 0 256 -74l-16 -144q-95 62 -211 62q-133 0 -228.5 -69.5t-117.5 -205.5q-19 -125 44.5 -185t186.5 -60q127 0 258 67l-18 -157q-135 -66 -289 -66q-160 0 -278 109q-116 107 -86 305z" />
<glyph unicode="&#xab;" horiz-adv-x="1071" d="M57 471l9 47l307 356h233l-336 -382l209 -383h-223zM479 471l8 47l308 356h233l-334 -382l207 -383h-223z" />
<glyph unicode="&#xac;" horiz-adv-x="1177" d="M133 788l31 195h934l-72 -459h-201l41 264h-733z" />
<glyph unicode="&#xad;" horiz-adv-x="993" d="M94 406l31 196h745l-30 -196h-746z" />
<glyph unicode="&#xae;" horiz-adv-x="1738" d="M113 731q38 237 180 404q143 171 325 247q185 78 379 78q141 0 270.5 -48.5t229.5 -139.5q103 -95 149.5 -245t18.5 -325q-29 -173 -116.5 -315.5t-213.5 -232.5q-257 -181 -553 -181q-141 0 -271 49.5t-230 141.5q-103 94 -149.5 243t-18.5 324zM190 717 q-20 -126 3 -235.5t79 -187t136 -133.5t174.5 -83t195.5 -27q270 0 508 164q117 79 197 210.5t104 291.5q20 126 -3 235t-78.5 187t-136 133.5t-175.5 82.5t-197 27q-187 0 -353 -72.5t-292 -222.5q-132 -156 -162 -370zM522 319l127 805h352q57 0 109 -14.5t97 -45t66 -87 t9 -131.5q-26 -172 -209 -225l172 -302h-174l-156 285h-22h-170l-43 -285h-158zM745 743h185q35 -1 60.5 2.5t54 15t49 38.5t32.5 69q2 37 -9 61t-34.5 33.5t-46.5 12.5t-57 2h-197z" />
<glyph unicode="&#xaf;" horiz-adv-x="737" d="M258 1595l31 185h639l-31 -185h-639z" />
<glyph unicode="&#xb0;" horiz-adv-x="825" d="M160 1151q24 142 133 225q110 84 244 84q142 0 231 -92q87 -93 63 -246q-24 -145 -128.5 -229t-247.5 -84q-142 0 -230 94q-89 92 -65 248zM317 1130q-10 -75 30.5 -120t115.5 -45q85 0 142 48t67 130q10 73 -29.5 117.5t-114.5 44.5q-82 0 -140.5 -48t-70.5 -127z" />
<glyph unicode="&#xb1;" horiz-adv-x="1179" d="M33 0l30 195h934l-30 -195h-934zM145 717l31 194h371l57 371h195l-58 -371h369l-31 -194h-368l-60 -369h-194l59 369h-371z" />
<glyph unicode="&#xb4;" horiz-adv-x="432" d="M240 1571l233 303h264l-264 -303h-233z" />
<glyph unicode="&#xb6;" horiz-adv-x="1396" d="M129 1012q32 201 169.5 311.5t354.5 110.5h715l-299 -1885h-227l264 1670h-254l-264 -1670h-226l160 1012q-215 0 -320 121t-73 330z" />
<glyph unicode="&#xb7;" horiz-adv-x="509" d="M102 504q7 58 47.5 88.5t98.5 30.5q65 0 101 -40.5t24 -107.5q-21 -119 -146 -119q-65 0 -101 40.5t-24 107.5z" />
<glyph unicode="&#xb8;" horiz-adv-x="446" d="M-131 -438l27 153q74 -39 172 -39q136 0 145 62q4 29 -25 45t-76.5 16.5t-105.5 -6.5l76 207h166l-47 -111q95 -2 143.5 -50t36.5 -132q-6 -67 -58.5 -112t-127.5 -61t-162.5 -9t-163.5 37z" />
<glyph unicode="&#xbb;" horiz-adv-x="1073" d="M10 109l334 383l-207 382h221l201 -362l-6 -47l-311 -356h-232zM432 109l334 383l-207 382h221l201 -362l-6 -47l-311 -356h-232z" />
<glyph unicode="&#xbc;" horiz-adv-x="1923" d="M96 557l25 152h178l80 514l-182 -66l26 158l226 78h122l-108 -684h147l-22 -152h-492zM332 -29l1173 1489h86l-1175 -1489h-84zM1049 162l22 145l514 529h174l-84 -527h135l-24 -147h-133l-25 -162h-162l25 162h-442zM1268 309h248l49 305z" />
<glyph unicode="&#xbd;" horiz-adv-x="1841" d="M86 557l25 152h178l80 514l-183 -66l27 158l225 78h123l-108 -684h147l-22 -152h-492zM322 -29l1173 1489h86l-1175 -1489h-84zM1057 0l12 84q21 146 123 227q58 48 90 66q36 20 109 59q103 52 151 92t55 88q7 41 -24 62.5t-90 21.5q-151 0 -301 -100l26 170 q131 82 287 82q126 0 209 -68q80 -68 59 -188q-17 -85 -81 -150t-185 -129q-81 -43 -111 -61t-63 -47q-35 -31 -41 -57h414l-25 -152h-614z" />
<glyph unicode="&#xbe;" horiz-adv-x="2031" d="M96 610l27 158q105 -63 250 -63q193 0 211 116q7 54 -26 77.5t-107 23.5h-144l25 151h110q148 0 166 105q7 42 -30.5 65t-106.5 23q-137 0 -268 -70l24 164q127 59 267 59q126 0 208 -67t64 -176q-18 -122 -148 -172q64 -21 98 -78.5t21 -141.5q-18 -114 -113 -173.5 t-241 -59.5q-166 0 -287 59zM455 -29l1173 1489h86l-1175 -1489h-84zM1157 162l23 145l514 529h174l-84 -527h135l-25 -147h-133l-24 -162h-162l24 162h-442zM1376 309h248l49 305z" />
<glyph unicode="&#xbf;" horiz-adv-x="1003" d="M-49 -111q9 55 36.5 109t74.5 107.5t82.5 89t92.5 87.5q14 13 21 19q155 140 168 236h211q-16 -97 -84 -185q-68 -91 -143 -157q-71 -59 -144 -146q-69 -85 -78 -149q-12 -88 48.5 -126t193.5 -38q196 0 389 114l-37 -225q-94 -51 -199.5 -76.5t-202.5 -26t-183.5 24.5 t-146.5 70t-87.5 115.5t-11.5 156.5zM449 889q7 59 46.5 90t98.5 31q64 0 100.5 -40.5t24.5 -107.5q-21 -119 -148 -119q-63 0 -98.5 40t-23.5 106z" />
<glyph unicode="&#xc0;" horiz-adv-x="1490" d="M-84 0l834 1434h258l376 -1434h-239l-78 309h-721l-176 -309h-254zM461 514h557l-154 608q-8 25 -14 88q-23 -60 -41 -90zM659 1874h256l138 -303h-224z" />
<glyph unicode="&#xc1;" horiz-adv-x="1490" d="M-84 0l834 1434h258l376 -1434h-239l-78 309h-721l-176 -309h-254zM461 514h557l-154 608q-8 25 -14 88q-23 -60 -41 -90zM756 1571l233 303h264l-264 -303h-233z" />
<glyph unicode="&#xc2;" horiz-adv-x="1490" d="M-84 0l834 1434h258l376 -1434h-239l-78 309h-721l-176 -309h-254zM461 514h557l-154 608q-8 25 -14 88q-23 -60 -41 -90zM535 1567l311 307h194l215 -307h-215l-110 155l-162 -155h-233z" />
<glyph unicode="&#xc3;" horiz-adv-x="1490" d="M-84 0l834 1434h258l376 -1434h-239l-78 309h-721l-176 -309h-254zM461 514h557l-154 608q-8 25 -14 88q-23 -60 -41 -90zM535 1565q-1 114 56.5 182t147.5 68q70 0 168 -43q93 -43 125 -43q36 0 54.5 20.5t13.5 52.5h170q4 -115 -55 -182.5t-150 -67.5q-73 0 -166 43 q-98 43 -127 43q-34 0 -51.5 -21t-15.5 -52h-170z" />
<glyph unicode="&#xc4;" horiz-adv-x="1490" d="M-84 0l834 1434h258l376 -1434h-239l-78 309h-721l-176 -309h-254zM461 514h557l-154 608q-8 25 -14 88q-23 -60 -41 -90zM573 1724q11 50 51 83.5t89 33.5q58 0 93 -43t25 -102q-8 -48 -48.5 -82.5t-90.5 -34.5q-56 0 -91.5 43.5t-27.5 101.5zM999 1724q11 50 51 83.5 t89 33.5q58 0 93 -43t25 -102q-8 -48 -48.5 -82.5t-90.5 -34.5q-56 0 -91.5 43.5t-27.5 101.5z" />
<glyph unicode="&#xc5;" horiz-adv-x="1490" d="M-84 0l834 1434h258l376 -1434h-239l-78 309h-721l-176 -309h-254zM461 514h557l-154 608q-8 25 -14 88q-23 -60 -41 -90zM690 1765q17 98 94 159t177 61q98 0 165 -70t52 -176q-18 -102 -94 -162.5t-177 -60.5q-102 0 -168 69q-67 70 -49 180zM831 1751q-7 -43 18 -72.5 t64 -29.5q46 0 80 26t41 72q7 43 -18 72.5t-64 29.5q-46 0 -80 -26t-41 -72z" />
<glyph unicode="&#xc6;" horiz-adv-x="2082" d="M-109 0l1194 1434h1022l-32 -213h-695l-63 -392h635l-35 -213h-633l-65 -403h708l-33 -213h-944l51 315h-585l-262 -315h-263zM575 514h455l109 680z" />
<glyph unicode="&#xc7;" horiz-adv-x="1325" d="M106 752q26 164 114 304t214 228q123 85 261.5 130.5t273.5 45.5q231 0 391 -100l-35 -217q-126 102 -330 102q-320 0 -520 -227q-108 -120 -135 -291q-17 -109 2 -200t64.5 -152.5t111 -104.5t140 -62.5t153.5 -19.5q219 0 391 111l-39 -242q-150 -75 -362 -84l-37 -84 q95 -2 143.5 -50t36.5 -132q-6 -67 -58.5 -112t-127.5 -61t-162.5 -9t-163.5 37l27 153q74 -39 172 -39q136 0 145 62q4 29 -25 45t-76.5 16.5t-105.5 -6.5l70 191q-252 38 -412 227q-81 94 -114 235.5t-7 305.5z" />
<glyph unicode="&#xc8;" d="M80 0l227 1434h987l-34 -213h-754l-62 -392h693l-33 -213h-692l-64 -403h764l-33 -213h-999zM582 1874h256l137 -303h-223z" />
<glyph unicode="&#xc9;" d="M80 0l227 1434h987l-34 -213h-754l-62 -392h693l-33 -213h-692l-64 -403h764l-33 -213h-999zM678 1571l233 303h265l-265 -303h-233z" />
<glyph unicode="&#xca;" d="M80 0l227 1434h987l-34 -213h-754l-62 -392h693l-33 -213h-692l-64 -403h764l-33 -213h-999zM457 1567l311 307h195l215 -307h-215l-111 155l-162 -155h-233z" />
<glyph unicode="&#xcb;" d="M80 0l227 1434h987l-34 -213h-754l-62 -392h693l-33 -213h-692l-64 -403h764l-33 -213h-999zM496 1724q11 50 50.5 83.5t88.5 33.5q58 0 93.5 -43t25.5 -102q-8 -48 -48.5 -82.5t-91.5 -34.5q-56 0 -91 43.5t-27 101.5zM922 1724q11 50 50.5 83.5t88.5 33.5 q58 0 93.5 -43t25.5 -102q-8 -48 -48.5 -82.5t-91.5 -34.5q-56 0 -91 43.5t-27 101.5z" />
<glyph unicode="&#xcc;" horiz-adv-x="581" d="M80 0l227 1434h234l-228 -1434h-233zM205 1874h256l137 -303h-223z" />
<glyph unicode="&#xcd;" horiz-adv-x="581" d="M80 0l227 1434h234l-228 -1434h-233zM301 1571l234 303h264l-264 -303h-234z" />
<glyph unicode="&#xce;" horiz-adv-x="581" d="M80 0l227 1434h234l-228 -1434h-233zM80 1567l311 307h195l215 -307h-215l-111 155l-162 -155h-233z" />
<glyph unicode="&#xcf;" horiz-adv-x="581" d="M80 0l227 1434h234l-228 -1434h-233zM119 1724q11 50 50.5 83.5t88.5 33.5q58 0 93.5 -43t25.5 -102q-8 -48 -48.5 -82.5t-90.5 -34.5q-56 0 -91.5 43.5t-27.5 101.5zM545 1724q11 50 50.5 83.5t88.5 33.5q58 0 93.5 -43t25.5 -102q-8 -48 -48.5 -82.5t-90.5 -34.5 q-56 0 -91.5 43.5t-27.5 101.5z" />
<glyph unicode="&#xd0;" horiz-adv-x="1527" d="M31 621l30 188h158l100 625h496q356 0 526 -203q171 -205 119 -529q-52 -322 -266 -512q-217 -190 -590 -190h-512l96 621h-157zM358 213h263q251 0 407.5 135t194.5 383q38 239 -71.5 364.5t-360.5 125.5h-273l-65 -412h381l-31 -188h-381z" />
<glyph unicode="&#xd1;" horiz-adv-x="1570" d="M80 0l227 1434h197l631 -1057q4 43 20 170l141 887h234l-227 -1434h-197l-631 1057q-6 -89 -18 -164l-144 -893h-233zM569 1565q-1 114 57 182t148 68q70 0 168 -43q93 -43 125 -43q36 0 54.5 20.5t13.5 52.5h170q4 -115 -55 -182.5t-150 -67.5q-73 0 -166 43 q-98 43 -127 43q-34 0 -52 -21t-16 -52h-170z" />
<glyph unicode="&#xd2;" horiz-adv-x="1673" d="M102 731q23 143 91 272.5t174.5 232t261 163.5t334.5 61q337 0 518 -227q178 -228 129 -531q-51 -294 -260 -503q-108 -106 -264.5 -166t-337.5 -60q-224 0 -387 108t-226 284q-63 167 -33 366zM338 713q-34 -206 76 -365q107 -155 348 -155q249 0 414 151 q160 146 198 377q14 63 8.5 126.5t-22.5 121t-54.5 107t-87 86t-119 58t-151.5 21.5q-251 0 -411 -151q-161 -147 -199 -377zM743 1874h256l138 -303h-224z" />
<glyph unicode="&#xd3;" horiz-adv-x="1673" d="M102 731q23 143 91 272.5t174.5 232t261 163.5t334.5 61q337 0 518 -227q178 -228 129 -531q-51 -294 -260 -503q-108 -106 -264.5 -166t-337.5 -60q-224 0 -387 108t-226 284q-63 167 -33 366zM338 713q-34 -206 76 -365q107 -155 348 -155q249 0 414 151 q160 146 198 377q14 63 8.5 126.5t-22.5 121t-54.5 107t-87 86t-119 58t-151.5 21.5q-251 0 -411 -151q-161 -147 -199 -377zM840 1571l233 303h264l-264 -303h-233z" />
<glyph unicode="&#xd4;" horiz-adv-x="1673" d="M102 731q23 143 91 272.5t174.5 232t261 163.5t334.5 61q337 0 518 -227q178 -228 129 -531q-51 -294 -260 -503q-108 -106 -264.5 -166t-337.5 -60q-224 0 -387 108t-226 284q-63 167 -33 366zM338 713q-34 -206 76 -365q107 -155 348 -155q249 0 414 151 q160 146 198 377q14 63 8.5 126.5t-22.5 121t-54.5 107t-87 86t-119 58t-151.5 21.5q-251 0 -411 -151q-161 -147 -199 -377zM618 1567l312 307h194l215 -307h-215l-110 155l-162 -155h-234z" />
<glyph unicode="&#xd5;" horiz-adv-x="1673" d="M102 731q23 143 91 272.5t174.5 232t261 163.5t334.5 61q337 0 518 -227q178 -228 129 -531q-51 -294 -260 -503q-108 -106 -264.5 -166t-337.5 -60q-224 0 -387 108t-226 284q-63 167 -33 366zM338 713q-34 -206 76 -365q107 -155 348 -155q249 0 414 151 q160 146 198 377q14 63 8.5 126.5t-22.5 121t-54.5 107t-87 86t-119 58t-151.5 21.5q-251 0 -411 -151q-161 -147 -199 -377zM618 1565q-1 114 57 182t148 68q70 0 168 -43q93 -43 125 -43q36 0 54.5 20.5t13.5 52.5h170q4 -115 -55 -182.5t-150 -67.5q-73 0 -166 43 q-98 43 -127 43q-34 0 -52 -21t-16 -52h-170z" />
<glyph unicode="&#xd6;" horiz-adv-x="1673" d="M102 731q23 143 91 272.5t174.5 232t261 163.5t334.5 61q337 0 518 -227q178 -228 129 -531q-51 -294 -260 -503q-108 -106 -264.5 -166t-337.5 -60q-224 0 -387 108t-226 284q-63 167 -33 366zM338 713q-34 -206 76 -365q107 -155 348 -155q249 0 414 151 q160 146 198 377q14 63 8.5 126.5t-22.5 121t-54.5 107t-87 86t-119 58t-151.5 21.5q-251 0 -411 -151q-161 -147 -199 -377zM657 1724q11 50 51 83.5t89 33.5q58 0 93 -43t25 -102q-8 -48 -48.5 -82.5t-90.5 -34.5q-56 0 -91.5 43.5t-27.5 101.5zM1083 1724q11 50 51 83.5 t89 33.5q58 0 93 -43t25 -102q-8 -48 -48.5 -82.5t-90.5 -34.5q-56 0 -91.5 43.5t-27.5 101.5z" />
<glyph unicode="&#xd7;" horiz-adv-x="1011" d="M96 461l301 258l-219 260l148 129l217 -258l299 258l112 -129l-299 -260l219 -258l-147 -131l-217 260l-301 -260z" />
<glyph unicode="&#xd8;" horiz-adv-x="1673" d="M43 -98l225 256q-104 106 -148 257.5t-18 315.5q23 143 91 272.5t174.5 232t261 163.5t334.5 61q206 0 368 -96l150 168h188l-227 -256q104 -109 148.5 -259.5t19.5 -314.5q-51 -294 -260 -503q-106 -106 -262 -166t-338 -60q-203 0 -371 97l-148 -168h-188zM338 713 q-37 -228 88 -377l752 852q-103 53 -230 53q-251 0 -411 -151q-161 -147 -199 -377zM532 246q103 -53 230 -53q249 0 414 151q161 148 196 377q38 226 -86 377z" />
<glyph unicode="&#xd9;" horiz-adv-x="1542" d="M147 539l144 895h233l-141 -897q-59 -347 313 -347q388 0 447 361l139 883h234l-144 -910q-20 -121 -67 -216.5t-110.5 -157.5t-146 -102.5t-170 -57.5t-186.5 -17q-98 0 -185 18.5t-163 62t-126 107t-70.5 161t-0.5 217.5zM664 1874h256l137 -303h-223z" />
<glyph unicode="&#xda;" horiz-adv-x="1542" d="M147 539l144 895h233l-141 -897q-59 -347 313 -347q388 0 447 361l139 883h234l-144 -910q-20 -121 -67 -216.5t-110.5 -157.5t-146 -102.5t-170 -57.5t-186.5 -17q-98 0 -185 18.5t-163 62t-126 107t-70.5 161t-0.5 217.5zM760 1571l233 303h264l-264 -303h-233z" />
<glyph unicode="&#xdb;" horiz-adv-x="1542" d="M147 539l144 895h233l-141 -897q-59 -347 313 -347q388 0 447 361l139 883h234l-144 -910q-20 -121 -67 -216.5t-110.5 -157.5t-146 -102.5t-170 -57.5t-186.5 -17q-98 0 -185 18.5t-163 62t-126 107t-70.5 161t-0.5 217.5zM539 1567l311 307h194l216 -307h-216l-110 155 l-162 -155h-233z" />
<glyph unicode="&#xdc;" horiz-adv-x="1542" d="M147 539l144 895h233l-141 -897q-59 -347 313 -347q388 0 447 361l139 883h234l-144 -910q-20 -121 -67 -216.5t-110.5 -157.5t-146 -102.5t-170 -57.5t-186.5 -17q-98 0 -185 18.5t-163 62t-126 107t-70.5 161t-0.5 217.5zM578 1724q11 50 50.5 83.5t88.5 33.5 q58 0 93.5 -43t25.5 -102q-8 -48 -48.5 -82.5t-91.5 -34.5q-56 0 -91 43.5t-27 101.5zM1004 1724q11 50 50.5 83.5t88.5 33.5q58 0 93.5 -43t25.5 -102q-8 -48 -48.5 -82.5t-91.5 -34.5q-56 0 -91 43.5t-27 101.5z" />
<glyph unicode="&#xdd;" horiz-adv-x="1384" d="M147 1434h250l310 -689l528 689h270l-706 -908l-86 -526h-234l86 526zM684 1571l234 303h264l-264 -303h-234z" />
<glyph unicode="&#xde;" horiz-adv-x="1353" d="M80 0l227 1434h234l-39 -246h280q68 0 129.5 -7.5t121 -24t107 -43t88 -64.5t63 -88.5t32 -115t-3.5 -143.5q-40 -242 -211.5 -349t-470.5 -107h-283l-41 -246h-233zM387 459h285q181 0 284 62t127 206q10 58 -3 102.5t-41 71.5t-71.5 44t-90 23.5t-101.5 6.5h-307z" />
<glyph unicode="&#xdf;" horiz-adv-x="1210" d="M41 0l162 1018q32 215 159.5 327.5t337.5 114.5q102 0 182.5 -30t125.5 -77t63.5 -103t5.5 -111q-15 -90 -110 -205q-97 -117 -103 -162q-4 -25 12 -56.5t36 -55t60 -65.5t58 -63q41 -50 63 -118.5t11 -137.5q-24 -147 -152 -225q-124 -78 -288 -78q-138 0 -254 52 l28 176q83 -47 187 -47t177 44.5t85 123.5q7 45 -16.5 92.5t-61 89l-75 83t-61 89t-16.5 92.5q8 63 101 176q90 109 104 186q12 69 -33 109.5t-133 40.5q-108 0 -179.5 -61.5t-88.5 -167.5l-168 -1051h-219z" />
<glyph unicode="&#xe0;" d="M59 506q35 214 191 358q155 146 366 146q239 0 359 -193l24 166h197l-156 -983h-196l26 158q-156 -185 -397 -185q-218 0 -332 156q-117 156 -82 377zM276 489q-21 -139 50 -231t198 -92q106 0 202.5 59.5t152.5 151.5l39 239q-21 88 -95 144.5t-176 56.5 q-140 0 -243 -90.5t-128 -237.5zM455 1430h256l137 -304h-223z" />
<glyph unicode="&#xe1;" d="M59 506q35 214 191 358q155 146 366 146q239 0 359 -193l24 166h197l-156 -983h-196l26 158q-156 -185 -397 -185q-218 0 -332 156q-117 156 -82 377zM276 489q-21 -139 50 -231t198 -92q106 0 202.5 59.5t152.5 151.5l39 239q-21 88 -95 144.5t-176 56.5 q-140 0 -243 -90.5t-128 -237.5zM551 1126l233 304h265l-265 -304h-233z" />
<glyph unicode="&#xe2;" d="M59 506q35 214 191 358q155 146 366 146q239 0 359 -193l24 166h197l-156 -983h-196l26 158q-156 -185 -397 -185q-218 0 -332 156q-117 156 -82 377zM276 489q-21 -139 50 -231t198 -92q106 0 202.5 59.5t152.5 151.5l39 239q-21 88 -95 144.5t-176 56.5 q-140 0 -243 -90.5t-128 -237.5zM330 1122l311 308h195l215 -308h-215l-111 156l-162 -156h-233z" />
<glyph unicode="&#xe3;" d="M59 506q35 214 191 358q155 146 366 146q239 0 359 -193l24 166h197l-156 -983h-196l26 158q-156 -185 -397 -185q-218 0 -332 156q-117 156 -82 377zM276 489q-21 -139 50 -231t198 -92q106 0 202.5 59.5t152.5 151.5l39 239q-21 88 -95 144.5t-176 56.5 q-140 0 -243 -90.5t-128 -237.5zM330 1120q-1 114 57 182t148 68q69 0 167 -43q93 -43 125 -43q36 0 54.5 21t13.5 53h170q4 -115 -55 -182.5t-150 -67.5q-73 0 -166 43q-98 43 -127 43q-34 0 -51.5 -21.5t-15.5 -52.5h-170z" />
<glyph unicode="&#xe4;" d="M59 506q35 214 191 358q155 146 366 146q239 0 359 -193l24 166h197l-156 -983h-196l26 158q-156 -185 -397 -185q-218 0 -332 156q-117 156 -82 377zM276 489q-21 -139 50 -231t198 -92q106 0 202.5 59.5t152.5 151.5l39 239q-21 88 -95 144.5t-176 56.5 q-140 0 -243 -90.5t-128 -237.5zM369 1280q11 50 50.5 83.5t88.5 33.5q58 0 93.5 -43.5t25.5 -102.5q-8 -48 -48.5 -82t-91.5 -34q-56 0 -91 43.5t-27 101.5zM795 1280q11 50 50.5 83.5t88.5 33.5q58 0 93.5 -43.5t25.5 -102.5q-8 -48 -48.5 -82t-91.5 -34q-56 0 -91 43.5 t-27 101.5z" />
<glyph unicode="&#xe5;" d="M59 506q35 214 191 358q155 146 366 146q239 0 359 -193l24 166h197l-156 -983h-196l26 158q-156 -185 -397 -185q-218 0 -332 156q-117 156 -82 377zM276 489q-21 -139 50 -231t198 -92q106 0 202.5 59.5t152.5 151.5l39 239q-21 88 -95 144.5t-176 56.5 q-140 0 -243 -90.5t-128 -237.5zM485 1321q17 98 94 158.5t177 60.5q99 0 166 -70q66 -69 51 -176q-18 -102 -94 -162.5t-177 -60.5q-100 0 -167 70q-68 71 -50 180zM627 1307q-7 -43 18 -73t64 -30q46 0 79.5 26.5t40.5 72.5q7 43 -17.5 72.5t-63.5 29.5q-46 0 -80 -26 t-41 -72z" />
<glyph unicode="&#xe6;" horiz-adv-x="1984" d="M59 506q35 214 191 358q155 146 366 146q239 0 359 -193l24 166h191l-27 -160q138 187 373 187q107 0 186 -35t123 -94.5t62.5 -137t9.5 -163.5t-41 -174h-750q0 -120 94 -183t242 -63q184 0 324 76l-31 -195q-142 -68 -323 -68q-122 0 -223.5 53t-147.5 148l-27 -174 h-190l26 158q-156 -185 -397 -185q-218 0 -332 156q-117 156 -82 377zM274 489q-21 -139 50 -231t198 -92q106 0 202.5 59.5t152.5 151.5l38 239q-21 88 -94.5 144.5t-175.5 56.5q-140 0 -243 -90.5t-128 -237.5zM1157 569h547q24 90 -23 174q-50 84 -190 84 q-124 0 -216 -70t-118 -188z" />
<glyph unicode="&#xe7;" horiz-adv-x="1011" d="M61 506q41 255 220 379q177 125 393 125q174 0 307 -86l-33 -193q-96 84 -254 84q-149 0 -270 -80q-118 -81 -145 -248q-23 -153 60.5 -236t238.5 -83q142 0 305 82l-33 -209q-123 -57 -272 -66l-35 -86q95 -2 143.5 -50t36.5 -132q-7 -67 -59.5 -112t-127 -61t-161.5 -9 t-164 37l25 153q74 -39 172 -39q138 0 147 62q4 29 -25 45t-76.5 16.5t-105.5 -6.5l70 191q-183 30 -289 166q-105 136 -68 356z" />
<glyph unicode="&#xe8;" horiz-adv-x="1116" d="M59 504q38 245 205 375q168 131 363 131q112 0 197.5 -35.5t134.5 -95.5t72 -137.5t16.5 -163.5t-39.5 -172h-742q-3 -126 96 -185q94 -61 234 -61q195 0 338 76l-33 -197q-147 -66 -352 -66q-224 0 -375 142q-152 143 -115 389zM291 569h547q24 90 -23 174 q-50 84 -190 84q-120 0 -215 -71.5t-119 -186.5zM403 1423h256l138 -303h-224z" />
<glyph unicode="&#xe9;" horiz-adv-x="1116" d="M59 504q38 245 205 375q168 131 363 131q112 0 197.5 -35.5t134.5 -95.5t72 -137.5t16.5 -163.5t-39.5 -172h-742q-3 -126 96 -185q94 -61 234 -61q195 0 338 76l-33 -197q-147 -66 -352 -66q-224 0 -375 142q-152 143 -115 389zM291 569h547q24 90 -23 174 q-50 84 -190 84q-120 0 -215 -71.5t-119 -186.5zM500 1120l233 303h264l-264 -303h-233z" />
<glyph unicode="&#xea;" horiz-adv-x="1116" d="M59 504q38 245 205 375q168 131 363 131q112 0 197.5 -35.5t134.5 -95.5t72 -137.5t16.5 -163.5t-39.5 -172h-742q-3 -126 96 -185q94 -61 234 -61q195 0 338 76l-33 -197q-147 -66 -352 -66q-224 0 -375 142q-152 143 -115 389zM279 1116l311 307h194l215 -307h-215 l-110 156l-162 -156h-233zM291 569h547q24 90 -23 174q-50 84 -190 84q-120 0 -215 -71.5t-119 -186.5z" />
<glyph unicode="&#xeb;" horiz-adv-x="1116" d="M59 504q38 245 205 375q168 131 363 131q112 0 197.5 -35.5t134.5 -95.5t72 -137.5t16.5 -163.5t-39.5 -172h-742q-3 -126 96 -185q94 -61 234 -61q195 0 338 76l-33 -197q-147 -66 -352 -66q-224 0 -375 142q-152 143 -115 389zM291 569h547q24 90 -23 174 q-50 84 -190 84q-120 0 -215 -71.5t-119 -186.5zM317 1274q11 50 51 83.5t89 33.5q57 0 92.5 -43t25.5 -103q-8 -48 -48.5 -82.5t-90.5 -34.5q-56 0 -91.5 44t-27.5 102zM743 1274q11 50 51 83.5t89 33.5q57 0 92.5 -43t25.5 -103q-8 -48 -48.5 -82.5t-90.5 -34.5 q-56 0 -91.5 44t-27.5 102z" />
<glyph unicode="&#xec;" horiz-adv-x="501" d="M47 0l156 983h219l-156 -983h-219zM131 1423h256l76 -303h-217z" />
<glyph unicode="&#xed;" horiz-adv-x="501" d="M47 0l156 983h219l-156 -983h-219zM190 1120l234 303h264l-264 -303h-234z" />
<glyph unicode="&#xee;" horiz-adv-x="501" d="M8 1116l271 307h194l174 -307h-215l-74 156l-122 -156h-228zM47 0l156 983h219l-156 -983h-219z" />
<glyph unicode="&#xef;" horiz-adv-x="501" d="M47 0l156 983h219l-156 -983h-219zM53 1274q8 43 45 74.5t84 31.5q54 0 86.5 -39.5t22.5 -93.5q-6 -44 -44 -76t-85 -32q-54 0 -85.5 39.5t-23.5 95.5zM408 1274q11 45 47 75.5t82 30.5q54 0 86 -39.5t22 -93.5q-6 -44 -44 -76t-85 -32q-54 0 -85 39.5t-23 95.5z" />
<glyph unicode="&#xf0;" horiz-adv-x="1202" d="M57 463q30 194 179 319q145 121 329 121q128 0 226.5 -53t136.5 -143q4 32 4 69q-12 279 -230 402l-208 -183l-97 111l154 131q-97 23 -232 23l19 184q202 0 367 -68l196 168l96 -110l-153 -131q347 -232 262 -756q-43 -280 -203 -427t-395 -147q-222 0 -352 136 q-133 137 -99 354zM276 442q-19 -127 47.5 -200.5t200.5 -73.5q128 0 214.5 70.5t119.5 195.5q17 127 -53 206t-199 79q-128 0 -219 -76.5t-111 -200.5z" />
<glyph unicode="&#xf1;" horiz-adv-x="1202" d="M41 0l156 983h194l-22 -141q171 168 376 168q179 0 271 -115q90 -115 63 -293l-96 -602h-219l92 586q18 114 -30.5 171.5t-151.5 57.5q-82 0 -166 -48t-148 -122l-100 -645h-219zM332 1114q-1 114 57 182t148 68q70 0 168 -43q93 -43 124 -43q36 0 54.5 21t13.5 53h170 q4 -115 -55 -182.5t-150 -67.5q-73 0 -166 43q-98 43 -127 43q-34 0 -51.5 -21.5t-15.5 -52.5h-170z" />
<glyph unicode="&#xf2;" horiz-adv-x="1210" d="M59 508q41 242 213 371q174 131 392 131t356 -144q139 -145 98 -391q-38 -237 -213 -369q-177 -133 -391 -133q-218 0 -356 144q-139 145 -99 391zM276 483q-23 -139 48 -224t208 -85q142 0 244 89.5t127 236.5q20 140 -50 224.5t-206 84.5q-140 0 -243 -89.5 t-128 -236.5zM434 1417h256l137 -303h-223z" />
<glyph unicode="&#xf3;" horiz-adv-x="1210" d="M59 508q41 242 213 371q174 131 392 131t356 -144q139 -145 98 -391q-38 -237 -213 -369q-177 -133 -391 -133q-218 0 -356 144q-139 145 -99 391zM276 483q-23 -139 48 -224t208 -85q142 0 244 89.5t127 236.5q20 140 -50 224.5t-206 84.5q-140 0 -243 -89.5 t-128 -236.5zM530 1114l234 303h264l-264 -303h-234z" />
<glyph unicode="&#xf4;" horiz-adv-x="1210" d="M59 508q41 242 213 371q174 131 392 131t356 -144q139 -145 98 -391q-38 -237 -213 -369q-177 -133 -391 -133q-218 0 -356 144q-139 145 -99 391zM276 483q-23 -139 48 -224t208 -85q142 0 244 89.5t127 236.5q20 140 -50 224.5t-206 84.5q-140 0 -243 -89.5 t-128 -236.5zM309 1110l312 307h194l215 -307h-215l-110 156l-162 -156h-234z" />
<glyph unicode="&#xf5;" horiz-adv-x="1210" d="M59 508q41 242 213 371q174 131 392 131t356 -144q139 -145 98 -391q-38 -237 -213 -369q-177 -133 -391 -133q-218 0 -356 144q-139 145 -99 391zM276 483q-23 -139 48 -224t208 -85q142 0 244 89.5t127 236.5q20 140 -50 224.5t-206 84.5q-140 0 -243 -89.5 t-128 -236.5zM309 1108q-1 114 57 182t148 68q70 0 168 -43q93 -43 125 -43q36 0 54 21t13 53h170q4 -115 -54.5 -182.5t-149.5 -67.5q-73 0 -166 43q-98 43 -127 43q-34 0 -52 -21.5t-16 -52.5h-170z" />
<glyph unicode="&#xf6;" horiz-adv-x="1210" d="M59 508q41 242 213 371q174 131 392 131t356 -144q139 -145 98 -391q-38 -237 -213 -369q-177 -133 -391 -133q-218 0 -356 144q-139 145 -99 391zM276 483q-23 -139 48 -224t208 -85q142 0 244 89.5t127 236.5q20 140 -50 224.5t-206 84.5q-140 0 -243 -89.5 t-128 -236.5zM348 1268q11 50 50.5 83t88.5 33q58 0 93.5 -43t25.5 -102q-8 -48 -48.5 -82.5t-90.5 -34.5q-56 0 -91.5 44t-27.5 102zM774 1268q11 50 50.5 83t88.5 33q58 0 93.5 -43t25.5 -102q-8 -48 -48.5 -82.5t-90.5 -34.5q-56 0 -91.5 44t-27.5 102z" />
<glyph unicode="&#xf7;" horiz-adv-x="1196" d="M111 618l30 197h983l-30 -197h-983zM412 272q7 58 47 88.5t98 30.5q65 0 100 -39t25 -106q-21 -121 -145 -121q-65 0 -101 40t-24 107zM557 1188q7 58 47 88.5t98 30.5q65 0 100 -39.5t23 -106.5q-15 -121 -145 -121q-63 0 -99 40.5t-24 107.5z" />
<glyph unicode="&#xf8;" horiz-adv-x="1210" d="M18 -125l172 213q-177 148 -131 420q41 242 213 371q174 131 392 131q122 0 233 -54l125 156h139l-174 -215q174 -152 133 -422q-14 -95 -56 -178t-102.5 -142.5t-134 -102t-154 -62t-159.5 -17.5q-126 0 -235 56l-121 -154h-140zM276 483q-24 -140 52 -225l434 530 q-59 21 -115 21q-142 0 -245 -89.5t-126 -236.5zM416 195q59 -21 116 -21q142 0 244 89.5t127 236.5q24 144 -53 227z" />
<glyph unicode="&#xf9;" horiz-adv-x="1200" d="M88 385l94 598h219l-92 -586q-34 -229 185 -229q177 0 309 170l102 645h219l-155 -983h-193l23 141q-68 -77 -163.5 -122.5t-197.5 -45.5q-186 0 -280 117q-97 115 -70 295zM426 1423h256l137 -303h-223z" />
<glyph unicode="&#xfa;" horiz-adv-x="1200" d="M88 385l94 598h219l-92 -586q-34 -229 185 -229q177 0 309 170l102 645h219l-155 -983h-193l23 141q-68 -77 -163.5 -122.5t-197.5 -45.5q-186 0 -280 117q-97 115 -70 295zM522 1120l234 303h264l-264 -303h-234z" />
<glyph unicode="&#xfb;" horiz-adv-x="1200" d="M88 385l94 598h219l-92 -586q-34 -229 185 -229q177 0 309 170l102 645h219l-155 -983h-193l23 141q-68 -77 -163.5 -122.5t-197.5 -45.5q-186 0 -280 117q-97 115 -70 295zM301 1116l311 307h195l215 -307h-215l-111 156l-161 -156h-234z" />
<glyph unicode="&#xfc;" horiz-adv-x="1200" d="M88 385l94 598h219l-92 -586q-34 -229 185 -229q177 0 309 170l102 645h219l-155 -983h-193l23 141q-68 -77 -163.5 -122.5t-197.5 -45.5q-186 0 -280 117q-97 115 -70 295zM340 1274q11 50 50.5 83.5t88.5 33.5q58 0 93.5 -43.5t25.5 -102.5q-8 -48 -48.5 -82.5 t-90.5 -34.5q-56 0 -91.5 44t-27.5 102zM766 1274q11 50 50.5 83.5t88.5 33.5q58 0 93.5 -43.5t25.5 -102.5q-8 -48 -48.5 -82.5t-90.5 -34.5q-56 0 -91.5 44t-27.5 102z" />
<glyph unicode="&#xfd;" horiz-adv-x="1122" d="M-59 -453l28 181q43 -15 90 -15q81 0 148 57.5t137 182.5l37 55l-307 975h225l215 -745l397 745h248l-637 -1122q-194 -336 -442 -336q-68 0 -139 22zM469 1120l233 303h265l-265 -303h-233z" />
<glyph unicode="&#xfe;" horiz-adv-x="1267" d="M-31 -451l299 1885h219l-94 -584q151 160 371 160q215 0 332 -156q117 -157 80 -377q-30 -213 -187 -358q-158 -146 -368 -146q-229 0 -338 177l-95 -601h-219zM317 365q25 -89 98 -144t175 -55q135 0 241 92q106 89 130 238q23 139 -48 230t-200 91q-109 0 -204 -59.5 t-153 -153.5z" />
<glyph unicode="&#xff;" horiz-adv-x="1122" d="M-59 -453l28 181q43 -15 90 -15q81 0 148 57.5t137 182.5l37 55l-307 975h225l215 -745l397 745h248l-637 -1122q-194 -336 -442 -336q-68 0 -139 22zM287 1274q11 50 50.5 83.5t88.5 33.5q58 0 93.5 -43.5t25.5 -102.5q-8 -48 -48.5 -82.5t-90.5 -34.5q-56 0 -91.5 44 t-27.5 102zM713 1274q11 50 50.5 83.5t88.5 33.5q58 0 93.5 -43.5t25.5 -102.5q-8 -48 -48.5 -82.5t-91.5 -34.5q-56 0 -91 44t-27 102z" />
<glyph unicode="&#x152;" horiz-adv-x="2113" d="M94 593q-1 85 15 173q22 136 90.5 260t173 221t253 155t318.5 58q136 0 242 -28l954 2l-35 -213h-696l-61 -392h637l-35 -213h-637l-64 -403h709l-33 -213l-936 -2q-106 -25 -215 -25q-101 -1 -192 21t-164 62.5t-133.5 97.5t-100 126.5t-64.5 148.5t-26 164zM342 743 q-41 -238 82 -393q124 -160 369 -160q119 0 223 37l153 981q-75 35 -231 35q-231 0 -393 -143t-203 -357z" />
<glyph unicode="&#x153;" horiz-adv-x="1959" d="M59 510q38 239 211 369q174 131 387 131q132 0 235 -57.5t152 -161.5q74 105 187 162t242 57q112 0 197 -35.5t133.5 -95.5t70.5 -137.5t15 -163.5t-40 -172h-741q-3 -126 96 -185q94 -61 234 -61q189 0 338 76l-31 -197q-153 -66 -361 -66q-144 0 -254.5 59t-160.5 167 q-164 -226 -461 -226q-213 0 -350 146q-139 145 -99 391zM276 483q-20 -137 49.5 -223t202.5 -86q143 0 246.5 89.5t128.5 236.5q20 139 -49 224t-203 85q-143 0 -246.5 -89.5t-128.5 -236.5zM1135 569h546q25 91 -22 174q-50 84 -191 84q-120 0 -214.5 -71.5t-118.5 -186.5 z" />
<glyph unicode="&#x178;" horiz-adv-x="1384" d="M147 1434h250l310 -689l528 689h270l-706 -908l-86 -526h-234l86 526zM502 1724q11 50 50.5 83.5t88.5 33.5q58 0 93.5 -43t25.5 -102q-8 -48 -48.5 -82.5t-90.5 -34.5q-56 0 -91.5 43.5t-27.5 101.5zM928 1724q11 50 50.5 83.5t88.5 33.5q58 0 93.5 -43t25.5 -102 q-8 -48 -48.5 -82.5t-90.5 -34.5q-56 0 -91.5 43.5t-27.5 101.5z" />
<glyph unicode="&#x2c6;" horiz-adv-x="710" d="M197 1567l311 307h194l216 -307h-216l-110 155l-162 -155h-233z" />
<glyph unicode="&#x2dc;" horiz-adv-x="722" d="M215 1565q-1 114 57 182t148 68q70 0 168 -43q93 -43 125 -43q36 0 54 20.5t13 52.5h170q4 -115 -55 -182.5t-150 -67.5q-72 0 -165 43q-98 43 -127 43q-34 0 -52 -21t-16 -52h-170z" />
<glyph unicode="&#x2000;" horiz-adv-x="992" />
<glyph unicode="&#x2001;" horiz-adv-x="1985" />
<glyph unicode="&#x2002;" horiz-adv-x="992" />
<glyph unicode="&#x2003;" horiz-adv-x="1985" />
<glyph unicode="&#x2004;" horiz-adv-x="661" />
<glyph unicode="&#x2005;" horiz-adv-x="496" />
<glyph unicode="&#x2006;" horiz-adv-x="330" />
<glyph unicode="&#x2007;" horiz-adv-x="330" />
<glyph unicode="&#x2008;" horiz-adv-x="248" />
<glyph unicode="&#x2009;" horiz-adv-x="397" />
<glyph unicode="&#x200a;" horiz-adv-x="110" />
<glyph unicode="&#x2010;" horiz-adv-x="993" d="M94 406l31 196h745l-30 -196h-746z" />
<glyph unicode="&#x2011;" horiz-adv-x="993" d="M94 406l31 196h745l-30 -196h-746z" />
<glyph unicode="&#x2012;" horiz-adv-x="993" d="M94 406l31 196h745l-30 -196h-746z" />
<glyph unicode="&#x2013;" horiz-adv-x="1181" d="M94 406l31 196h936l-33 -196h-934z" />
<glyph unicode="&#x2014;" horiz-adv-x="1574" d="M94 406l31 196h1327l-31 -196h-1327z" />
<glyph unicode="&#x2018;" horiz-adv-x="497" d="M127 926l256 508h180l-201 -508h-235z" />
<glyph unicode="&#x2019;" horiz-adv-x="489" d="M137 926l201 508h235l-256 -508h-180z" />
<glyph unicode="&#x201a;" horiz-adv-x="489" d="M-115 -303l203 508h234l-256 -508h-181z" />
<glyph unicode="&#x201c;" horiz-adv-x="833" d="M127 926l256 508h180l-201 -508h-235zM463 926l256 508h180l-201 -508h-235z" />
<glyph unicode="&#x201d;" horiz-adv-x="825" d="M137 926l201 508h235l-256 -508h-180zM473 926l201 508h235l-256 -508h-180z" />
<glyph unicode="&#x201e;" horiz-adv-x="825" d="M-115 -303l203 508h234l-256 -508h-181zM221 -303l203 508h233l-256 -508h-180z" />
<glyph unicode="&#x2022;" horiz-adv-x="727" d="M172 731q13 89 76 139t151 50q97 0 150.5 -58.5t36.5 -159.5q-13 -91 -76 -139.5t-154 -48.5q-96 0 -148.5 58t-35.5 159z" />
<glyph unicode="&#x2026;" horiz-adv-x="1343" d="M29 125q7 58 47 88.5t98 30.5q65 0 101 -39.5t24 -106.5q-7 -58 -47 -89.5t-98 -31.5q-64 0 -100.5 40.5t-24.5 107.5zM467 125q7 58 47 88.5t98 30.5q65 0 101 -39.5t24 -106.5q-7 -58 -47 -89.5t-98 -31.5q-64 0 -100.5 40.5t-24.5 107.5zM903 125q7 58 47.5 88.5 t98.5 30.5q65 0 101 -39.5t24 -106.5q-7 -58 -47.5 -89.5t-98.5 -31.5q-64 0 -100.5 40.5t-24.5 107.5z" />
<glyph unicode="&#x202f;" horiz-adv-x="397" />
<glyph unicode="&#x2039;" horiz-adv-x="649" d="M57 471l9 47l307 356h233l-336 -382l209 -383h-223z" />
<glyph unicode="&#x203a;" horiz-adv-x="651" d="M10 109l334 383l-207 382h221l201 -362l-6 -47l-311 -356h-232z" />
<glyph unicode="&#x205f;" horiz-adv-x="496" />
<glyph unicode="&#x20ac;" horiz-adv-x="1480" d="M55 477l27 162h154q0 51 12 115h-150l27 161h168q99 248 319 377q219 127 475 127q215 0 390 -102l-35 -213q-135 100 -346 100q-183 0 -327.5 -72.5t-221.5 -216.5h622l-26 -161h-656q-14 -57 -14 -115h653l-26 -162h-606q42 -134 158.5 -211.5t269.5 -77.5 q236 0 407 107l-37 -238q-191 -84 -411 -84q-238 0 -418 136q-179 135 -219 368h-189z" />
<glyph unicode="&#x2122;" horiz-adv-x="1382" d="M195 1319l18 115h459l-19 -115h-166l-65 -410h-127l65 410h-165zM672 909l84 525h129l131 -265l207 265h145l-84 -525h-125l53 330l-172 -207h-82l-106 207l-53 -330h-127z" />
<glyph unicode="&#x25fc;" horiz-adv-x="983" d="M0 0v983h983v-983h-983z" />
<glyph unicode="&#xfb01;" horiz-adv-x="1200" d="M76 791l30 192h179l16 107q30 180 153.5 275t313.5 95q168 0 322 -71l-33 -193q-132 72 -271 72q-238 0 -268 -193l-14 -92h616l-155 -983h-220l125 791h-397l-125 -791h-219l125 791h-178z" />
<glyph unicode="&#xfb02;" horiz-adv-x="1232" d="M76 791l30 192h179l18 113q29 173 152 268.5t299 95.5q149 0 280 -61l191 39l-228 -1438h-219l195 1225q-90 43 -201 43q-222 0 -252 -189l-16 -96h287l-31 -192h-287l-125 -791h-219l125 791h-178z" />
<glyph unicode="&#xfb03;" horiz-adv-x="1861" d="M76 791l30 192h179l14 94q29 175 153.5 269t309.5 94q163 0 311 -86q133 133 354 133q158 0 314 -72l-31 -194q-122 73 -268 73q-236 0 -271 -207l-18 -104h629l-156 -983h-219l125 791h-410l-125 -791h-219l125 791h-430l-125 -791h-219l125 791h-178zM502 983h432 l18 119q9 61 25 94q-91 55 -209 55q-105 0 -173 -49t-81 -141z" />
<glyph unicode="&#xfb04;" horiz-adv-x="1882" d="M76 791l30 192h179l14 94q29 173 154 268t303 95q166 0 317 -86q127 127 328 127q155 0 285 -62l192 39l-231 -1458h-220l197 1245q-87 43 -194 43q-226 0 -261 -203l-16 -102h289l-31 -192h-289l-125 -791h-219l125 791h-430l-125 -791h-219l125 791h-178zM502 983h432 l18 119q9 61 25 94q-88 55 -209 55q-102 0 -171.5 -49.5t-82.5 -140.5z" />
</font>
</defs>
</svg>
