<?xml version="1.0" standalone="no"?>
<!DOCTYPE svg PUBLIC "-//W3C//DTD SVG 1.1//EN" "http://www.w3.org/Graphics/SVG/1.1/DTD/svg11.dtd" >
<svg xmlns="http://www.w3.org/2000/svg">
<metadata></metadata>
<defs>
<font id="mullerregular" horiz-adv-x="1269" >
<font-face units-per-em="2048" ascent="1550" descent="-498" />
<missing-glyph horiz-adv-x="454" />
<glyph horiz-adv-x="0" />
<glyph unicode="&#xd;" horiz-adv-x="681" />
<glyph unicode=" "  horiz-adv-x="454" />
<glyph unicode="&#x09;" horiz-adv-x="454" />
<glyph unicode="&#xa0;" horiz-adv-x="454" />
<glyph unicode="!" horiz-adv-x="555" d="M37 160q12 71 61.5 109t120.5 38q80 0 125 -49t33 -135q-12 -73 -62 -111.5t-122 -38.5q-80 0 -124.5 50.5t-31.5 136.5zM129 492l131 942h301l-168 -942h-264z" />
<glyph unicode="&#x22;" horiz-adv-x="825" d="M166 985l72 449h254l-125 -449h-201zM553 985l72 449h254l-125 -449h-201z" />
<glyph unicode="#" horiz-adv-x="1409" d="M25 309l32 209h191l141 359h-172l35 208h219l121 310h274l-121 -310h261l120 310h273l-121 -310h137l-33 -208h-188l-139 -359h168l-35 -209h-217l-123 -309h-273l121 309h-258l-123 -309h-272l121 309h-139zM520 518h260l142 359h-260z" />
<glyph unicode="$" horiz-adv-x="1243" d="M12 102l45 287q194 -147 478 -147q275 0 296 139q7 41 -16.5 76t-75.5 64.5t-105 52t-130 53.5t-125 55q-113 53 -173.5 149.5t-41.5 225.5q25 153 154 247t319 113l39 242h223l-39 -248q201 -24 332 -106l-43 -275q-167 124 -416 121q-241 -3 -262 -119 q-7 -44 20.5 -80.5t78 -61.5t116.5 -52.5t135 -53t132.5 -64.5t111 -85.5t69 -117.5t7.5 -159q-14 -91 -58 -161t-111.5 -116t-151 -72.5t-185.5 -35.5l-39 -239h-223l39 243q-230 27 -400 125z" />
<glyph unicode="%" horiz-adv-x="1884" d="M143 1128q24 156 138 245t272 89q155 0 256 -98q97 -100 70 -272q-24 -160 -142 -246q-116 -88 -268 -88q-159 0 -256 100q-97 97 -70 270zM309 -123l1104 1679h209l-1104 -1679h-209zM367 1096q-6 -57 23 -92t93 -35q72 0 118 43.5t52 111.5q5 58 -24 92.5t-90 34.5 q-73 0 -119.5 -43.5t-52.5 -111.5zM1044 342q24 159 142 248q118 86 270 86q156 0 254 -98q97 -100 70 -273q-24 -159 -140 -246q-116 -88 -268 -88q-158 0 -256 101q-99 96 -72 270zM1270 309q-6 -57 23 -92t93 -35q72 0 117 44t51 112q5 58 -23 92.5t-89 34.5 q-73 0 -119.5 -44t-52.5 -112z" />
<glyph unicode="&#x26;" horiz-adv-x="1474" d="M49 381q41 226 350 381q-137 169 -110 334q27 163 172 266q141 100 346 100q183 0 303 -108q119 -107 92 -262q-24 -145 -158 -246q-68 -51 -124.5 -84.5t-141.5 -71.5l226 -252q87 115 102 262h278q-27 -243 -215 -446l226 -254h-308l-96 106q-215 -135 -475 -135 q-232 0 -364 117q-130 113 -103 293zM340 381q-11 -79 48.5 -125.5t174.5 -46.5q138 0 268 74l-278 305q-192 -89 -213 -207zM553 1061q-12 -82 74 -199q75 32 104 44.5t68 36.5t73 54q53 47 62 101q11 55 -33 96t-117 41q-98 0 -158.5 -47t-72.5 -127z" />
<glyph unicode="'" horiz-adv-x="438" d="M166 985l72 449h254l-125 -449h-201z" />
<glyph unicode="(" horiz-adv-x="645" d="M94 735q41 240 160 488q119 244 293 436h233q-324 -455 -401 -934q-40 -238 -12 -502q27 -264 108 -450h-221q-112 206 -155 460t-5 502z" />
<glyph unicode=")" horiz-adv-x="647" d="M-96 -225q323 455 399 946q39 239 14 498q-27 253 -108 442h219q109 -202 156 -465q46 -261 6 -510q-37 -236 -158 -477q-118 -239 -295 -434h-233z" />
<glyph unicode="*" horiz-adv-x="985" d="M139 1049l127 247l219 -116l9 254h266l-74 -254l246 116l55 -247l-264 -50l154 -184l-234 -153l-90 251l-174 -251l-203 153l209 184z" />
<glyph unicode="+" horiz-adv-x="1101" d="M72 596l39 242h358l57 358h242l-57 -358h358l-39 -242h-358l-58 -358h-239l57 358h-360z" />
<glyph unicode="," horiz-adv-x="542" d="M-125 -297l217 551h305l-288 -551h-234z" />
<glyph unicode="-" horiz-adv-x="989" d="M80 379l39 239h762l-39 -239h-762z" />
<glyph unicode="." horiz-adv-x="509" d="M16 160q12 71 62.5 110t122.5 39q82 0 125.5 -48.5t31.5 -137.5q-12 -73 -62 -111.5t-122 -38.5q-81 0 -126 50.5t-32 136.5z" />
<glyph unicode="/" horiz-adv-x="937" d="M-63 -121l890 1675h211l-891 -1675h-210z" />
<glyph unicode="0" horiz-adv-x="1443" d="M91 517q-5 95 15 198q50 317 236 512q185 194 498 194q104 0 191.5 -26.5t150.5 -74.5t109 -116t67.5 -150.5t26.5 -177.5t-15 -198q-53 -319 -235 -510q-188 -197 -498 -197q-104 0 -191.5 26.5t-150.5 75t-109.5 116t-68 150.5t-26.5 178zM406 694q-71 -452 245 -452 q346 0 416 456q71 453 -246 453q-342 0 -415 -457z" />
<glyph unicode="1" horiz-adv-x="940" d="M8 0l43 264h262l131 821l-278 -98l43 277l358 129h226l-179 -1129h232l-43 -264h-795z" />
<glyph unicode="2" horiz-adv-x="1218" d="M-12 0l24 145q12 90 53 173t91 145q36 47 125 110q96 68 127 84q14 7 61 33t82 45q192 101 242 142q75 60 84 137q10 67 -42 103t-153 36q-235 0 -489 -172l45 295q236 145 487 145q220 0 354 -110q135 -114 101 -320q-23 -160 -142 -264q-56 -51 -114 -92 q-46 -31 -152 -90q-17 -11 -115 -64q-92 -50 -108 -61l-74 -49q-73 -51 -86 -107h686l-43 -264h-1044z" />
<glyph unicode="3" horiz-adv-x="1216" d="M14 68l41 274q184 -102 424 -102q140 2 229.5 50.5t106.5 143.5q12 78 -38.5 115t-162.5 37h-249l45 262h186q110 -2 176 36t76 111q12 74 -44 116t-173 42q-208 0 -445 -129l47 293q201 104 453 104q222 0 352 -106q132 -108 105 -297q-17 -103 -83.5 -176.5 t-174.5 -108.5q115 -39 174 -134t37 -237q-35 -201 -199 -294q-174 -97 -408 -97q-252 0 -475 97z" />
<glyph unicode="4" horiz-adv-x="1343" d="M-6 254l39 254l858 885h307l-141 -883h211l-39 -256h-211l-41 -254h-293l41 254h-731zM367 510h397l78 491z" />
<glyph unicode="5" horiz-adv-x="1204" d="M12 70l41 270q153 -100 381 -100q330 0 365 206q14 97 -56 148t-217 51q-205 0 -391 -63l170 811h885l-43 -263l-615 3l-59 -271q97 19 178 19q213 0 348 -117t101 -348q-37 -223 -215 -334q-181 -111 -432 -111t-441 99z" />
<glyph unicode="6" horiz-adv-x="1314" d="M106 715q55 354 265 530q206 176 493 176q212 0 381 -88l-41 -258q-131 88 -311 88q-347 0 -461 -346q185 84 367 84q69 0 136.5 -18.5t126.5 -58t100.5 -93.5t59.5 -132t3 -167q-34 -221 -199 -342q-162 -119 -393 -119q-311 0 -447 195.5t-80 548.5zM385 551 q-15 -330 242 -330q121 0 199 54t96 165q17 101 -46 153t-180 52q-156 0 -311 -94z" />
<glyph unicode="7" horiz-adv-x="1159" d="M119 0l731 1130h-719l43 265h1071l-35 -221l-755 -1174h-336z" />
<glyph unicode="8" horiz-adv-x="1341" d="M53 408q13 97 86 187.5t185 152.5q-147 129 -117 307q27 151 172 260q141 106 405 106q238 0 377 -127q139 -130 115 -290q-24 -172 -225 -308q105 -63 148 -143.5t24 -200.5q-23 -160 -183 -270q-159 -111 -444 -111q-282 0 -426 129q-144 126 -117 308zM358 422 q-12 -90 61 -149.5t210 -59.5q114 0 196.5 46t94.5 114q15 89 -58 135q-37 23 -69 35.5t-105 34.5q-94 29 -174 61q-138 -99 -156 -217zM496 1028q-10 -71 38.5 -115t161.5 -82q45 -11 144 -47q129 106 145 224q11 69 -52.5 120.5t-170.5 51.5q-109 0 -181.5 -41.5 t-84.5 -110.5z" />
<glyph unicode="9" horiz-adv-x="1312" d="M96 57l41 258q133 -86 316 -86q352 0 460 346q-169 -81 -352 -81q-91 -3 -177 28t-152 89t-97.5 150t-13.5 200q37 222 201 342q161 118 391 118q311 0 446.5 -195t79.5 -548q-55 -354 -262 -531q-206 -176 -496 -176q-211 0 -385 86zM426 954q-17 -105 46 -158t181 -53 q151 0 305 95q15 331 -251 331q-113 0 -188 -55.5t-93 -159.5z" />
<glyph unicode=":" horiz-adv-x="573" d="M45 160q12 71 62 110t120 39q84 0 128 -48.5t32 -137.5q-12 -73 -62 -111.5t-122 -38.5q-81 0 -126 50.5t-32 136.5zM143 782q12 73 61.5 111.5t121.5 38.5q82 0 126 -49.5t31 -137.5q-12 -73 -61 -111t-123 -38q-81 0 -125 49t-31 137z" />
<glyph unicode=";" horiz-adv-x="598" d="M-102 -297l217 551h305l-289 -551h-233zM166 840q12 71 62 109t120 38q83 0 127.5 -49t32.5 -135q-12 -73 -62.5 -112.5t-121.5 -39.5q-82 0 -126.5 50.5t-31.5 138.5z" />
<glyph unicode="&#x3c;" horiz-adv-x="1034" d="M76 575l45 283l862 297l-41 -260l-594 -184l537 -176l-41 -256z" />
<glyph unicode="=" horiz-adv-x="1185" d="M88 393l39 240h942l-39 -240h-942zM154 801l36 239h945l-39 -239h-942z" />
<glyph unicode="&#x3e;" horiz-adv-x="1036" d="M90 274l41 261l598 188l-541 176l41 256l770 -297l-47 -283z" />
<glyph unicode="?" horiz-adv-x="1019" d="M150 1085l43 277q187 100 399 100q209 0 340 -94q132 -95 102 -283q-16 -95 -84 -184q-68 -90 -149 -156q-204 -165 -223 -274h-271q13 86 74.5 176.5t140.5 157.5q185 158 203 252q10 72 -40 103.5t-159 31.5q-178 0 -376 -107zM221 160q12 71 62.5 110t122.5 39 q82 0 125.5 -48.5t31.5 -137.5q-12 -73 -62 -111.5t-122 -38.5q-81 0 -126 50.5t-32 136.5z" />
<glyph unicode="@" horiz-adv-x="2144" d="M61 516q29 186 122.5 356t238.5 302q148 135 353.5 211.5t436.5 76.5q186 0 340 -55.5t254.5 -147t165 -209.5t84.5 -244.5t0 -250.5q-42 -269 -175.5 -406t-346.5 -137q-123 0 -208.5 57.5t-104.5 149.5q-108 -156 -306 -156q-176 0 -266 134t-63 309q27 169 145 287 q117 120 297 120q88 0 159 -42.5t107 -110.5l21 129h219l-82 -516q-21 -150 104 -150q188 0 244 355q11 54 7 111t-15 112.5t-38 108.5t-61 100.5t-85 87t-110 68t-135 44t-161 15.5q-354 0 -596 -211q-245 -213 -291 -520q-22 -142 4.5 -262.5t90.5 -206t159 -146 t210.5 -90t244.5 -29.5q229 0 461 76l-27 -244q-198 -69 -454 -69q-213 0 -398.5 65t-320.5 187q-139 124 -199.5 317t-24.5 424zM825 479q-12 -89 30 -151t126 -62q76 0 141 43t95 107l26 159q-11 59 -54.5 96.5t-109.5 37.5q-97 0 -166.5 -65t-87.5 -165z" />
<glyph unicode="A" horiz-adv-x="1513" d="M-88 0l811 1434h334l356 -1434h-309l-64 268h-657l-145 -268h-326zM520 522h463l-115 506q-13 47 -16 123q-22 -67 -51 -123z" />
<glyph unicode="B" horiz-adv-x="1406" d="M59 0l228 1434h606q222 0 354 -99q108 -83 108 -223q0 -29 -5 -61q-35 -228 -267 -299q117 -34 179 -129q45 -68 45 -163q0 -37 -7 -77q-58 -383 -618 -383h-623zM406 250h301q262 0 297 182q3 21 3 40q0 30 -8 54q-13 38 -45 58q-34 19 -72 27q-34 7 -78 7h-11h-330z M502 854h303q95 0 158.5 42.5t76.5 119.5q3 19 3 35q-1 59 -37 91q-46 40 -152 40h-301z" />
<glyph unicode="C" horiz-adv-x="1331" d="M96 745q29 172 118.5 314t217.5 231q253 172 533 172q232 0 403 -104l-43 -275q-125 107 -324 107q-291 0 -473 -201q-101 -113 -125 -272q-7 -47 -7 -90q0 -161 104 -258q129 -123 325 -123q222 0 396 116l-50 -305q-180 -86 -409 -86q-143 0 -272.5 49.5t-229.5 141.5 q-102 95 -148 247q-27 92 -28 195q0 68 12 141z" />
<glyph unicode="D" horiz-adv-x="1519" d="M59 0l228 1434h530q356 0 526 -203q130 -155 130 -383q0 -71 -13 -150q-53 -321 -264 -508q-211 -190 -580 -190h-557zM410 270h223q215 0 349 119.5t169 345.5q10 59 10 109q0 134 -67 212q-92 108 -306 107h-237z" />
<glyph unicode="E" horiz-adv-x="1265" d="M59 0l228 1434h1009l-43 -271h-704l-47 -305h641l-41 -268h-643l-51 -320h716l-43 -270h-1022z" />
<glyph unicode="F" horiz-adv-x="1241" d="M59 0l228 1434h1011l-43 -277h-706l-51 -334h645l-43 -276h-647l-86 -547h-308z" />
<glyph unicode="G" horiz-adv-x="1435" d="M96 741q29 180 119 325t219 230q251 166 545 166q242 0 432 -96l-43 -279q-131 101 -364 101q-77 0 -152 -16.5t-149 -54t-133.5 -92t-103 -136.5t-60.5 -182q-8 -51 -8 -97q0 -50 10 -94q17 -84 57.5 -135t100.5 -83.5t120 -45t125 -12.5q95 0 174 28l82 510h293 l-113 -712q-219 -95 -467 -95q-316 0 -520 183q-104 93 -149 246q-27 93 -27 197q0 69 12 144z" />
<glyph unicode="H" horiz-adv-x="1566" d="M59 0l228 1434h307l-92 -578h643l92 578h307l-227 -1434h-307l90 578h-643l-90 -578h-308z" />
<glyph unicode="I" horiz-adv-x="616" d="M59 0l228 1434h307l-227 -1434h-308z" />
<glyph unicode="J" horiz-adv-x="1050" d="M-55 51l43 277q123 -72 278 -72q282 0 316 227l106 674h-379l43 277h686l-157 -1004q-70 -457 -572 -457q-229 0 -364 78z" />
<glyph unicode="K" horiz-adv-x="1413" d="M59 0l228 1434h307l-90 -570h237l449 570h340l-569 -721l364 -713h-326l-299 586h-241l-92 -586h-308z" />
<glyph unicode="L" horiz-adv-x="1185" d="M59 0l228 1434h307l-184 -1158h704l-45 -276h-1010z" />
<glyph unicode="M" horiz-adv-x="1857" d="M59 0l228 1434h276l365 -748l596 748h311l-227 -1434h-305l141 889l-451 -563h-207l-276 567l-143 -893h-308z" />
<glyph unicode="N" horiz-adv-x="1566" d="M59 0l228 1434h256l555 -936q5 94 22 200l117 736h307l-227 -1434h-256l-555 936q-3 -63 -19 -191l-120 -745h-308z" />
<glyph unicode="O" horiz-adv-x="1667" d="M94 735q49 304 281 516q230 211 583 211h5q166 0 302 -63q138 -64 222 -170q85 -105 119 -245q19 -77 18 -156q0 -64 -12 -130q-47 -294 -264 -505q-108 -105 -263 -163.5t-335 -58.5h-5q-171 1 -309 63q-140 64 -222 170q-84 106 -116 244q-17 74 -17 152q0 67 13 135z M401 709q-6 -43 -6 -82q0 -137 72 -238q92 -133 299 -133q220 0 362 133q141 132 175 336q6 43 6 84q0 136 -70 238q-94 131 -301 131q-220 0 -360 -131q-142 -130 -177 -338z" />
<glyph unicode="P" horiz-adv-x="1368" d="M59 0l228 1434h540q100 0 184.5 -15.5t159 -52t122.5 -92.5t69 -143q12 -48 12 -103q0 -45 -8 -94q-40 -246 -209 -354.5t-469 -108.5h-248l-73 -471h-308zM483 741h250q289 0 324 215q4 22 4 42q0 72 -48 113q-61 52 -200 52h-262z" />
<glyph unicode="Q" horiz-adv-x="1667" d="M94 735q49 304 281 516q230 211 583 211h5q166 0 302 -63q138 -64 222 -170t119 -245q19 -78 19 -156q0 -65 -13 -130q-44 -283 -236 -475l137 -157l-227 -183l-147 172q-182 -84 -389 -84h-5q-171 0 -309 63q-139 63 -222 169.5t-116 244.5q-17 75 -17 152q0 67 13 135z M401 709q-6 -43 -6 -82q0 -137 72 -238q92 -133 299 -133q93 0 172 31l-143 170l217 190l168 -196q97 117 123 274q6 43 6 84q0 136 -70 238q-94 131 -301 131q-220 0 -360 -131q-142 -130 -177 -338z" />
<glyph unicode="R" horiz-adv-x="1445" d="M59 0l228 1434h581q84 0 160.5 -14.5t148 -50.5t119.5 -89.5t70 -138.5q12 -47 12 -101q0 -43 -8 -90q-52 -316 -375 -411l334 -539h-332l-301 502h-252l-77 -502h-308zM487 758h289q112 0 189 54.5t94 154.5q4 23 4 43q0 68 -44 105q-57 48 -171 48h-297z" />
<glyph unicode="S" horiz-adv-x="1232" d="M18 104l45 283q198 -145 472 -145q275 0 296 139q2 11 2 22q-1 31 -17 59q-22 36 -62 63t-94.5 51t-115 47.5t-120.5 50.5t-112 64t-89.5 82t-53.5 111q-9 36 -9 77q0 33 6 69q30 188 194 287q162 98 377 98q272 0 455 -119l-41 -274q-168 123 -392 123h-11 q-255 -3 -273 -139q-1 -7 -1 -14q0 -31 18 -57q22 -32 64.5 -56t98 -46.5t116 -46.5t120.5 -51t112 -65.5t88.5 -85t50.5 -113.5q7 -34 8 -72q0 -36 -7 -75q-71 -400 -600 -400q-306 0 -525 133z" />
<glyph unicode="T" horiz-adv-x="1241" d="M117 1157l43 277h1186l-43 -277h-441l-182 -1157h-307l184 1157h-440z" />
<glyph unicode="U" horiz-adv-x="1538" d="M131 547l139 887h308l-142 -887q-6 -41 -7 -77q0 -99 50 -151q67 -71 221 -71q333 0 385 315l138 871h307l-144 -904q-20 -124 -68 -221t-113.5 -159.5t-151 -103.5t-175.5 -58t-192 -17q-248 0 -418 129q-88 66 -124 182q-22 70 -23 151q0 54 10 114z" />
<glyph unicode="V" horiz-adv-x="1454" d="M145 1434h320l213 -1074l557 1074h342l-786 -1434h-316z" />
<glyph unicode="W" horiz-adv-x="2160" d="M145 1434h320l119 -1082l485 1082h266l140 -1074l460 1074h338l-665 -1434h-342l-129 969l-439 -969h-338z" />
<glyph unicode="X" horiz-adv-x="1380" d="M-113 0l650 739l-383 695h344l243 -457l398 457h366l-612 -697l405 -737h-344l-264 504l-436 -504h-367z" />
<glyph unicode="Y" horiz-adv-x="1437" d="M139 1434h332l266 -646l469 646h359l-707 -926l-82 -508h-305l82 508z" />
<glyph unicode="Z" horiz-adv-x="1257" d="M-29 0l33 217l832 940h-650l43 277h1067l-32 -222l-832 -936h705l-43 -276h-1123z" />
<glyph unicode="[" horiz-adv-x="679" d="M-2 -225l297 1884h493l-38 -256h-207l-219 -1370h206l-38 -258h-494z" />
<glyph unicode="\" horiz-adv-x="917" d="M199 1554h200l361 -1675h-201z" />
<glyph unicode="]" horiz-adv-x="677" d="M-70 -225l39 258h209l217 1370h-207l39 256h494l-297 -1884h-494z" />
<glyph unicode="^" horiz-adv-x="1208" d="M90 725l524 709h250l301 -709h-293l-163 426l-306 -426h-313z" />
<glyph unicode="_" horiz-adv-x="993" d="M-150 -354l39 241h992l-39 -241h-992z" />
<glyph unicode="`" horiz-adv-x="518" d="M246 1868h319l137 -303h-282z" />
<glyph unicode="a" d="M53 510q35 209 183 354q148 148 364 148q236 0 338 -193l27 164h249l-155 -983h-250l22 145q-137 -174 -370 -174q-223 0 -332 160q-84 121 -84 277q0 49 8 102zM336 485q-5 -29 -4 -56q0 -79 42 -139q56 -78 167 -79q91 0 170 48t125 124l38 229q-19 71 -77.5 115.5 t-141.5 44.5q-123 0 -210.5 -80.5t-108.5 -206.5z" />
<glyph unicode="b" horiz-adv-x="1271" d="M25 0l227 1434h285l-93 -560q141 138 336 138q215 0 330 -160q86 -127 86 -282q0 -47 -8 -97q-35 -213 -176 -354q-145 -148 -373 -148q-119 0 -204.5 51t-129.5 134l-29 -156h-251zM367 371q21 -73 78 -116.5t137 -43.5q127 0 214.5 78.5t106.5 204.5q5 30 5 57 q0 81 -42 141q-56 80 -166 80q-89 0 -167 -47.5t-130 -124.5z" />
<glyph unicode="c" horiz-adv-x="1009" d="M51 506q16 107 62.5 194t109 144.5t140 96.5t155.5 56t156 17q177 0 311 -84l-39 -236q-97 72 -241 72q-143 0 -245 -73t-124 -210q-4 -26 -4 -49q0 -94 58 -148q72 -68 206 -69q148 0 299 74l-41 -256q-146 -64 -328 -64q-228 0 -372 138q-112 107 -112 289q0 51 9 108z " />
<glyph unicode="d" d="M53 510q35 209 180 354q148 148 363 148q213 0 315 -156l93 578h282l-227 -1434h-250l22 145q-125 -174 -370 -174q-223 0 -332 160q-84 121 -84 277q0 49 8 102zM336 483q-5 -29 -4 -55q0 -78 42 -138q57 -78 167 -79q91 0 170 48t125 124l38 235q-19 67 -79 110.5 t-140 43.5q-124 0 -211.5 -79.5t-107.5 -209.5z" />
<glyph unicode="e" horiz-adv-x="1112" d="M51 512q15 102 56.5 187t99 141.5t128 96t141.5 57.5t142 18q96 0 173.5 -25.5t128.5 -70t84 -104.5q32 -60 42 -128q5 -37 5 -75q1 -33 -3 -67q-8 -74 -36 -145h-695q6 -98 90 -149t214 -51q187 0 321 67l-35 -231q-145 -62 -356 -62h-17q-104 0 -195 34 q-99 37 -170 105q-71 70 -104 174q-21 66 -21 140q0 43 7 88zM346 582h440q7 26 7 52q0 47 -25 91q-40 70 -154 70q-98 0 -173 -59.5t-95 -153.5z" />
<glyph unicode="f" horiz-adv-x="823" d="M70 743l39 240h167l19 113q13 84 45.5 149.5t74.5 105.5t96.5 65.5t107.5 35.5t112 10q147 0 238 -45l-35 -223q-66 29 -146 29q-189 0 -213 -156l-14 -84h299l-37 -240h-301l-116 -743h-285l119 743h-170z" />
<glyph unicode="g" horiz-adv-x="1273" d="M20 -379l39 240q143 -101 357 -101q148 0 243.5 66t118.5 197l15 90q-115 -142 -334 -142q-223 0 -332 160q-84 121 -84 277q0 49 8 102q35 207 182 354q151 148 365 148q234 0 336 -185l27 156h253l-151 -965q-40 -252 -211 -376q-174 -121 -410 -121q-250 0 -422 100z M334 483q-5 -29 -5 -55q0 -80 43 -138q57 -79 167 -79q91 0 170 46.5t125 121.5l38 239q-19 67 -79 110.5t-140 43.5q-124 0 -211.5 -79.5t-107.5 -209.5z" />
<glyph unicode="h" horiz-adv-x="1206" d="M25 0l227 1434h285l-88 -545q147 123 311 123q184 0 276 -117q70 -95 70 -219q0 -37 -6 -76l-96 -600h-285l92 580q3 23 3 44q0 60 -28 95q-38 47 -120 47q-137 0 -258 -133l-99 -633h-284z" />
<glyph unicode="i" horiz-adv-x="530" d="M29 0l155 983h285l-156 -983h-284zM213 1325q12 71 60 108t118 37q77 0 121 -48q34 -38 33 -97q0 -16 -2 -35q-12 -71 -60 -108t-118 -37q-77 0 -121 48q-34 38 -34 97q0 17 3 35z" />
<glyph unicode="j" horiz-adv-x="530" d="M-281 -444l37 233q40 -18 101 -18q135 0 159 145l168 1067h285l-182 -1145q-50 -317 -381 -317q-106 0 -187 35zM213 1325q12 71 60 108t118 37q77 0 121 -48q34 -38 34 -97q0 -17 -3 -35q-12 -71 -60 -108t-118 -37q-77 0 -121 48q-34 38 -34 97q0 17 3 35z" />
<glyph unicode="k" horiz-adv-x="1116" d="M25 0l227 1434h285l-131 -811h122l303 360h328l-422 -491l285 -492h-299l-225 397h-127l-62 -397h-284z" />
<glyph unicode="l" horiz-adv-x="530" d="M29 0l237 1495h285l-238 -1495h-284z" />
<glyph unicode="m" horiz-adv-x="1787" d="M25 0l155 983h250l-18 -119q60 63 153 105.5t187 42.5q192 0 268 -144q170 144 346 144q76 -1 137 -25.5t98 -65t61 -92t26 -106.5q1 -13 1 -26q0 -42 -6 -83l-98 -614h-282l98 618q2 15 2 29q0 48 -26 79q-34 40 -101 40q-116 0 -217 -107q0 -9 -4 -45l-99 -614h-282 l98 618q2 15 2 29q0 48 -26 79q-34 40 -101 40q-130 0 -237 -131l-101 -635h-284z" />
<glyph unicode="n" horiz-adv-x="1206" d="M25 0l155 983h250l-20 -127q166 156 360 156q179 0 268 -117q68 -90 68 -213q0 -37 -6 -78l-96 -604h-285l92 580q3 25 3 46q0 140 -148 140q-136 0 -258 -131l-99 -635h-284z" />
<glyph unicode="o" horiz-adv-x="1214" d="M51 516q41 239 215 367q175 129 398 129q219 0 364 -148q111 -113 111 -290q0 -51 -9 -107q-37 -237 -215 -365q-177 -131 -393 -131q-229 0 -368 148q-112 114 -112 292q0 50 9 105zM334 487q-4 -28 -5 -53q-1 -80 43 -136q56 -74 173 -73q118 0 200.5 74.5t102.5 196.5 q4 28 4 54q0 78 -42 134q-56 74 -169 74q-121 0 -204 -74t-103 -197z" />
<glyph unicode="p" d="M-47 -451l227 1434h252l-24 -145q134 174 372 174q215 0 330 -160q86 -127 86 -282q0 -47 -8 -97q-35 -209 -180 -354q-151 -148 -367 -148q-213 0 -313 154l-90 -576h-285zM365 365q21 -68 79 -111t140 -43q123 0 210.5 81.5t108.5 207.5q5 29 5 55q0 80 -43 139 q-57 78 -167 78q-89 0 -168.5 -48.5t-128.5 -125.5z" />
<glyph unicode="q" d="M53 510q35 209 183 354q148 148 364 148q118 0 206 -54t132 -139l27 164h249l-227 -1434h-282l88 553q-122 -131 -332 -131q-223 0 -332 160q-84 121 -84 277q0 49 8 102zM336 483q-5 -29 -5 -55q0 -80 43 -138q57 -79 167 -79q90 0 169.5 48.5t125.5 123.5l38 235 q-20 66 -78.5 110t-140.5 44q-123 0 -210.5 -81.5t-108.5 -207.5z" />
<glyph unicode="r" horiz-adv-x="804" d="M25 0l155 983h252l-22 -143q119 164 357 165q34 0 71 -4l-43 -274q-46 10 -89 10q-74 0 -141 -28q-107 -44 -168 -142l-88 -567h-284z" />
<glyph unicode="s" horiz-adv-x="978" d="M8 66l37 235q141 -106 356 -106q170 0 185 77q3 25 -15 45.5t-55.5 38.5t-77 32t-95.5 34t-93 37q-83 36 -128 105q-35 54 -35 122q0 20 3 41q24 151 154 219q132 66 297 66q198 0 364 -84l-37 -234q-146 101 -325 101q-151 0 -160 -80q-3 -26 14.5 -47.5t56 -39 t77 -31.5t95.5 -33t93 -34q83 -34 127 -106q32 -52 32 -117q0 -24 -4 -49q-47 -287 -479 -287q-242 0 -387 95z" />
<glyph unicode="t" horiz-adv-x="849" d="M47 743l39 240h164l47 285l293 69l-55 -354h311l-39 -240h-311l-64 -393q-3 -21 -4 -39q0 -45 22 -68q30 -32 111 -32q104 0 191 37l-37 -234q-98 -43 -256 -43q-163 0 -251 88q-69 69 -69 183q0 32 6 69l68 432h-166z" />
<glyph unicode="u" horiz-adv-x="1204" d="M76 385l94 598h283l-91 -580q-4 -27 -4 -50q0 -136 150 -136q149 0 256 131l100 635h283l-156 -983h-250l21 127q-135 -156 -340 -156q-187 0 -281 119q-71 90 -71 217q0 38 6 78z" />
<glyph unicode="v" horiz-adv-x="1153" d="M80 983h291l145 -682l369 682h317l-573 -983h-299z" />
<glyph unicode="w" horiz-adv-x="1677" d="M84 983h283l88 -651l303 651h270l92 -651l285 651h313l-483 -983h-299l-90 639l-307 -639h-295z" />
<glyph unicode="x" horiz-adv-x="1081" d="M-94 0l465 514l-285 469h305l162 -278l242 278h331l-442 -489l299 -494h-303l-178 303l-262 -303h-334z" />
<glyph unicode="y" horiz-adv-x="1153" d="M-53 -446l39 233q47 -20 104 -20q80 0 140 53.5t128 177.5l17 18l-307 967h297l180 -672l321 672h330l-608 -1108q-102 -189 -216.5 -270.5t-254.5 -81.5q-85 0 -170 31z" />
<glyph unicode="z" horiz-adv-x="987" d="M-31 0l29 184l547 564h-428l37 235h802l-28 -182l-547 -563h487l-39 -238h-860z" />
<glyph unicode="{" horiz-adv-x="727" d="M53 592l41 252q78 -6 120 27t54 118l62 391q29 182 155 253t334 24l-41 -246q-83 13 -124.5 -29t-59.5 -147l-49 -309q-30 -194 -207 -209q73 -5 114 -63t23 -162l-49 -312q-17 -97 13 -131.5t120 -21.5l-39 -256q-211 -46 -317 43q-107 88 -80 258l61 393 q13 75 -18.5 101t-112.5 26z" />
<glyph unicode="|" horiz-adv-x="538" d="M0 -205l295 1864h287l-295 -1864h-287z" />
<glyph unicode="}" horiz-adv-x="727" d="M-53 -223l39 250q85 -18 126.5 19.5t59.5 141.5l51 328q17 96 74 148t139 57q-72 5 -116.5 67.5t-28.5 157.5l49 311q17 98 -11.5 132.5t-121.5 21.5l39 252q209 46 317 -43q107 -88 80 -258l-61 -393q-2 -23 -4 -40.5t4.5 -31t11.5 -22.5t17 -15.5t21.5 -10.5t24.5 -6 t26.5 -2.5t27.5 -0.5l-39 -250q-148 9 -172 -146l-64 -391q-29 -184 -154 -255.5t-335 -20.5z" />
<glyph unicode="~" horiz-adv-x="1234" d="M115 516q4 164 84.5 250t208.5 86q94 0 233 -53q142 -54 182 -54q88 0 88 97h242q-1 -162 -83 -249t-216 -87q-87 0 -227 55q-145 56 -185 53q-39 0 -63.5 -26t-24.5 -72h-239z" />
<glyph unicode="&#xa1;" horiz-adv-x="532" d="M-49 -449l168 943h262l-131 -943h-299zM137 862q12 73 61.5 111.5t120.5 38.5q82 0 125.5 -49.5t30.5 -137.5q-12 -71 -61.5 -109t-120.5 -38q-80 0 -124.5 49.5t-31.5 134.5z" />
<glyph unicode="&#xa2;" horiz-adv-x="1046" d="M55 506q24 157 115 274.5t213 171.5q110 51 244 60l35 217h184l-37 -228q105 -20 180 -71l-39 -236q-74 56 -178 68l-86 -539q100 15 213 68l-41 -256q-101 -43 -211 -58l-35 -223h-184l35 221q-207 21 -326 158q-122 138 -82 373zM340 483q-27 -207 164 -256l82 523 q-212 -56 -246 -267z" />
<glyph unicode="&#xa3;" horiz-adv-x="1234" d="M-14 0l41 250h45q68 0 117 51.5t61 132.5l22 137h-163l34 230h164l23 135q41 251 194 369q152 116 369 116q179 0 330 -80l-37 -235q-109 80 -264 80q-124 0 -205.5 -69.5t-104.5 -203.5l-18 -112h395l-35 -230h-395l-27 -155q-18 -129 -106 -166h682l-41 -250h-1081z " />
<glyph unicode="&#xa4;" horiz-adv-x="1165" d="M63 381l142 127q-48 91 -27 227q18 120 94 211l-98 113l154 139l108 -125q96 47 215 47q123 0 209 -53l156 135l125 -145l-144 -129q45 -96 27 -230q-18 -120 -96 -213l100 -110l-158 -139l-106 122q-89 -45 -213 -45q-119 0 -207 49l-151 -129zM418 698 q-8 -74 31.5 -117.5t119.5 -43.5q90 0 147 54.5t68 143.5q8 74 -31.5 118t-119.5 44q-90 0 -147 -55t-68 -144z" />
<glyph unicode="&#xa5;" horiz-adv-x="1468" d="M182 1393h320l243 -623l447 623h340l-520 -680h219l-31 -197h-330l-18 -106h332l-33 -197h-330l-35 -213h-305l35 213h-332l33 197h330l18 106h-332l31 197h221z" />
<glyph unicode="&#xa6;" horiz-adv-x="563" d="M12 -205l121 762h287l-121 -762h-287zM186 897l121 762h287l-121 -762h-287z" />
<glyph unicode="&#xa7;" horiz-adv-x="1064" d="M49 25l35 219q151 -97 324 -97q183 0 198 82q6 40 -40 68t-173 68q-159 51 -230.5 123t-53.5 198q18 151 186 258q-112 75 -88 234q21 148 149 217q125 67 299 67q186 0 355 -88l-35 -217q-55 37 -141 62.5t-164 25.5q-167 0 -176 -84q-8 -51 81 -88q30 -15 93 -37 q11 -4 28 -10t23 -8q76 -29 119 -50.5t86 -56.5q92 -74 71 -206q-21 -147 -182 -250q101 -88 80 -242q-16 -99 -90 -167.5t-174 -94.5q-103 -23 -213 -23q-199 0 -367 97zM375 717q-6 -42 25 -69.5t104 -53.5q20 -8 114 -33q94 51 103 125q6 45 -22 70.5t-99 52.5 q-33 7 -115 33q-98 -46 -110 -125z" />
<glyph unicode="&#xa8;" horiz-adv-x="708" d="M213 1724q11 56 57.5 96t102.5 40q69 0 110 -50t31 -122q-11 -56 -58 -95t-104 -39q-67 0 -108.5 50.5t-30.5 119.5zM651 1724q11 56 57.5 96t102.5 40q69 0 110 -50t31 -122q-11 -56 -57.5 -95t-103.5 -39q-67 0 -109 50.5t-31 119.5z" />
<glyph unicode="&#xa9;" horiz-adv-x="1732" d="M104 735q37 234 179 404q139 168 323 245q185 78 383 78q147 0 279 -49t233 -141q104 -95 149.5 -245t16.5 -329q-37 -232 -178 -401q-143 -172 -324 -248q-188 -78 -385 -78q-298 0 -508 191q-104 95 -150.5 245t-17.5 328zM203 707q-21 -153 19.5 -278t125 -202.5 t196.5 -119t240 -41.5q280 0 512 176t275 485q17 121 -6.5 226.5t-78.5 181.5t-133 130.5t-171.5 80t-192.5 22.5q-283 0 -512 -174q-230 -175 -274 -487zM487 719q34 204 183 311q150 105 319 105q153 0 266 -76l-22 -170q-88 55 -205 55q-120 0 -205 -59t-104 -176 q-18 -110 40 -165t165 -55q136 0 252 64l-27 -191q-126 -63 -291 -63q-56 0 -112.5 15.5t-109.5 49t-90.5 81.5t-54.5 119t-4 155z" />
<glyph unicode="&#xab;" horiz-adv-x="1144" d="M41 465l8 59l316 365h294l-346 -397l213 -398h-280zM508 465l8 59l315 365h295l-346 -397l213 -398h-280z" />
<glyph unicode="&#xac;" horiz-adv-x="1177" d="M115 741l39 242h958l-80 -496h-244l41 254h-714z" />
<glyph unicode="&#xad;" horiz-adv-x="989" d="M80 379l39 239h762l-39 -239h-762z" />
<glyph unicode="&#xae;" horiz-adv-x="1732" d="M104 735q37 234 179 404q139 168 323 245q185 78 383 78q147 0 279 -49t233 -141q104 -95 149.5 -245t16.5 -329q-37 -232 -178 -401q-143 -172 -324 -248q-188 -78 -385 -78q-298 0 -508 191q-104 95 -150.5 245t-17.5 328zM203 707q-21 -153 19.5 -278t125 -202.5 t196.5 -119t240 -41.5q280 0 512 176t275 485q17 121 -6.5 226.5t-78.5 181.5t-133 130.5t-171.5 80t-192.5 22.5q-283 0 -512 -174q-230 -175 -274 -487zM506 326l127 800h366q47 0 91.5 -10t85.5 -32.5t70 -55.5t41.5 -83t2.5 -111q-27 -175 -207 -230l170 -278h-213 l-153 262h-19h-127l-39 -262h-196zM768 752h160q141 0 159 102q7 51 -23.5 71.5t-92.5 20.5h-172z" />
<glyph unicode="&#xaf;" horiz-adv-x="737" d="M240 1585l36 225h668l-37 -225h-667z" />
<glyph unicode="&#xb0;" horiz-adv-x="851" d="M147 1139q23 147 140 237q115 86 260 86q154 0 248 -98q94 -102 71 -262q-24 -152 -136 -241t-265 -89q-155 0 -248 100q-96 101 -70 267zM352 1106q-6 -63 29 -101t98 -38q73 0 122.5 46.5t55.5 121.5q6 60 -28 96.5t-97 36.5q-74 0 -123.5 -44.5t-56.5 -117.5z" />
<glyph unicode="&#xb1;" horiz-adv-x="1179" d="M18 0l37 242h961l-39 -242h-959zM133 727l39 242h358l56 358h241l-57 -358h360l-38 -242h-359l-57 -358h-240l56 358h-359z" />
<glyph unicode="&#xb4;" horiz-adv-x="491" d="M221 1565l232 303h331l-268 -303h-295z" />
<glyph unicode="&#xb6;" horiz-adv-x="1499" d="M125 1008q31 203 170 314.5t360 111.5h824l-299 -1885h-293l254 1608h-230l-254 -1608h-292l157 996q-217 2 -324.5 126t-72.5 337z" />
<glyph unicode="&#xb7;" horiz-adv-x="536" d="M82 508q12 71 62.5 110t121.5 39q82 0 125.5 -49t30.5 -137q-12 -73 -61 -111t-121 -38q-82 0 -126.5 49t-31.5 137z" />
<glyph unicode="&#xb8;" horiz-adv-x="454" d="M-143 -440l28 176q67 -37 162 -37q126 0 135 57q6 37 -48 51.5t-138 2.5l70 190h198l-45 -100q190 -18 166 -195q-13 -90 -98 -137t-209 -47q-130 0 -221 39z" />
<glyph unicode="&#xbb;" horiz-adv-x="1144" d="M-14 94l346 398l-213 397h280l207 -371l-10 -59l-315 -365h-295zM453 94l346 398l-213 397h280l207 -371l-10 -59l-315 -365h-295z" />
<glyph unicode="&#xbc;" horiz-adv-x="1921" d="M88 557l27 172h182l74 465l-187 -59l29 180l238 78h145l-107 -664h154l-27 -172h-528zM334 -29l1173 1491h97l-1174 -1491h-96zM1042 147l27 166l504 523h201l-84 -521h122l-26 -168h-121l-25 -147h-188l23 147h-433zM1284 315h215l45 269z" />
<glyph unicode="&#xbd;" horiz-adv-x="1843" d="M78 557l26 172h183l73 465l-186 -59l29 180l237 78h146l-107 -664h154l-27 -172h-528zM324 -29l1173 1491h96l-1173 -1491h-96zM1051 0l14 96q21 147 123 230q54 45 90 65q1 0 39.5 22.5t66.5 37.5q104 57 145 89.5t48 69.5q6 34 -21.5 52t-78.5 18q-146 0 -308 -107 l31 197q153 84 297 84q129 0 211 -70t61 -200q-13 -86 -69 -140t-189 -127q-185 -102 -194 -145h389l-27 -172h-628z" />
<glyph unicode="&#xbe;" horiz-adv-x="2027" d="M88 610l29 181q104 -64 245 -64q180 0 195 96q7 46 -21.5 67t-91.5 21h-149l29 170h110q131 0 146 84q6 38 -27 59t-94 21q-145 0 -271 -69l29 182q135 63 268 63q130 0 215 -67q84 -69 66 -183q-18 -120 -152 -167q66 -21 101 -80t22 -146q-37 -229 -360 -229 q-158 0 -289 61zM446 -29l1174 1491h96l-1173 -1491h-97zM1149 147l27 166l503 523h201l-84 -521h123l-27 -168h-120l-25 -147h-188l22 147h-432zM1391 315h215l45 269z" />
<glyph unicode="&#xbf;" horiz-adv-x="1005" d="M-55 -102q10 57 39 112.5t77.5 110.5t85 89.5t95.5 86.5q148 130 161 215h269q-13 -85 -74 -174.5t-139 -155.5q-191 -167 -203 -256q-12 -72 38.5 -103.5t160.5 -31.5q181 0 376 109l-45 -283q-197 -96 -397 -96q-96 0 -180 22t-150.5 65.5t-98 118.5t-15.5 171z M420 862q12 73 61 111.5t121 38.5q82 0 126.5 -49.5t31.5 -137.5q-12 -71 -62.5 -109t-122.5 -38q-82 0 -125 48t-30 136z" />
<glyph unicode="&#xc0;" horiz-adv-x="1513" d="M-88 0l811 1434h334l356 -1434h-309l-64 268h-657l-145 -268h-326zM520 522h463l-115 506q-13 47 -16 123q-22 -67 -51 -123zM645 1868h320l137 -303h-283z" />
<glyph unicode="&#xc1;" horiz-adv-x="1513" d="M-88 0l811 1434h334l356 -1434h-309l-64 268h-657l-145 -268h-326zM520 522h463l-115 506q-13 47 -16 123q-22 -67 -51 -123zM735 1565l232 303h331l-268 -303h-295z" />
<glyph unicode="&#xc2;" horiz-adv-x="1513" d="M-88 0l811 1434h334l356 -1434h-309l-64 268h-657l-145 -268h-326zM520 522h463l-115 506q-13 47 -16 123q-22 -67 -51 -123zM530 1550l306 318h249l205 -318h-260l-88 136l-129 -136h-283z" />
<glyph unicode="&#xc3;" horiz-adv-x="1513" d="M-88 0l811 1434h334l356 -1434h-309l-64 268h-657l-145 -268h-326zM520 522h463l-115 506q-13 47 -16 123q-22 -67 -51 -123zM530 1554q-7 127 56 206t164 79q75 0 168 -43t120 -43q33 0 49 23.5t11 50.5h205q7 -128 -55.5 -206.5t-166.5 -78.5q-73 0 -166 43t-120 43 q-30 0 -47.5 -24.5t-12.5 -49.5h-205z" />
<glyph unicode="&#xc4;" horiz-adv-x="1513" d="M-88 0l811 1434h334l356 -1434h-309l-64 268h-657l-145 -268h-326zM520 522h463l-115 506q-13 47 -16 123q-22 -67 -51 -123zM565 1724q11 56 57.5 96t102.5 40q69 0 110 -50t31 -122q-11 -56 -57.5 -95t-103.5 -39q-67 0 -109 50.5t-31 119.5zM1004 1724q11 56 57 96 t102 40q69 0 110.5 -50t31.5 -122q-11 -56 -58 -95t-104 -39q-67 0 -108.5 50.5t-30.5 119.5z" />
<glyph unicode="&#xc5;" horiz-adv-x="1513" d="M-88 0l811 1434h334l356 -1434h-309l-64 268h-657l-145 -268h-326zM520 522h463l-115 506q-13 47 -16 123q-22 -67 -51 -123zM692 1772q18 101 97.5 162t181.5 61q104 0 176 -72q71 -74 53 -188q-18 -104 -96 -167t-182 -63q-103 0 -174 74q-74 74 -56 193zM860 1755 q-8 -56 32 -79t87 -2t55 73q8 55 -32 78t-87 2.5t-55 -72.5z" />
<glyph unicode="&#xc6;" horiz-adv-x="2088" d="M-121 0l1165 1434h1076l-43 -271h-654l-49 -305h592l-41 -268h-594l-51 -320h668l-43 -270h-973l43 276h-545l-221 -276h-330zM629 522h387l96 600z" />
<glyph unicode="&#xc7;" horiz-adv-x="1331" d="M92 497.5q-19 112.5 4 247.5q29 172 118.5 314t217.5 231q253 172 535 172q230 0 401 -104l-43 -275q-122 107 -321 107q-76 0 -152 -16.5t-150 -53.5t-134 -91t-103.5 -134.5t-58.5 -177.5q-35 -226 96 -348q129 -123 325 -123q220 0 394 116l-47 -305 q-162 -78 -365 -84l-31 -73q94 -11 136.5 -60.5t29.5 -134.5q-13 -90 -98 -137t-207 -47q-128 0 -223 39l28 176q67 -37 162 -37q126 0 135 57q6 37 -48 51.5t-136 2.5l64 174q-97 18 -183 58t-159.5 104t-120.5 151.5t-66 200z" />
<glyph unicode="&#xc8;" horiz-adv-x="1265" d="M59 0l228 1434h1009l-43 -271h-704l-47 -305h641l-41 -268h-643l-51 -320h716l-43 -270h-1022zM541 1868h319l137 -303h-282z" />
<glyph unicode="&#xc9;" horiz-adv-x="1265" d="M59 0l228 1434h1009l-43 -271h-704l-47 -305h641l-41 -268h-643l-51 -320h716l-43 -270h-1022zM631 1565l231 303h332l-268 -303h-295z" />
<glyph unicode="&#xca;" horiz-adv-x="1265" d="M59 0l228 1434h1009l-43 -271h-704l-47 -305h641l-41 -268h-643l-51 -320h716l-43 -270h-1022zM426 1550l305 318h250l205 -318h-260l-88 136l-129 -136h-283z" />
<glyph unicode="&#xcb;" horiz-adv-x="1265" d="M59 0l228 1434h1009l-43 -271h-704l-47 -305h641l-41 -268h-643l-51 -320h716l-43 -270h-1022zM461 1724q11 56 57.5 96t102.5 40q69 0 110 -50t31 -122q-11 -56 -58 -95t-104 -39q-67 0 -108.5 50.5t-30.5 119.5zM899 1724q11 56 57.5 96t102.5 40q69 0 110 -50t31 -122 q-11 -56 -58 -95t-104 -39q-67 0 -108.5 50.5t-30.5 119.5z" />
<glyph unicode="&#xcc;" horiz-adv-x="616" d="M59 0l228 1434h307l-227 -1434h-308zM188 1868h320l137 -303h-283z" />
<glyph unicode="&#xcd;" horiz-adv-x="616" d="M59 0l228 1434h307l-227 -1434h-308zM279 1565l231 303h332l-269 -303h-294z" />
<glyph unicode="&#xce;" horiz-adv-x="616" d="M59 0l228 1434h307l-227 -1434h-308zM74 1550l305 318h250l205 -318h-261l-88 136l-129 -136h-282z" />
<glyph unicode="&#xcf;" horiz-adv-x="616" d="M59 0l228 1434h307l-227 -1434h-308zM109 1724q11 56 57 96t102 40q69 0 110.5 -50t31.5 -122q-11 -56 -58 -95t-104 -39q-67 0 -108.5 50.5t-30.5 119.5zM547 1724q11 56 57.5 96t102.5 40q69 0 110 -50t31 -122q-11 -56 -58 -95t-104 -39q-67 0 -108.5 50.5 t-30.5 119.5z" />
<glyph unicode="&#xd0;" horiz-adv-x="1540" d="M27 602l36 227h150l96 605h529q356 0 526 -203q169 -205 117 -533q-52 -329 -267.5 -513.5t-576.5 -184.5h-555l94 602h-149zM432 270h223q215 0 349.5 119.5t169.5 345.5q35 213 -57 320.5t-306 107.5h-238l-53 -334h322l-37 -227h-320z" />
<glyph unicode="&#xd1;" horiz-adv-x="1566" d="M59 0l228 1434h256l555 -936q5 94 22 200l117 736h307l-227 -1434h-256l-555 936q-3 -63 -19 -191l-120 -745h-308zM537 1554q-7 127 55.5 206t163.5 79q75 0 168 -43t120 -43q33 0 49 23.5t11 50.5h205q7 -128 -55.5 -206.5t-166.5 -78.5q-72 0 -165 43t-121 43 q-30 0 -47.5 -24.5t-12.5 -49.5h-204z" />
<glyph unicode="&#xd2;" horiz-adv-x="1667" d="M94 735q49 304 281 516q230 211 583 211q169 1 307 -63t222 -170t118.5 -245.5t6.5 -285.5q-47 -294 -264 -505q-108 -105 -263 -163.5t-335 -58.5q-174 -1 -313.5 62.5t-222.5 170t-115.5 245t-4.5 286.5zM401 709q-27 -190 66 -320q92 -133 299 -133q220 0 362 133 q141 132 175 336q27 190 -64 322q-94 131 -301 131q-220 0 -360 -131q-142 -130 -177 -338zM709 1868h319l137 -303h-282z" />
<glyph unicode="&#xd3;" horiz-adv-x="1667" d="M94 735q49 304 281 516q230 211 583 211q169 1 307 -63t222 -170t118.5 -245.5t6.5 -285.5q-47 -294 -264 -505q-108 -105 -263 -163.5t-335 -58.5q-174 -1 -313.5 62.5t-222.5 170t-115.5 245t-4.5 286.5zM401 709q-27 -190 66 -320q92 -133 299 -133q220 0 362 133 q141 132 175 336q27 190 -64 322q-94 131 -301 131q-220 0 -360 -131q-142 -130 -177 -338zM799 1565l231 303h332l-268 -303h-295z" />
<glyph unicode="&#xd4;" horiz-adv-x="1667" d="M94 735q49 304 281 516q230 211 583 211q169 1 307 -63t222 -170t118.5 -245.5t6.5 -285.5q-47 -294 -264 -505q-108 -105 -263 -163.5t-335 -58.5q-174 -1 -313.5 62.5t-222.5 170t-115.5 245t-4.5 286.5zM401 709q-27 -190 66 -320q92 -133 299 -133q220 0 362 133 q141 132 175 336q27 190 -64 322q-94 131 -301 131q-220 0 -360 -131q-142 -130 -177 -338zM594 1550l305 318h250l205 -318h-260l-88 136l-129 -136h-283z" />
<glyph unicode="&#xd5;" horiz-adv-x="1667" d="M94 735q49 304 281 516q230 211 583 211q169 1 307 -63t222 -170t118.5 -245.5t6.5 -285.5q-47 -294 -264 -505q-108 -105 -263 -163.5t-335 -58.5q-174 -1 -313.5 62.5t-222.5 170t-115.5 245t-4.5 286.5zM401 709q-27 -190 66 -320q92 -133 299 -133q220 0 362 133 q141 132 175 336q27 190 -64 322q-94 131 -301 131q-220 0 -360 -131q-142 -130 -177 -338zM594 1554q-7 127 55.5 206t163.5 79q75 0 168 -43t121 -43q33 0 48.5 23t10.5 51h205q7 -128 -55 -206.5t-166 -78.5q-73 0 -166 43t-121 43q-30 0 -47 -24.5t-12 -49.5h-205z" />
<glyph unicode="&#xd6;" horiz-adv-x="1667" d="M94 735q49 304 281 516q230 211 583 211q169 1 307 -63t222 -170t118.5 -245.5t6.5 -285.5q-47 -294 -264 -505q-108 -105 -263 -163.5t-335 -58.5q-174 -1 -313.5 62.5t-222.5 170t-115.5 245t-4.5 286.5zM401 709q-27 -190 66 -320q92 -133 299 -133q220 0 362 133 q141 132 175 336q27 190 -64 322q-94 131 -301 131q-220 0 -360 -131q-142 -130 -177 -338zM629 1724q11 56 57 96t102 40q69 0 110.5 -50t31.5 -122q-11 -56 -58 -95t-104 -39q-67 0 -108.5 50.5t-30.5 119.5zM1067 1724q11 56 57.5 96t102.5 40q69 0 110 -50t31 -122 q-11 -56 -58 -95t-104 -39q-67 0 -108.5 50.5t-30.5 119.5z" />
<glyph unicode="&#xd7;" horiz-adv-x="1032" d="M80 461l297 258l-217 256l180 158l215 -256l299 256l137 -158l-297 -256l217 -258l-180 -158l-215 256l-299 -256z" />
<glyph unicode="&#xd8;" horiz-adv-x="1667" d="M33 -98l223 254q-104 108 -146 259.5t-16 319.5q49 304 281 516q230 211 583 211q206 0 365 -90l141 160h209l-225 -258q106 -106 149.5 -258.5t14.5 -317.5q-47 -294 -264 -505q-108 -105 -263 -163.5t-335 -58.5q-211 0 -367 90l-139 -159h-211zM401 709 q-27 -186 62 -316l657 748q-73 37 -182 37q-220 0 -360 -131q-142 -130 -177 -338zM586 293q73 -37 180 -37q220 0 362 133q141 132 175 336q34 184 -62 315z" />
<glyph unicode="&#xd9;" horiz-adv-x="1538" d="M131 547l139 887h308l-142 -887q-24 -157 43 -228t221 -71q333 0 385 315l138 871h307l-144 -904q-20 -124 -68 -221t-113.5 -159.5t-151 -103.5t-175.5 -58t-192 -17q-248 0 -418 129q-88 66 -124.5 181.5t-12.5 265.5zM631 1868h319l137 -303h-282z" />
<glyph unicode="&#xda;" horiz-adv-x="1538" d="M131 547l139 887h308l-142 -887q-24 -157 43 -228t221 -71q333 0 385 315l138 871h307l-144 -904q-20 -124 -68 -221t-113.5 -159.5t-151 -103.5t-175.5 -58t-192 -17q-248 0 -418 129q-88 66 -124.5 181.5t-12.5 265.5zM721 1565l231 303h332l-268 -303h-295z" />
<glyph unicode="&#xdb;" horiz-adv-x="1538" d="M131 547l139 887h308l-142 -887q-24 -157 43 -228t221 -71q333 0 385 315l138 871h307l-144 -904q-20 -124 -68 -221t-113.5 -159.5t-151 -103.5t-175.5 -58t-192 -17q-248 0 -418 129q-88 66 -124.5 181.5t-12.5 265.5zM516 1550l305 318h250l205 -318h-260l-88 136 l-129 -136h-283z" />
<glyph unicode="&#xdc;" horiz-adv-x="1538" d="M131 547l139 887h308l-142 -887q-24 -157 43 -228t221 -71q333 0 385 315l138 871h307l-144 -904q-20 -124 -68 -221t-113.5 -159.5t-151 -103.5t-175.5 -58t-192 -17q-248 0 -418 129q-88 66 -124.5 181.5t-12.5 265.5zM551 1724q11 56 57.5 96t102.5 40q69 0 110 -50 t31 -122q-11 -56 -58 -95t-104 -39q-67 0 -108.5 50.5t-30.5 119.5zM989 1724q11 56 57.5 96t102.5 40q69 0 110 -50t31 -122q-11 -56 -58 -95t-104 -39q-67 0 -108.5 50.5t-30.5 119.5z" />
<glyph unicode="&#xdd;" horiz-adv-x="1437" d="M139 1434h332l266 -646l469 646h359l-707 -926l-82 -508h-305l82 508zM678 1565l231 303h332l-268 -303h-295z" />
<glyph unicode="&#xde;" horiz-adv-x="1359" d="M59 0l228 1434h307l-37 -236h229q97 0 181.5 -15t160.5 -52t126 -93t71.5 -143t3.5 -197q-40 -246 -210 -354t-474 -108h-242l-36 -236h-308zM446 506h242q148 0 231 51.5t103 171.5q16 105 -49 152t-195 47h-264z" />
<glyph unicode="&#xdf;" horiz-adv-x="1204" d="M25 0l159 1012q70 447 510 450q208 3 310 -102q99 -102 81 -230q-6 -49 -41 -106t-73 -99t-70.5 -87t-34.5 -72q-5 -31 16.5 -65t79.5 -94t76 -81q42 -52 62.5 -122t9.5 -142q-21 -143 -145 -217t-281 -74q-137 0 -254 54l33 213q74 -41 168 -41q79 0 134 34.5t62 90.5 q7 37 -15.5 80t-58.5 83.5t-72 83.5t-58 93.5t-15 99.5q11 65 103 174q88 104 100 172q12 62 -22 96.5t-103 34.5q-85 0 -141 -48t-68 -130l-168 -1061h-284z" />
<glyph unicode="&#xe0;" d="M53 510q35 209 183 354q148 148 364 148q236 0 338 -193l27 164h249l-155 -983h-250l22 145q-137 -174 -370 -174q-223 0 -332 160q-111 159 -76 379zM336 485q-19 -117 37.5 -195.5t167.5 -78.5q91 0 170 48t125 124l38 229q-19 71 -77.5 115.5t-141.5 44.5 q-123 0 -210.5 -80.5t-108.5 -206.5zM430 1432h320l137 -304h-283z" />
<glyph unicode="&#xe1;" d="M53 510q35 209 183 354q148 148 364 148q236 0 338 -193l27 164h249l-155 -983h-250l22 145q-137 -174 -370 -174q-223 0 -332 160q-111 159 -76 379zM336 485q-19 -117 37.5 -195.5t167.5 -78.5q91 0 170 48t125 124l38 229q-19 71 -77.5 115.5t-141.5 44.5 q-123 0 -210.5 -80.5t-108.5 -206.5zM520 1128l232 304h331l-268 -304h-295z" />
<glyph unicode="&#xe2;" d="M53 510q35 209 183 354q148 148 364 148q236 0 338 -193l27 164h249l-155 -983h-250l22 145q-137 -174 -370 -174q-223 0 -332 160q-111 159 -76 379zM315 1114l306 318h249l205 -318h-260l-88 135l-129 -135h-283zM336 485q-19 -117 37.5 -195.5t167.5 -78.5 q91 0 170 48t125 124l38 229q-19 71 -77.5 115.5t-141.5 44.5q-123 0 -210.5 -80.5t-108.5 -206.5z" />
<glyph unicode="&#xe3;" d="M53 510q35 209 183 354q148 148 364 148q236 0 338 -193l27 164h249l-155 -983h-250l22 145q-137 -174 -370 -174q-223 0 -332 160q-111 159 -76 379zM315 1118q-7 127 56 206t164 79q74 0 167 -43t121 -43q33 0 49 23.5t11 50.5h204q7 -128 -55 -206.5t-166 -78.5 q-73 0 -166 43t-120 43q-30 0 -47.5 -24.5t-12.5 -49.5h-205zM336 485q-19 -117 37.5 -195.5t167.5 -78.5q91 0 170 48t125 124l38 229q-19 71 -77.5 115.5t-141.5 44.5q-123 0 -210.5 -80.5t-108.5 -206.5z" />
<glyph unicode="&#xe4;" d="M53 510q35 209 183 354q148 148 364 148q236 0 338 -193l27 164h249l-155 -983h-250l22 145q-137 -174 -370 -174q-223 0 -332 160q-111 159 -76 379zM336 485q-19 -117 37.5 -195.5t167.5 -78.5q91 0 170 48t125 124l38 229q-19 71 -77.5 115.5t-141.5 44.5 q-123 0 -210.5 -80.5t-108.5 -206.5zM350 1288q11 56 57 95.5t103 39.5q69 0 110 -50t31 -122q-10 -55 -57.5 -94t-104.5 -39q-67 0 -108.5 50.5t-30.5 119.5zM788 1288q11 56 57 95.5t103 39.5q69 0 110.5 -50t31.5 -122q-10 -55 -57.5 -94t-104.5 -39q-67 0 -109 50.5 t-31 119.5z" />
<glyph unicode="&#xe5;" d="M53 510q35 209 183 354q148 148 364 148q236 0 338 -193l27 164h249l-155 -983h-250l22 145q-137 -174 -370 -174q-223 0 -332 160q-111 159 -76 379zM336 485q-19 -117 37.5 -195.5t167.5 -78.5q91 0 170 48t125 124l38 229q-19 71 -77.5 115.5t-141.5 44.5 q-123 0 -210.5 -80.5t-108.5 -206.5zM477 1335q18 101 97.5 162.5t181.5 61.5q104 0 176 -72q71 -74 53 -189q-18 -104 -96 -166.5t-182 -62.5t-175 74q-73 73 -55 192zM645 1319q-8 -56 32 -79t87 -2t55 73q8 55 -32 78t-87 2.5t-55 -72.5z" />
<glyph unicode="&#xe6;" horiz-adv-x="1955" d="M53 512q35 209 180 354q149 146 367 146q119 0 206 -52.5t132 -138.5l27 162h237l-24 -156q123 185 352 185q103 0 180.5 -36t119.5 -96.5t59.5 -139.5t8 -166.5t-42.5 -176.5h-706q7 -99 92.5 -149.5t222.5 -50.5q176 0 305 69l-34 -231q-146 -64 -301 -64 q-263 0 -363 189l-24 -160h-238l22 147q-135 -176 -370 -176q-225 0 -332 162q-111 159 -76 379zM334 485q-19 -117 37.5 -195.5t167.5 -78.5q91 0 170 48t125 124l38 229q-19 71 -77.5 115.5t-141.5 44.5q-123 0 -210.5 -80.5t-108.5 -206.5zM1190 582h440q21 75 -18 143 q-40 70 -154 70q-105 0 -176.5 -57.5t-91.5 -155.5z" />
<glyph unicode="&#xe7;" horiz-adv-x="1009" d="M49 506q16 107 63 194t109.5 144.5t141 96.5t156 56t155.5 17q177 0 311 -84l-39 -236q-97 72 -241 72q-93 0 -170.5 -30.5t-131.5 -95.5t-67 -157q-20 -127 52.5 -196.5t205.5 -69.5q148 0 299 74l-39 -256q-127 -53 -258 -62l-33 -73q190 -18 166 -195 q-13 -90 -99 -137t-208 -47q-130 0 -221 39l28 176q67 -37 162 -37q124 0 133 57q7 37 -46.5 51.5t-137.5 2.5l63 174q-192 37 -290 172.5t-64 349.5z" />
<glyph unicode="&#xe8;" horiz-adv-x="1112" d="M51 512q15 102 56.5 187t99 141.5t128 96t141.5 57.5t142 18q96 0 173.5 -25.5t128.5 -70t83.5 -104t42.5 -128t1.5 -142t-35.5 -145.5h-695q6 -98 90 -149t214 -51q187 0 321 67l-35 -231q-145 -62 -356 -62q-113 -3 -212 34t-170 105.5t-104 173t-14 228.5zM346 582 h440q21 75 -18 143q-40 70 -154 70q-98 0 -173 -59.5t-95 -153.5zM365 1417h319l137 -303h-282z" />
<glyph unicode="&#xe9;" horiz-adv-x="1112" d="M51 512q15 102 56.5 187t99 141.5t128 96t141.5 57.5t142 18q96 0 173.5 -25.5t128.5 -70t83.5 -104t42.5 -128t1.5 -142t-35.5 -145.5h-695q6 -98 90 -149t214 -51q187 0 321 67l-35 -231q-145 -62 -356 -62q-113 -3 -212 34t-170 105.5t-104 173t-14 228.5zM346 582 h440q21 75 -18 143q-40 70 -154 70q-98 0 -173 -59.5t-95 -153.5zM455 1114l231 303h332l-268 -303h-295z" />
<glyph unicode="&#xea;" horiz-adv-x="1112" d="M51 512q15 102 56.5 187t99 141.5t128 96t141.5 57.5t142 18q96 0 173.5 -25.5t128.5 -70t83.5 -104t42.5 -128t1.5 -142t-35.5 -145.5h-695q6 -98 90 -149t214 -51q187 0 321 67l-35 -231q-145 -62 -356 -62q-113 -3 -212 34t-170 105.5t-104 173t-14 228.5zM250 1100 l305 317h250l205 -317h-260l-88 135l-130 -135h-282zM346 582h440q21 75 -18 143q-40 70 -154 70q-98 0 -173 -59.5t-95 -153.5z" />
<glyph unicode="&#xeb;" horiz-adv-x="1112" d="M51 512q15 102 56.5 187t99 141.5t128 96t141.5 57.5t142 18q96 0 173.5 -25.5t128.5 -70t83.5 -104t42.5 -128t1.5 -142t-35.5 -145.5h-695q6 -98 90 -149t214 -51q187 0 321 67l-35 -231q-145 -62 -356 -62q-113 -3 -212 34t-170 105.5t-104 173t-14 228.5zM285 1274 q11 56 56.5 95.5t102.5 39.5q69 0 110.5 -50t31.5 -122q-10 -55 -57.5 -94t-104.5 -39q-67 0 -108.5 50.5t-30.5 119.5zM346 582h440q21 75 -18 143q-40 70 -154 70q-98 0 -173 -59.5t-95 -153.5zM723 1274q11 56 57 95.5t103 39.5q69 0 110 -50t31 -122q-10 -55 -57.5 -94 t-104.5 -39q-67 0 -108.5 50.5t-30.5 119.5z" />
<glyph unicode="&#xec;" horiz-adv-x="530" d="M29 0l155 983h285l-156 -983h-284zM104 1417h320l76 -303h-279z" />
<glyph unicode="&#xed;" horiz-adv-x="530" d="M29 0l155 983h285l-156 -983h-284zM168 1114l231 303h332l-268 -303h-295z" />
<glyph unicode="&#xee;" horiz-adv-x="530" d="M4 1100l264 317h250l164 -317h-260l-53 135l-97 -135h-268zM29 0l155 983h285l-156 -983h-284z" />
<glyph unicode="&#xef;" horiz-adv-x="530" d="M29 0l155 983h285l-156 -983h-284zM37 1272q11 54 53 90.5t96 36.5q66 0 104 -47t27 -113q-11 -54 -53.5 -89.5t-97.5 -35.5q-63 0 -101 46t-28 112zM420 1272q11 54 53 90.5t96 36.5q66 0 104 -47t27 -113q-11 -54 -53.5 -89.5t-97.5 -35.5q-63 0 -101 46t-28 112z" />
<glyph unicode="&#xf0;" horiz-adv-x="1191" d="M45 463q26 196 166 317q138 117 317 117q114 0 204 -46t134 -130q4 40 4 86q-12 228 -180 338l-194 -170l-115 131l137 113q-76 20 -205 20l21 215q197 0 368 -68l183 158l112 -131l-133 -117q153 -108 219.5 -301.5t26.5 -445.5q-48 -289 -206.5 -433.5t-397.5 -144.5 q-224 0 -356 135q-135 132 -105 357zM330 440q-15 -106 39 -166q52 -61 159 -61q105 0 174.5 59t92.5 164q13 109 -41 172.5t-160 63.5q-105 0 -176 -62q-73 -64 -88 -170z" />
<glyph unicode="&#xf1;" horiz-adv-x="1206" d="M25 0l155 983h250l-20 -127q166 156 360 156q179 0 268 -117t62 -291l-96 -604h-285l92 580q26 186 -145 186q-136 0 -258 -131l-99 -635h-284zM311 1104q-7 127 55.5 206t163.5 79q75 0 168 -43t121 -43q33 0 49 23t11 50h204q7 -128 -55 -206t-166 -78q-73 0 -166 43 t-121 43q-30 0 -47 -24.5t-12 -49.5h-205z" />
<glyph unicode="&#xf2;" horiz-adv-x="1214" d="M51 516q41 239 215 367q175 129 398 129q219 0 364 -148q143 -146 102 -397q-37 -237 -215 -365q-177 -131 -393 -131q-229 0 -368 148q-143 146 -103 397zM334 487q-18 -115 38.5 -188.5t172.5 -73.5q118 0 200.5 74.5t102.5 196.5q18 115 -37.5 188.5t-169.5 73.5 q-121 0 -204 -74t-103 -197zM406 1405h319l137 -303h-282z" />
<glyph unicode="&#xf3;" horiz-adv-x="1214" d="M51 516q41 239 215 367q175 129 398 129q219 0 364 -148q143 -146 102 -397q-37 -237 -215 -365q-177 -131 -393 -131q-229 0 -368 148q-143 146 -103 397zM334 487q-18 -115 38.5 -188.5t172.5 -73.5q118 0 200.5 74.5t102.5 196.5q18 115 -37.5 188.5t-169.5 73.5 q-121 0 -204 -74t-103 -197zM496 1102l231 303h332l-268 -303h-295z" />
<glyph unicode="&#xf4;" horiz-adv-x="1214" d="M51 516q41 239 215 367q175 129 398 129q219 0 364 -148q143 -146 102 -397q-37 -237 -215 -365q-177 -131 -393 -131q-229 0 -368 148q-143 146 -103 397zM291 1087l305 318h250l205 -318h-260l-89 136l-129 -136h-282zM334 487q-18 -115 38.5 -188.5t172.5 -73.5 q118 0 200.5 74.5t102.5 196.5q18 115 -37.5 188.5t-169.5 73.5q-121 0 -204 -74t-103 -197z" />
<glyph unicode="&#xf5;" horiz-adv-x="1214" d="M51 516q41 239 215 367q175 129 398 129q219 0 364 -148q143 -146 102 -397q-37 -237 -215 -365q-177 -131 -393 -131q-229 0 -368 148q-143 146 -103 397zM291 1092q-7 127 55.5 205.5t163.5 78.5q75 0 168 -43t121 -43q33 0 48.5 23t10.5 51h205q7 -128 -55 -206.5 t-166 -78.5q-73 0 -166 43t-121 43q-30 0 -47 -24t-12 -49h-205zM334 487q-18 -115 38.5 -188.5t172.5 -73.5q118 0 200.5 74.5t102.5 196.5q18 115 -37.5 188.5t-169.5 73.5q-121 0 -204 -74t-103 -197z" />
<glyph unicode="&#xf6;" horiz-adv-x="1214" d="M51 516q41 239 215 367q175 129 398 129q219 0 364 -148q143 -146 102 -397q-37 -237 -215 -365q-177 -131 -393 -131q-229 0 -368 148q-143 146 -103 397zM326 1262q11 56 56.5 95.5t102.5 39.5q69 0 110.5 -50t31.5 -122q-10 -55 -57.5 -94t-104.5 -39 q-67 0 -108.5 50.5t-30.5 119.5zM334 487q-18 -115 38.5 -188.5t172.5 -73.5q118 0 200.5 74.5t102.5 196.5q18 115 -37.5 188.5t-169.5 73.5q-121 0 -204 -74t-103 -197zM764 1262q11 56 57 95.5t103 39.5q69 0 110 -50t31 -122q-10 -55 -57.5 -94t-104.5 -39 q-67 0 -108.5 50.5t-30.5 119.5z" />
<glyph unicode="&#xf7;" horiz-adv-x="1138" d="M78 596l39 242h983l-39 -242h-983zM346 279q12 71 62 109t120 38q83 0 127 -49t31 -135q-12 -73 -61.5 -112.5t-120.5 -39.5q-82 0 -126.5 50.5t-31.5 138.5zM492 1194q12 71 62 109t120 38q83 0 126.5 -49t30.5 -135q-12 -73 -62 -112t-122 -39q-81 0 -124.5 50 t-30.5 138z" />
<glyph unicode="&#xf8;" horiz-adv-x="1214" d="M33 -127l164 205q-190 152 -146 438q41 239 215 367q175 129 398 129q124 0 235 -54l123 154h127l-164 -207q192 -152 145 -438q-37 -237 -215 -365q-177 -131 -393 -131q-133 0 -241 54l-119 -152h-129zM336 487q-18 -115 37 -188l356 444q-43 15 -88 15 q-120 0 -202.5 -74t-102.5 -197zM453 242q49 -17 92 -17q118 0 200.5 74.5t102.5 196.5q15 118 -39 190z" />
<glyph unicode="&#xf9;" horiz-adv-x="1204" d="M76 385l94 598h283l-91 -580q-30 -186 146 -186q149 0 256 131l100 635h283l-156 -983h-250l21 127q-135 -156 -340 -156q-187 0 -281 119q-92 117 -65 295zM406 1417h319l137 -303h-282z" />
<glyph unicode="&#xfa;" horiz-adv-x="1204" d="M76 385l94 598h283l-91 -580q-30 -186 146 -186q149 0 256 131l100 635h283l-156 -983h-250l21 127q-135 -156 -340 -156q-187 0 -281 119q-92 117 -65 295zM496 1114l231 303h332l-268 -303h-295z" />
<glyph unicode="&#xfb;" horiz-adv-x="1204" d="M76 385l94 598h283l-91 -580q-30 -186 146 -186q149 0 256 131l100 635h283l-156 -983h-250l21 127q-135 -156 -340 -156q-187 0 -281 119q-92 117 -65 295zM291 1100l305 317h250l205 -317h-260l-89 135l-129 -135h-282z" />
<glyph unicode="&#xfc;" horiz-adv-x="1204" d="M76 385l94 598h283l-91 -580q-30 -186 146 -186q149 0 256 131l100 635h283l-156 -983h-250l21 127q-135 -156 -340 -156q-187 0 -281 119q-92 117 -65 295zM326 1274q11 56 56.5 95.5t102.5 39.5q69 0 110.5 -50t31.5 -122q-10 -55 -57.5 -94t-104.5 -39 q-67 0 -108.5 50.5t-30.5 119.5zM764 1274q11 56 57 95.5t103 39.5q69 0 110 -50t31 -122q-10 -55 -57.5 -94t-104.5 -39q-67 0 -108.5 50.5t-30.5 119.5z" />
<glyph unicode="&#xfd;" horiz-adv-x="1153" d="M-53 -446l39 233q47 -20 104 -20q80 0 140 53.5t128 177.5l17 18l-307 967h297l180 -672l321 672h330l-608 -1108q-102 -189 -216.5 -270.5t-254.5 -81.5q-85 0 -170 31zM451 1114l231 303h332l-269 -303h-294z" />
<glyph unicode="&#xfe;" d="M-47 -451l299 1885h285l-91 -555q139 133 334 133q215 0 330 -160q112 -165 78 -379q-35 -209 -180 -354q-151 -148 -367 -148q-213 0 -313 154l-90 -576h-285zM365 365q21 -68 79 -111t140 -43q123 0 210.5 81.5t108.5 207.5q19 115 -38 193.5t-167 78.5 q-89 0 -168.5 -48.5t-128.5 -125.5z" />
<glyph unicode="&#xff;" horiz-adv-x="1153" d="M-53 -446l39 233q47 -20 104 -20q80 0 140 53.5t128 177.5l17 18l-307 967h297l180 -672l321 672h330l-608 -1108q-102 -189 -216.5 -270.5t-254.5 -81.5q-85 0 -170 31zM281 1274q11 56 56.5 95.5t102.5 39.5q69 0 110.5 -50t31.5 -122q-10 -55 -57.5 -94t-104.5 -39 q-67 0 -108.5 50.5t-30.5 119.5zM719 1274q11 56 57 95.5t103 39.5q69 0 110 -50t31 -122q-10 -55 -57.5 -94t-104.5 -39q-67 0 -108.5 50.5t-30.5 119.5z" />
<glyph unicode="&#x152;" horiz-adv-x="2136" d="M96 754q50 299 279 503q227 205 573 205q138 0 246 -30l973 2l-43 -271h-656l-49 -305h596l-43 -268h-594l-51 -320h668l-43 -270l-961 -2q-105 -27 -229 -27q-177 -1 -319 63.5t-226.5 173t-117.5 251t-3 295.5zM406 725q-35 -210 73 -342q108 -135 314 -135 q121 0 231 45l135 856q-75 37 -215 37q-203 0 -354 -127q-150 -129 -184 -334z" />
<glyph unicode="&#x153;" horiz-adv-x="1914" d="M51 518q24 155 117 272.5t221 172.5q119 51 260 51q263 0 371 -191q151 189 407 189q115 0 202.5 -36t136.5 -97t72 -140.5t16 -166.5t-39 -175h-695q6 -99 89.5 -149.5t213.5 -50.5q185 0 322 67l-37 -231q-145 -62 -356 -62q-137 0 -244.5 51t-163.5 146 q-151 -195 -436 -195q-219 0 -358 148q-139 145 -99 397zM334 487q-18 -115 36 -188.5t167 -73.5q124 0 207.5 73.5t103.5 197.5q18 115 -36.5 188.5t-164.5 73.5q-124 0 -208.5 -73.5t-104.5 -197.5zM1147 582h440q21 75 -18 143q-40 70 -154 70q-98 0 -173 -59.5 t-95 -153.5z" />
<glyph unicode="&#x178;" horiz-adv-x="1437" d="M139 1434h332l266 -646l469 646h359l-707 -926l-82 -508h-305l82 508zM508 1724q11 56 57.5 96t102.5 40q69 0 110 -50t31 -122q-11 -56 -58 -95t-104 -39q-67 0 -108.5 50.5t-30.5 119.5zM946 1724q11 56 57.5 96t102.5 40q69 0 110 -50t31 -122q-11 -56 -58 -95 t-104 -39q-67 0 -108.5 50.5t-30.5 119.5z" />
<glyph unicode="&#x2c6;" horiz-adv-x="753" d="M197 1550l305 318h250l204 -318h-260l-88 136l-129 -136h-282z" />
<glyph unicode="&#x2dc;" horiz-adv-x="729" d="M201 1554q-7 127 55.5 206t163.5 79q75 0 168 -43t121 -43q33 0 48.5 23t10.5 51h205q7 -128 -55 -206.5t-166 -78.5q-73 0 -166 43t-121 43q-30 0 -47 -24.5t-12 -49.5h-205z" />
<glyph unicode="&#x2000;" horiz-adv-x="997" />
<glyph unicode="&#x2001;" horiz-adv-x="1995" />
<glyph unicode="&#x2002;" horiz-adv-x="997" />
<glyph unicode="&#x2003;" horiz-adv-x="1995" />
<glyph unicode="&#x2004;" horiz-adv-x="665" />
<glyph unicode="&#x2005;" horiz-adv-x="498" />
<glyph unicode="&#x2006;" horiz-adv-x="332" />
<glyph unicode="&#x2007;" horiz-adv-x="332" />
<glyph unicode="&#x2008;" horiz-adv-x="249" />
<glyph unicode="&#x2009;" horiz-adv-x="399" />
<glyph unicode="&#x200a;" horiz-adv-x="110" />
<glyph unicode="&#x2010;" horiz-adv-x="989" d="M80 379l39 239h762l-39 -239h-762z" />
<glyph unicode="&#x2011;" horiz-adv-x="989" d="M80 379l39 239h762l-39 -239h-762z" />
<glyph unicode="&#x2012;" horiz-adv-x="989" d="M80 379l39 239h762l-39 -239h-762z" />
<glyph unicode="&#x2013;" horiz-adv-x="1185" d="M80 379l39 239h958l-39 -239h-958z" />
<glyph unicode="&#x2014;" horiz-adv-x="1587" d="M80 379l39 239h1360l-39 -239h-1360z" />
<glyph unicode="&#x2018;" horiz-adv-x="548" d="M104 883l287 551h234l-217 -551h-304z" />
<glyph unicode="&#x2019;" horiz-adv-x="540" d="M119 883l217 551h303l-287 -551h-233z" />
<glyph unicode="&#x201a;" horiz-adv-x="542" d="M-125 -297l217 551h305l-288 -551h-234z" />
<glyph unicode="&#x201c;" horiz-adv-x="942" d="M104 883l287 551h234l-217 -551h-304zM498 883l286 551h234l-217 -551h-303z" />
<glyph unicode="&#x201d;" horiz-adv-x="933" d="M119 883l217 551h303l-287 -551h-233zM512 883l217 551h303l-287 -551h-233z" />
<glyph unicode="&#x201e;" horiz-adv-x="935" d="M-125 -297l217 551h305l-288 -551h-234zM268 -297l217 551h306l-289 -551h-234z" />
<glyph unicode="&#x2022;" horiz-adv-x="784" d="M156 735q17 111 94 170.5t186 59.5q120 0 185 -70.5t47 -196.5q-18 -112 -95.5 -171.5t-187.5 -59.5q-119 0 -184 71t-45 197z" />
<glyph unicode="&#x2026;" horiz-adv-x="1513" d="M16 160q12 71 62.5 110t122.5 39q82 0 125.5 -48.5t31.5 -137.5q-12 -73 -62 -111.5t-122 -38.5q-81 0 -126 50.5t-32 136.5zM518 160q12 71 62.5 110t121.5 39q82 0 126 -49t32 -137q-12 -73 -62 -111.5t-122 -38.5q-81 0 -126 50.5t-32 136.5zM1020 160q12 71 62 110 t120 39q84 0 128 -48.5t32 -137.5q-12 -73 -62 -111.5t-122 -38.5q-81 0 -126 50.5t-32 136.5z" />
<glyph unicode="&#x202f;" horiz-adv-x="399" />
<glyph unicode="&#x2039;" horiz-adv-x="677" d="M41 465l8 59l316 365h294l-346 -397l213 -398h-280z" />
<glyph unicode="&#x203a;" horiz-adv-x="677" d="M-14 94l346 398l-213 397h280l207 -371l-10 -59l-315 -365h-295z" />
<glyph unicode="&#x205f;" horiz-adv-x="498" />
<glyph unicode="&#x20ac;" horiz-adv-x="1488" d="M51 465l29 182h151q3 51 13 98h-150l29 183h174q102 242 319 368q216 125 471 125q220 0 404 -100l-43 -277q-138 105 -344 105q-322 0 -469 -221h532l-28 -183h-582q-12 -53 -14 -98h581l-28 -182h-525q44 -103 145 -161t232 -58q220 0 398 114l-48 -303 q-186 -86 -407 -86q-243 0 -426 131q-185 129 -225 363h-189z" />
<glyph unicode="&#x2122;" horiz-adv-x="1392" d="M184 1290l23 144h473l-23 -144h-157l-60 -385h-161l63 385h-158zM668 905l84 529h153l121 -250l188 250h177l-82 -529h-160l43 275l-127 -162h-115l-80 160l-43 -273h-159z" />
<glyph unicode="&#x25fc;" horiz-adv-x="983" d="M0 0v983h983v-983h-983z" />
<glyph unicode="&#xfb01;" horiz-adv-x="1249" d="M70 743l39 240h167l13 74q21 132 93 224t179.5 136.5t245.5 44.5q178 0 340 -67l-39 -234q-124 62 -270 62q-111 0 -182.5 -47.5t-84.5 -137.5l-10 -55h627l-156 -983h-284l118 743h-344l-116 -743h-285l119 743h-170z" />
<glyph unicode="&#xfb02;" horiz-adv-x="1296" d="M70 743l39 240h167l15 88q29 187 164 291q129 100 307 100q162 0 305 -61l240 41l-228 -1442h-284l188 1188q-84 35 -180 35q-197 0 -232 -176l-10 -64h264l-37 -240h-266l-116 -743h-285l119 743h-170z" />
<glyph unicode="&#xfb03;" horiz-adv-x="1943" d="M70 743l39 240h167l11 68q31 193 164.5 292t334.5 99q167 0 312 -80q142 133 385 133q171 0 336 -65l-37 -236q-123 63 -271 63q-234 0 -268 -192l-14 -82h653l-156 -983h-282l117 743h-369l-119 -743h-282l116 743h-385l-116 -743h-285l119 743h-170zM561 983h385 l17 100q6 43 18 84q-77 41 -182 41q-95 0 -156 -46t-74 -130z" />
<glyph unicode="&#xfb04;" horiz-adv-x="1966" d="M70 743l39 240h167l11 68q30 196 168 295q137 96 317 96q181 0 330 -82q126 123 330 123q162 0 307 -62l241 41l-231 -1462h-285l191 1208q-84 35 -174 35q-205 0 -240 -182l-12 -78h264l-37 -240h-264l-119 -743h-282l116 743h-385l-116 -743h-285l119 743h-170z M561 983h385l17 100q6 45 18 86q-74 39 -182 39q-93 0 -155 -46t-75 -130z" />
</font>
</defs>
</svg>
