<?xml version="1.0" standalone="no"?>
<!DOCTYPE svg PUBLIC "-//W3C//DTD SVG 1.1//EN" "http://www.w3.org/Graphics/SVG/1.1/DTD/svg11.dtd" >
<svg xmlns="http://www.w3.org/2000/svg">
<metadata></metadata>
<defs>
<font id="mullerregular_11" horiz-adv-x="1265" >
<font-face units-per-em="2048" ascent="1556" descent="-492" />
<missing-glyph horiz-adv-x="530" />
<glyph horiz-adv-x="0" />
<glyph unicode="&#xd;" horiz-adv-x="681" />
<glyph unicode=" "  horiz-adv-x="530" />
<glyph unicode="&#x09;" horiz-adv-x="530" />
<glyph unicode="&#xa0;" horiz-adv-x="530" />
<glyph unicode="!" horiz-adv-x="440" d="M57 70q12 69 84 69q38 0 59 -23t15 -63q-12 -69 -84 -69q-38 0 -59 23t-15 63zM137 387l158 1047h121l-176 -1047h-103z" />
<glyph unicode="&#x22;" horiz-adv-x="598" d="M213 1106l53 328h111l-82 -328h-82zM444 1106l54 328h110l-82 -328h-82z" />
<glyph unicode="#" horiz-adv-x="1333" d="M43 367l16 102h199l180 457h-202l14 102h227l146 365h116l-143 -365h436l146 365h116l-145 -365h170l-14 -102h-195l-182 -457h200l-16 -102h-223l-146 -367h-116l143 367h-436l-146 -367h-116l145 367h-174zM375 469h436l180 457h-436z" />
<glyph unicode="$" horiz-adv-x="1183" d="M33 100l18 119q195 -127 467 -127q115 0 204 25t149 82t73 141q10 61 -12.5 109.5t-69 81.5t-108.5 60.5t-131.5 51.5t-139 49.5t-130 60.5t-105 77.5t-64 106.5t-6.5 144q27 153 172 242q145 86 328 92l37 244h102l-37 -246q195 -15 336 -102l-16 -115 q-155 104 -406 104q-149 0 -260 -57q-115 -59 -133 -172q-9 -63 13 -112.5t68 -83.5t107 -62t130 -52.5t138 -49.5t129.5 -59t105 -75.5t65.5 -103.5t10 -139q-27 -178 -172 -264q-147 -87 -342 -93l-39 -243h-102l39 246q-257 21 -418 120z" />
<glyph unicode="%" horiz-adv-x="1816" d="M160 1157q23 138 125 218.5t239 80.5q132 0 215 -86q84 -90 60 -233q-21 -143 -125 -219q-106 -80 -236 -80q-133 0 -215 88q-84 84 -63 231zM266 1149q-14 -91 35 -150t141 -59q97 0 167 56.5t83 148.5q13 91 -35.5 150t-136.5 59q-99 0 -170 -56.5t-84 -148.5z M315 -123l1104 1679h121l-1104 -1679h-121zM1055 297q23 138 125 218.5t239 80.5q129 0 215 -86q83 -89 62 -234q-21 -142 -127 -219q-106 -80 -236 -80q-132 0 -215 89q-84 84 -63 231zM1161 289q-14 -91 35 -150t141 -59q97 0 167 56.5t83 148.5q13 91 -35.5 150 t-136.5 59q-99 0 -170 -56.5t-84 -148.5z" />
<glyph unicode="&#x26;" horiz-adv-x="1406" d="M66 352q22 145 149 250q98 84 238 158q-163 193 -136 360q21 140 154 240q134 96 311 96q157 0 258 -88t80 -223q-24 -167 -295 -318q-35 -18 -157 -79q-30 -16 -41 -21l381 -408q129 150 153 338h121q-35 -239 -197 -419l224 -238h-142l-155 164q-217 -187 -520 -187 q-216 0 -334 109q-116 107 -92 266zM186 342q-19 -113 70.5 -183.5t255.5 -70.5q240 0 424 158l-410 432q-118 -57 -213 -133q-112 -89 -127 -203zM432 1098q-21 -125 121 -289q19 9 45 20.5t42 19t26 11.5t25 12.5t39 22t44 23.5q67 37 113 71q43 36 77 81.5t40 86.5 q13 83 -53 136t-171 53q-148 0 -241 -69.5t-107 -178.5z" />
<glyph unicode="'" horiz-adv-x="366" d="M213 1106l53 328h111l-82 -328h-82z" />
<glyph unicode="(" horiz-adv-x="557" d="M115 725q41 248 159 492q121 248 289 440h117q-167 -197 -281 -449q-114 -248 -155 -499q-40 -235 -2 -488q34 -249 137 -444h-111q-109 201 -149.5 451.5t-3.5 496.5z" />
<glyph unicode=")" horiz-adv-x="557" d="M-86 -223q167 197 283 450q112 247 153 498q39 231 4 489q-38 251 -139 443h111q109 -204 150 -453.5t3 -494.5q-42 -252 -157 -488q-119 -247 -289 -444h-119z" />
<glyph unicode="*" horiz-adv-x="888" d="M188 1163l54 103l247 -101l31 269h109l-56 -269l279 101l22 -103l-286 -76l145 -225l-96 -61l-121 243l-201 -243l-82 61l211 225z" />
<glyph unicode="+" horiz-adv-x="1089" d="M109 662l16 110h393l62 393h110l-61 -393h393l-18 -110h-394l-61 -394h-111l62 394h-391z" />
<glyph unicode="," horiz-adv-x="446" d="M-74 -301l183 459h122l-208 -459h-97z" />
<glyph unicode="-" horiz-adv-x="995" d="M115 449l16 110h721l-18 -110h-719z" />
<glyph unicode="." horiz-adv-x="415" d="M53 72q4 31 29 51t57 20q39 0 60 -24t14 -62q-12 -73 -86 -73q-37 0 -59 25t-15 63z" />
<glyph unicode="/" horiz-adv-x="858" d="M-35 -119l875 1671h90l-873 -1671h-92z" />
<glyph unicode="0" horiz-adv-x="1439" d="M129 707q53 324 236 516q180 192 479 192q294 0 424 -201q127 -204 75 -528q-52 -321 -233 -514q-186 -195 -483 -195q-296 0 -422 203q-128 203 -76 527zM248 698q-45 -288 52 -447t333 -159q244 0 393.5 156t194.5 446q45 288 -52 447t-333 159q-244 0 -393.5 -156 t-194.5 -446z" />
<glyph unicode="1" horiz-adv-x="849" d="M16 0l19 117h307l180 1145l-323 -115l20 117l359 129h88l-203 -1276h272l-18 -117h-701z" />
<glyph unicode="2" horiz-adv-x="1163" d="M4 0l10 66q32 183 144 319q50 56 127 111q77 57 135 88q16 8 38.5 19.5t56.5 29.5t60 31q98 52 121 63q18 9 105 64q64 42 96 77q86 90 100 195q17 112 -65 176t-242 64q-217 0 -457 -146l21 129q212 129 453 129q200 0 319 -98q117 -99 90 -266q-24 -167 -162 -285 q-66 -56 -128.5 -96t-178.5 -103q-2 -1 -23.5 -12.5t-41.5 -22.5q-69 -34 -70 -34q-5 -3 -25 -14.5t-36 -20.5q-21 -12 -32 -18.5t-23.5 -14.5t-15.5 -10t-20 -15.5t-26 -19.5q-12 -9 -22.5 -16.5t-17 -13.5t-14.5 -14t-12.5 -13t-14 -16t-15.5 -17q-25 -25 -39 -53 q-38 -83 -45 -125h829l-20 -117h-959z" />
<glyph unicode="3" horiz-adv-x="1202" d="M37 70l16 112q176 -92 447 -92q182 0 301 77t143 220q22 138 -68 206.5t-264 68.5h-211l21 112h192q157 0 256.5 73.5t118.5 192.5q19 118 -64.5 190.5t-246.5 72.5q-216 0 -445 -101l21 121q201 92 446 92q199 0 316 -108q114 -108 90 -273q-19 -111 -94.5 -195 t-190.5 -114q125 -31 192.5 -123.5t45.5 -234.5q-29 -184 -187 -287t-368 -103q-279 0 -467 93z" />
<glyph unicode="4" horiz-adv-x="1312" d="M14 326l17 106l936 961h135l-152 -955h277l-19 -112h-276l-51 -326h-121l51 326h-797zM184 438h643l127 789z" />
<glyph unicode="5" horiz-adv-x="1183" d="M39 72l16 110q167 -92 410 -92q191 0 318.5 86t150.5 234q27 164 -82 241q-110 76 -299 76q-188 0 -383 -68l158 734h815l-19 -117h-702l-107 -477q130 39 281 39q216 0 354 -111q139 -112 105 -332q-30 -191 -193 -305q-162 -113 -389 -113q-261 0 -434 95z" />
<glyph unicode="6" horiz-adv-x="1257" d="M125 672q59 367 252 555t483 188q168 0 309 -78l-18 -110q-125 73 -295 73q-109 0 -202 -33.5t-174 -104.5t-140 -191.5t-90 -284.5q235 170 487 170q187 0 314 -115q127 -117 92 -323q-35 -208 -187 -324q-156 -117 -362 -117q-276 0 -398 184t-71 511zM231 553 q-17 -227 75.5 -345t285.5 -118q170 0 287 88t143 248q25 159 -62 238t-255 79q-263 0 -474 -190z" />
<glyph unicode="7" horiz-adv-x="1079" d="M164 1276l18 117h975l-16 -109l-815 -1284h-133l808 1276h-837z" />
<glyph unicode="8" horiz-adv-x="1318" d="M78 397q19 111 99.5 208t217.5 165q-187 114 -157 303q21 138 161 242q135 100 375 100q225 0 352 -121q126 -120 105 -274q-27 -205 -266 -348q243 -114 206 -344q-20 -146 -174 -250q-149 -101 -405 -101q-271 0 -406 123q-135 120 -108 297zM201 397 q-24 -138 85 -222.5t320 -84.5q181 0 305 74q125 72 140 180q21 139 -88 205q-52 31 -103 51t-149 49q-13 3 -23 6q-73 20 -192 62q-260 -117 -295 -320zM358 1065q-21 -133 91 -199q78 -48 219 -94q13 -3 20 -6q25 -6 176 -49q219 130 246 303q18 115 -72 199 q-93 84 -268 84q-169 0 -281.5 -67.5t-130.5 -170.5z" />
<glyph unicode="9" horiz-adv-x="1255" d="M119 55l18 113q119 -76 295 -76q109 0 202 33.5t174 104.5t140 192t90 285q-235 -170 -487 -170q-188 0 -313 116q-128 116 -93 322q35 207 189 323q153 117 360 117q276 0 398 -184t71 -510q-59 -367 -252 -555.5t-483 -188.5q-171 0 -309 78zM266 967 q-25 -158 62.5 -238t255.5 -80q261 0 473 191q17 227 -75.5 345t-285.5 118q-171 0 -287.5 -87t-142.5 -249z" />
<glyph unicode=":" horiz-adv-x="438" d="M55 72q4 31 29 51t57 20q39 0 60 -24t14 -62q-12 -73 -88 -73q-36 0 -57.5 25.5t-14.5 62.5zM172 819q6 34 30 54t56 20q39 0 60.5 -24t15.5 -64q-12 -72 -88 -72q-36 0 -58 24.5t-16 61.5z" />
<glyph unicode=";" horiz-adv-x="577" d="M-6 -301l182 459h123l-209 -459h-96zM250 899q4 34 30 54t58 20q38 0 59 -24t15 -64q-12 -72 -88 -72q-36 0 -58 24.5t-16 61.5z" />
<glyph unicode="&#x3c;" horiz-adv-x="989" d="M98 659l19 117l803 320l-17 -115l-676 -264l592 -264l-18 -115z" />
<glyph unicode="=" horiz-adv-x="1130" d="M125 475l16 111h838l-16 -111h-838zM184 848l19 110h835l-16 -110h-838z" />
<glyph unicode="&#x3e;" horiz-adv-x="987" d="M104 338l19 115l678 264l-594 264l16 115l705 -322l-21 -117z" />
<glyph unicode="?" horiz-adv-x="1005" d="M176 1225l19 121q195 110 409 110q193 0 311 -92t91 -254q-8 -56 -37 -112t-79 -112.5t-88.5 -94.5t-100.5 -94q-13 -11 -19 -17q-161 -150 -180 -272h-117q9 56 37 111.5t73.5 109t84.5 93t97 93.5q17 15 25 23q165 150 183 276q18 113 -62 170t-243 57 q-197 0 -404 -116zM309 72q4 31 29 51t57 20q39 0 60 -24t14 -62q-12 -73 -86 -73q-37 0 -59 25t-15 63z" />
<glyph unicode="@" horiz-adv-x="2160" d="M84 516q29 185 123 353.5t239 299.5q148 134 352 210.5t431 76.5q100 0 192 -17.5t166.5 -49.5t141 -76.5t116 -98.5t91 -115.5t66 -128t41 -135.5t16 -138t-8.5 -136q-42 -263 -166.5 -403t-300.5 -140q-125 0 -197 62t-73 174q-63 -90 -157.5 -140.5t-199.5 -50.5 q-164 0 -266 123t-72 308q27 183 160 301q128 116 301 116q103 0 181.5 -53t111.5 -139l27 174h114l-90 -561q-34 -211 164 -211q128 0 219 121t123 333q20 134 -14.5 268.5t-118.5 246.5q-89 114 -239.5 182.5t-335.5 68.5q-408 0 -684 -243q-278 -245 -334 -596 q-30 -193 19 -358.5t163 -276.5q111 -108 267.5 -166.5t338.5 -58.5q245 0 469 75l-18 -120q-204 -70 -459 -70q-203 0 -381.5 67t-308.5 189q-132 126 -188.5 317.5t-20.5 415.5zM731 487q-20 -140 49 -228.5t193 -88.5q112 0 208 65t140 162l29 185q-12 96 -83.5 159.5 t-179.5 63.5q-128 0 -231 -86q-104 -91 -125 -232z" />
<glyph unicode="A" horiz-adv-x="1462" d="M-70 0l865 1434h139l409 -1434h-126l-109 385h-811l-229 -385h-138zM365 500h714l-217 764q-1 3 -10 49q-9 -19 -29 -51z" />
<glyph unicode="B" horiz-adv-x="1404" d="M106 0l228 1434h555q208 0 334 -97q99 -76 99 -211q0 -30 -5 -63q-23 -127 -104.5 -206t-202.5 -105q120 -27 202 -115q62 -68 61 -182q0 -34 -5 -72q-61 -383 -598 -383h-564zM246 117h413q166 0 297 45q77 27 127.5 91t63.5 157q3 26 3 49q0 154 -149 203 q-79 26 -188 26h-477zM354 803h484q142 0 238 66.5t118 195.5q4 25 4 48q0 95 -68 144q-84 60 -266 60h-430z" />
<glyph unicode="C" horiz-adv-x="1325" d="M123 745q37 221 176 392q138 166 317 243q174 76 361 76q222 0 379 -98l-19 -117q-135 100 -348 100q-171 0 -323.5 -67t-270.5 -205q-118 -142 -153 -340q-9 -61 -10 -118q0 -87 23 -163q37 -126 122 -202q171 -154 407 -154q224 0 398 107l-21 -131q-180 -91 -407 -91 q-135 0 -258 49.5t-220 141.5q-99 95 -141 246q-25 88 -25 186q0 70 13 145z" />
<glyph unicode="D" horiz-adv-x="1505" d="M106 0l228 1434h438q364 0 535 -201q129 -151 129 -376q0 -70 -13 -148q-53 -323 -270 -516q-220 -193 -600 -193h-447zM246 117h319q310 0 500 161t235 447q11 69 11 131q0 190 -104 306q-138 156 -447 155h-326z" />
<glyph unicode="E" horiz-adv-x="1271" d="M106 0l228 1434h952l-18 -117h-832l-84 -537h768l-16 -116h-770l-86 -547h842l-19 -117h-965z" />
<glyph unicode="F" horiz-adv-x="1236" d="M106 0l228 1434h956l-20 -117h-834l-88 -559h774l-18 -117h-774l-103 -641h-121z" />
<glyph unicode="G" horiz-adv-x="1452" d="M123 745q29 176 117 318t215 227q245 166 536 166q232 0 410 -96l-17 -117q-143 98 -383 98q-253 0 -469 -137q-111 -70 -187.5 -194t-100.5 -281q-11 -65 -11 -124q0 -86 23 -162q37 -128 125 -203q171 -148 418 -148q182 0 331 70l95 594h123l-107 -684 q-219 -95 -457 -95q-289 0 -497 183q-104 92 -149 245q-27 92 -27 196q0 69 12 144z" />
<glyph unicode="H" horiz-adv-x="1572" d="M106 0l228 1434h121l-103 -656h928l104 656h121l-227 -1434h-121l105 662h-930l-105 -662h-121z" />
<glyph unicode="I" horiz-adv-x="522" d="M106 0l228 1434h121l-228 -1434h-121z" />
<glyph unicode="J" horiz-adv-x="1056" d="M-33 70l19 118q127 -92 323 -92q362 0 412 320l143 901h-444l20 117h564l-162 -1031q-31 -211 -167 -317t-349 -106q-225 0 -359 90z" />
<glyph unicode="K" horiz-adv-x="1347" d="M106 0l228 1434h121l-101 -643h375l559 643h139l-608 -703l428 -731h-131l-399 676h-383l-107 -676h-121z" />
<glyph unicode="L" horiz-adv-x="1171" d="M106 0l228 1434h121l-207 -1317h827l-18 -117h-951z" />
<glyph unicode="M" horiz-adv-x="1849" d="M106 0l228 1434h106l465 -922l754 922h123l-228 -1434h-120l192 1214l-694 -849h-80l-430 849l-195 -1214h-121z" />
<glyph unicode="N" horiz-adv-x="1572" d="M106 0l228 1434h102l754 -1237q1 15 8 62.5t8 62.5l178 1112h121l-227 -1434h-102l-754 1239q-1 -18 -8 -65.5t-8 -59.5l-179 -1114h-121z" />
<glyph unicode="O" horiz-adv-x="1683" d="M117 725q48 287 266 502q106 106 261 167.5t329 61.5h4q251 0 415 -134q166 -134 205 -341q18 -78 18 -157q0 -122 -42 -248q-69 -208 -225 -367q-107 -108 -263 -170t-335 -62q-230 0 -385 113q-161 115 -218 279q-39 113 -39 236q0 59 9 120zM232 589.5 q0 -63.5 17.5 -125.5t44 -117t71.5 -102t100.5 -81t130.5 -53t162 -19q297 0 493 187q194 185 234 438q8 64 8 127.5t-17.5 125t-44 117t-71.5 102t-100.5 80.5t-130.5 53t-162 19q-299 0 -492 -184q-195 -186 -235 -440q-8 -64 -8 -127.5z" />
<glyph unicode="P" horiz-adv-x="1351" d="M106 0l228 1434h479q94 -1 174 -14.5t153.5 -46.5t121 -84.5t68.5 -132.5q12 -46 12 -99q0 -41 -7 -86q-71 -449 -671 -449h-353l-84 -522h-121zM328 639h352q477 0 532 346q7 38 7 72q0 133 -107 196q-114 64 -305 64h-373z" />
<glyph unicode="Q" horiz-adv-x="1683" d="M117 725q48 287 266 502q106 106 261 167.5t329 61.5q169 0 305 -63.5t213 -171.5q76 -107 107 -241q18 -77 18 -155q0 -58 -10 -116q-52 -328 -301 -539l184 -215l-86 -74l-191 223q-207 -127 -462 -127q-230 0 -385 113q-161 115 -218 279q-39 113 -39 236q0 59 9 120z M232 589.5q0 -63.5 17.5 -125.5t44 -117t71.5 -102t100.5 -81t130.5 -53t162 -19q206 0 379 105l-240 282l86 74l246 -293q209 177 256 457q8 64 8 127.5t-17.5 125t-44 117t-71.5 102t-100.5 80.5t-130.5 53t-162 19q-299 0 -492 -184q-195 -186 -235 -440 q-8 -64 -8 -127.5z" />
<glyph unicode="R" horiz-adv-x="1415" d="M106 0l228 1434h547q78 0 148.5 -14t135 -46.5t107.5 -81.5q42 -48 62 -124q11 -43 12 -91q0 -37 -7 -78q-29 -181 -156.5 -282.5t-320.5 -126.5l416 -590h-143l-410 580h-406l-92 -580h-121zM338 696h432h16q69 0 133 15q71 17 133 53.5t105.5 100.5t59.5 149q5 30 5 57 q0 35 -8 65q-14 54 -47 87.5t-82.5 55t-101.5 30t-111 8.5h-438z" />
<glyph unicode="S" horiz-adv-x="1177" d="M31 100l18 117q192 -125 465 -125q387 0 424 248q4 23 4 44q0 40 -14 75q-21 53 -65.5 88.5t-104.5 65.5t-128 56t-135.5 52.5t-127 61t-103 77.5t-63.5 106q-13 39 -13 85q0 27 5 57q19 115 101.5 197t193.5 118q102 33 214 33h19q241 0 407 -108l-18 -117 q-155 110 -387 110q-171 0 -279.5 -60t-130.5 -183q-3 -18 -3 -35q0 -42 16 -77q22 -50 67 -84t106 -62.5t129 -53.5t135.5 -52t127 -62.5t102.5 -79.5t62 -110q11 -39 11 -84q0 -31 -5 -64q-27 -186 -182 -273q-151 -84 -349 -84h-14q-288 0 -485 123z" />
<glyph unicode="T" horiz-adv-x="1220" d="M139 1317l19 117h1169l-18 -117h-525l-209 -1317h-120l209 1317h-525z" />
<glyph unicode="U" horiz-adv-x="1542" d="M166 338q-3 29 -2 60q0 55 8 118l145 918h121l-145 -922q-8 -52 -8 -97q0 -323 401 -323q470 0 541 428l143 914h121l-145 -926q-43 -271 -215 -401t-443 -130q-83 0 -154.5 12t-136 39t-111 69t-79.5 102.5t-41 138.5z" />
<glyph unicode="V" horiz-adv-x="1402" d="M164 1434h127l332 -1297l747 1297h135l-835 -1434h-125z" />
<glyph unicode="W" horiz-adv-x="2037" d="M170 1434h123l201 -1278l612 1271h100l207 -1255l592 1262h129l-674 -1434h-137l-199 1208l-583 -1208h-144z" />
<glyph unicode="X" horiz-adv-x="1286" d="M-86 0l682 743l-416 691h135l363 -603l553 603h153l-647 -705l439 -729h-134l-387 639l-587 -639h-154z" />
<glyph unicode="Y" horiz-adv-x="1316" d="M168 1434h127l371 -758l612 758h139l-702 -875l-90 -559h-123l90 559z" />
<glyph unicode="Z" horiz-adv-x="1183" d="M-33 0l17 109l1073 1208h-852l18 117h1006l-17 -109l-1075 -1208h910l-21 -117h-1059z" />
<glyph unicode="[" horiz-adv-x="540" d="M20 -225l299 1884h340l-18 -117h-219l-262 -1651h219l-17 -116h-342z" />
<glyph unicode="\" horiz-adv-x="845" d="M227 1552h86l346 -1671h-86z" />
<glyph unicode="]" horiz-adv-x="542" d="M-80 -225l17 116h221l262 1651h-219l16 117h342l-297 -1884h-342z" />
<glyph unicode="^" horiz-adv-x="1050" d="M141 799l471 635h103l270 -635h-125l-211 506l-373 -506h-135z" />
<glyph unicode="_" horiz-adv-x="907" d="M-139 -287l16 111h907l-18 -111h-905z" />
<glyph unicode="`" horiz-adv-x="362" d="M256 1874h141l140 -291h-125z" />
<glyph unicode="a" d="M76 502q34 225 196 364q161 140 367 140q134 0 235 -63t154 -167l33 207h104l-155 -983h-105l33 203q-179 -226 -449 -226q-211 0 -331 150q-91 111 -91 270q0 50 9 105zM188 494q-6 -42 -6 -80q0 -129 70 -217q91 -113 254 -113q138 0 258.5 77t185.5 197l43 271 q-25 118 -120 194t-226 76q-168 0 -297 -108q-132 -111 -162 -297z" />
<glyph unicode="b" horiz-adv-x="1267" d="M68 0l227 1434h117l-105 -646q77 100 192.5 159t245.5 59q209 0 330 -148q92 -114 91 -277q0 -48 -7 -100q-35 -227 -190 -364q-158 -140 -375 -140q-266 0 -387 232l-35 -209h-104zM238 354q30 -120 123 -195t225 -75q180 0 303.5 108.5t154.5 296.5q6 43 6 82 q0 129 -71 215q-94 113 -252 113q-137 0 -256.5 -77t-187.5 -199z" />
<glyph unicode="c" horiz-adv-x="1013" d="M76 504q25 163 122.5 282.5t227.5 171.5q127 48 256 48q172 0 293 -86l-19 -109q-101 88 -266 88q-247 0 -395 -172q-84 -96 -105 -235q-8 -48 -8 -91q0 -133 80 -213q104 -104 285 -104q160 0 317 86l-18 -121q-147 -72 -324 -72q-218 0 -350 138q-105 107 -105 281 q0 51 9 108z" />
<glyph unicode="d" d="M76 502q34 221 192 364q158 140 365 140q137 0 238 -62t147 -164l104 654h115l-227 -1434h-103l33 209q-170 -232 -451 -232q-211 0 -331 150q-91 111 -91 270q0 50 9 105zM188 494q-6 -41 -6 -79q0 -129 72 -216q92 -115 252 -115q137 0 258 77.5t186 198.5l45 269 q-27 119 -121 194.5t-227 75.5q-170 0 -299 -108q-130 -109 -160 -297z" />
<glyph unicode="e" horiz-adv-x="1120" d="M74 496q37 240 200 374q165 136 359 136q106 0 187 -34.5t127 -91.5q47 -57 69 -131q18 -59 17 -123q-1 -16 -1 -32q-6 -81 -33 -160h-817q-2 -20 -2 -39q0 -145 101 -223q113 -88 280 -88q189 0 344 82l-18 -117q-147 -72 -344 -72q-79 0 -153.5 19.5t-139.5 61.5 t-110 102t-64 146q-10 46 -10 96q0 45 8 94zM197 537h716q10 37 11 77v9q0 35 -6 71q-8 41 -29.5 77.5t-53.5 65.5t-84 45.5t-118 16.5q-152 0 -277 -96q-125 -98 -159 -266z" />
<glyph unicode="f" horiz-adv-x="755" d="M92 874l17 109h178l24 158q25 159 129 237t258 78q128 0 228 -47l-19 -104q-80 45 -196 45q-247 0 -285 -222l-23 -145h396l-17 -109h-397l-137 -874h-117l139 874h-178z" />
<glyph unicode="g" horiz-adv-x="1267" d="M39 -375l18 111q148 -103 361 -103q194 0 321.5 93.5t155.5 277.5l31 186q-76 -97 -190.5 -155t-246.5 -58q-214 0 -331 150q-91 111 -91 270q0 50 9 105q34 222 194 364q161 140 369 140q273 0 387 -238l33 215h108l-155 -987q-38 -240 -201 -354q-165 -115 -383 -115 q-238 0 -389 98zM188 494q-6 -42 -6 -80q0 -128 70 -215q89 -115 254 -115q137 0 258 75t186 191l45 279q-27 120 -120.5 195t-227.5 75q-170 0 -299 -108q-130 -109 -160 -297z" />
<glyph unicode="h" horiz-adv-x="1196" d="M68 0l227 1434h117l-101 -621q184 193 406 193q174 0 266 -111q72 -87 71 -216q0 -37 -5 -77l-97 -602h-116l94 596q6 39 6 73q0 93 -48 151q-66 79 -198 79q-110 0 -217 -64.5t-184 -164.5l-105 -670h-116z" />
<glyph unicode="i" horiz-adv-x="452" d="M74 0l155 983h117l-156 -983h-116zM256 1288q9 72 86 72q36 0 57 -24q16 -19 17 -46q0 -8 -2 -16q-12 -70 -86 -70q-36 0 -57 24q-16 18 -16 44q0 8 1 16z" />
<glyph unicode="j" horiz-adv-x="452" d="M-295 -444l16 102q55 -25 115 -25q179 0 209 183l184 1167h117l-190 -1192q-19 -134 -100 -199t-199 -65q-79 0 -152 29zM256 1288q9 72 86 72q36 0 57 -24q16 -19 16 -46q0 -8 -1 -16q-12 -70 -86 -70q-36 0 -57 24q-16 18 -16 44q0 8 1 16z" />
<glyph unicode="k" horiz-adv-x="1040" d="M68 0l227 1434h117l-138 -865h234l401 414h140l-465 -479l352 -504h-131l-324 463h-225l-72 -463h-116z" />
<glyph unicode="l" horiz-adv-x="452" d="M74 0l237 1495h117l-238 -1495h-116z" />
<glyph unicode="m" horiz-adv-x="1828" d="M68 0l155 983h105l-29 -168q74 81 177 136t208 55q109 0 185.5 -50t107.5 -139q195 189 399 189q166 0 250 -109q64 -82 63 -201q0 -38 -6 -80l-98 -616h-115l99 627q5 32 5 61q0 82 -42 136q-57 74 -174 75q-189 0 -359 -194q0 -43 -6 -89l-98 -616h-117l101 627 q5 31 5 59q0 84 -43 139q-57 74 -173 74q-194 0 -375 -211l-109 -688h-116z" />
<glyph unicode="n" horiz-adv-x="1196" d="M68 0l155 983h105l-31 -182q187 205 422 205q173 0 264 -111q72 -90 71 -218q0 -36 -5 -75l-97 -602h-116l94 596q6 39 6 73q0 93 -48 151q-66 79 -198 79q-110 0 -217 -64t-184 -163l-105 -672h-116z" />
<glyph unicode="o" horiz-adv-x="1214" d="M76 502q37 236 211 370q175 134 383 134q206 0 342 -142q103 -112 103 -279q0 -50 -9 -104q-37 -237 -209 -368q-177 -136 -385 -136q-97 0 -183.5 36t-149.5 100.5t-92 166.5q-18 63 -18 132q0 44 7 90zM188 487q-6 -40 -6 -76q0 -131 76 -214q95 -109 262 -109 q174 0 309 111q134 110 164 297q6 41 6 78q0 129 -73 212q-100 109 -264 109q-174 0 -310 -109q-137 -113 -164 -299z" />
<glyph unicode="p" horiz-adv-x="1267" d="M-4 -451l227 1434h105l-33 -209q176 232 450 232q209 0 330 -148q92 -114 92 -277q0 -48 -8 -100q-34 -223 -194 -362q-160 -142 -371 -142q-137 0 -234 63t-143 171l-104 -662h-117zM240 354q27 -119 121 -194.5t227 -75.5q169 0 299 109q127 109 157 296q7 45 7 87 q0 124 -68 210q-94 113 -256 113q-136 0 -256 -78t-188 -200z" />
<glyph unicode="q" d="M76 502q34 225 196 364q161 140 367 140q133 0 234.5 -64.5t152.5 -171.5l35 213h104l-227 -1434h-115l103 646q-76 -100 -190 -159t-247 -59q-211 0 -331 150q-91 111 -91 270q0 50 9 105zM188 494q-6 -42 -6 -80q0 -130 70 -217q91 -113 254 -113q138 0 258.5 77 t185.5 197l45 273q-27 118 -122 193t-226 75q-168 0 -297 -108q-132 -111 -162 -297z" />
<glyph unicode="r" horiz-adv-x="729" d="M68 0l155 983h105l-35 -223q153 245 438 245q16 0 33 -1l-19 -119q-23 2 -46 2q-125 0 -232 -70q-126 -82 -188 -219l-95 -598h-116z" />
<glyph unicode="s" horiz-adv-x="946" d="M27 78l18 115q142 -109 350 -109q129 0 211 41t94 123q2 10 2 19q0 23 -11 44q-15 29 -40.5 48t-70 38.5t-82 31t-95.5 29t-92 29.5q-99 33 -153 99q-44 54 -44 126q0 17 3 36q18 130 137 194t270 64q194 0 330 -86l-16 -107q-131 88 -318 88q-116 0 -196.5 -42.5 t-92.5 -121.5l-2 -16q0 -27 13 -49q16 -30 41.5 -48.5t71.5 -38.5t83 -31t96 -28t91 -28q99 -33 153 -100q41 -52 41 -120q0 -20 -4 -42q-19 -128 -135 -193.5t-289 -65.5q-227 0 -364 101z" />
<glyph unicode="t" horiz-adv-x="796" d="M72 874l16 109h184l50 309l120 35l-55 -344h414l-17 -109h-413l-92 -575q-5 -32 -5 -59q0 -69 33 -105q46 -51 158 -51q117 0 227 55l-18 -112q-103 -50 -244 -50q-144 0 -218 83q-56 63 -56 162q0 32 6 67l94 585h-184z" />
<glyph unicode="u" horiz-adv-x="1193" d="M115 385l94 598h117l-95 -596q-6 -39 -7 -73q0 -93 48 -151q66 -79 199 -79q118 0 222 63t177 166l107 670h117l-156 -983h-104l30 182q-71 -89 -181.5 -147t-227.5 -58q-181 1 -275 113q-72 86 -72 213q0 39 7 82z" />
<glyph unicode="v" horiz-adv-x="1085" d="M98 983h121l246 -852l520 852h127l-602 -983h-123z" />
<glyph unicode="w" horiz-adv-x="1628" d="M104 983h117l166 -836l434 830h105l166 -827l428 833h125l-508 -983h-121l-162 817l-428 -817h-125z" />
<glyph unicode="x" horiz-adv-x="995" d="M-66 0l484 506l-303 477h131l248 -397l378 397h138l-461 -481l323 -502h-131l-266 422l-403 -422h-138z" />
<glyph unicode="y" horiz-adv-x="1095" d="M-61 -459l14 99q42 -11 82 -11q86 0 159 60.5t152 193.5l70 117l-328 983h117l282 -864l506 864h127l-680 -1147q-184 -309 -395 -309q-63 0 -106 14z" />
<glyph unicode="z" horiz-adv-x="935" d="M-25 0l17 102l751 779h-602l17 102h745l-18 -102l-750 -779h653l-16 -102h-797z" />
<glyph unicode="{" horiz-adv-x="587" d="M70 664l16 106q174 0 201 184l80 498q43 260 307 205l-17 -101q-80 13 -120 -25t-58 -140l-73 -469q-27 -169 -164 -207q126 -27 96 -213l-74 -469q-14 -95 13.5 -131.5t113.5 -24.5l-16 -104q-137 -24 -199 35t-41 186l80 498q27 172 -145 172z" />
<glyph unicode="|" horiz-adv-x="421" d="M25 -205l294 1864h121l-295 -1864h-120z" />
<glyph unicode="}" horiz-adv-x="583" d="M-49 -223l16 106q79 -19 120.5 16.5t55.5 127.5l78 497q30 178 176 199q-63 14 -93 69t-17 144l75 471q14 99 -13 133t-116 21l17 100q134 26 196 -34t41 -187l-77 -496q-13 -90 26 -134t115 -44l-14 -102q-78 0 -133 -47.5t-68 -137.5l-78 -495q-43 -265 -307 -207z" />
<glyph unicode="~" horiz-adv-x="1191" d="M145 578q7 98 69.5 156.5t154.5 58.5q78 0 243 -62q160 -63 234 -63q52 0 86 28t35 76h108q-6 -99 -67 -157t-156 -58q-80 0 -242 64q-163 63 -233 63q-54 0 -88 -28.5t-35 -77.5h-109z" />
<glyph unicode="&#xa1;" horiz-adv-x="415" d="M-18 -444l174 1046h102l-156 -1046h-120zM182 936q4 32 28 51t56 19q37 0 58 -24t14 -62q-12 -70 -84 -70q-37 0 -58 24t-14 62z" />
<glyph unicode="&#xa2;" horiz-adv-x="1046" d="M86 504q18 118 72.5 212.5t131 153.5t163 92.5t178.5 41.5l35 225h102l-35 -225q136 -6 252 -84l-18 -109q-105 85 -252 88l-127 -815q147 9 286 86l-18 -121q-136 -63 -287 -72l-34 -223h-103l37 228q-194 21 -307 155q-114 132 -76 367zM201 492q-29 -173 49 -278 t235 -126l127 805q-161 -26 -272 -128t-139 -273z" />
<glyph unicode="&#xa3;" horiz-adv-x="1234" d="M-12 0l18 117h70q69 0 119 50t63 136l51 330h-170l19 112h170l32 203q24 159 106.5 270t192.5 156q106 41 230 41q164 0 291 -80l-19 -112q-118 80 -278 80q-157 0 -265.5 -91t-138.5 -274l-30 -193h485l-19 -112h-483l-55 -338q-21 -141 -113 -182l815 4l-20 -117h-1071 z" />
<glyph unicode="&#xa4;" horiz-adv-x="1177" d="M102 348l150 129q-68 102 -47 248q24 141 121 238l-105 122l92 82l111 -131q109 68 240 68q133 0 227 -70l153 133l70 -82l-149 -129q66 -103 45 -247q-21 -137 -119 -238l106 -123l-94 -82l-110 131q-107 -67 -240 -67t-225 69l-156 -133zM322 709q-20 -122 46.5 -196.5 t190.5 -74.5q128 0 223 79.5t115 207.5q20 122 -47 196t-191 74q-129 0 -223 -78.5t-114 -207.5z" />
<glyph unicode="&#xa5;" horiz-adv-x="1341" d="M195 293l16 102h362l25 152h-362l16 102h307l-364 744h131l348 -727l581 727h136l-600 -744h307l-17 -102h-362l-25 -152h365l-17 -102h-364l-47 -293h-121l47 293h-362z" />
<glyph unicode="&#xa6;" horiz-adv-x="456" d="M41 -205l115 719h120l-114 -719h-121zM223 940l113 719h121l-113 -719h-121z" />
<glyph unicode="&#xa7;" horiz-adv-x="1009" d="M53 25l17 108q141 -100 325 -100q130 0 211.5 41t93.5 123q3 56 -20 90t-80 59q-43 20 -160 55q-122 37 -184 70q-49 22 -76 53q-27 30 -40 76t-3 98q21 152 225 267q-147 75 -126 231q21 128 137 195q115 65 262 65q166 0 313 -84l-16 -106q-122 88 -295 88 q-112 0 -192.5 -46t-92.5 -124q-2 -59 21.5 -91.5t87.5 -58.5q23 -10 76 -28q24 -8 92 -27q131 -36 217 -92q100 -65 76 -203q-24 -149 -234 -264q151 -77 127 -236q-20 -123 -135 -188.5t-283 -65.5q-205 0 -344 95zM252 700q0 -62 17.5 -92t72.5 -57q45 -22 61 -27 q2 -1 15 -5t29.5 -9.5t33.5 -11.5q12 -4 54.5 -15t52.5 -14q88 32 149.5 89t73.5 124q12 87 -57 133q-36 22 -65.5 34t-96.5 34q-82 20 -123 35q-82 -30 -144.5 -90.5t-72.5 -127.5z" />
<glyph unicode="&#xa8;" horiz-adv-x="595" d="M238 1720q6 31 33 54.5t59 23.5q36 0 59 -28t17 -64q-4 -32 -31.5 -55t-59.5 -23q-38 0 -60.5 27.5t-16.5 64.5zM649 1720q6 31 33 54.5t59 23.5q36 0 59 -28t17 -64q-4 -32 -31 -55t-59 -23q-38 0 -61 27.5t-17 64.5z" />
<glyph unicode="&#xa9;" horiz-adv-x="1742" d="M125 727q23 142 86 263t151 205.5t195.5 144t220 88t223.5 28.5q137 0 264.5 -48.5t227.5 -139.5q102 -94 147 -241t17 -320q-26 -172 -114.5 -316t-215.5 -233q-257 -181 -547 -181q-137 0 -264 49t-225 140q-103 94 -148.5 240.5t-17.5 320.5zM172 727 q-26 -161 14 -298t133 -224q91 -86 209.5 -133t247.5 -47q274 0 518 168q121 81 205.5 216t110.5 298q26 161 -14 298.5t-132 225.5q-89 85 -208 131.5t-248 46.5q-274 0 -521 -166q-121 -84 -205 -219t-110 -297zM510 711q34 205 178 313q143 104 313 104q144 0 244 -71 l-8 -86q-94 67 -223 67q-146 0 -262 -82q-117 -82 -144 -256q-17 -89 9 -156t83 -100.5t131.5 -44.5t158.5 7t161 59l-8 -92q-136 -68 -283 -68q-165 0 -272 107q-108 108 -78 299z" />
<glyph unicode="&#xab;" horiz-adv-x="946" d="M80 479l4 29l301 346h127l-315 -362l198 -363h-123zM432 479l4 29l301 346h127l-315 -362l199 -363h-123z" />
<glyph unicode="&#xac;" horiz-adv-x="1177" d="M170 872l16 111h897l-63 -401h-117l47 290h-780z" />
<glyph unicode="&#xad;" horiz-adv-x="995" d="M115 449l16 110h721l-18 -110h-719z" />
<glyph unicode="&#xae;" horiz-adv-x="1742" d="M125 727q23 142 86 263t151 205.5t195.5 144t220 88t223.5 28.5q137 0 264.5 -48.5t227.5 -139.5q102 -94 147 -241t17 -320q-26 -172 -114.5 -316t-215.5 -233q-257 -181 -547 -181q-137 0 -264 49t-225 140q-103 94 -148.5 240.5t-17.5 320.5zM172 727 q-26 -161 14 -298t133 -224q91 -86 209.5 -133t247.5 -47q274 0 518 168q121 81 205.5 216t110.5 298q26 161 -14 298.5t-132 225.5q-89 85 -208 131.5t-248 46.5q-274 0 -521 -166q-121 -84 -205 -219t-110 -297zM549 311l127 807h328q39 0 76.5 -6.5t77.5 -24.5 t67.5 -45.5t40.5 -74.5t2 -107q-27 -176 -215 -223l176 -326h-99l-167 314q-10 -2 -45 -2h-232l-49 -312h-88zM698 709h232q225 0 252 165q15 107 -60 136q-60 22 -135 22h-237z" />
<glyph unicode="&#xaf;" horiz-adv-x="681" d="M270 1628l17 107h573l-16 -107h-574z" />
<glyph unicode="&#xb0;" horiz-adv-x="802" d="M180 1174q21 131 125 212q104 78 225 78q124 0 207 -86q79 -85 58 -223q-22 -138 -121 -213q-103 -80 -225 -80q-126 0 -209 86q-82 82 -60 226zM268 1165q-13 -96 38 -156.5t143 -60.5q100 0 172.5 58.5t89.5 156.5q13 93 -38.5 153t-142.5 60q-100 0 -172.5 -57 t-89.5 -154z" />
<glyph unicode="&#xb1;" horiz-adv-x="1181" d="M55 0l19 111h895l-19 -111h-895zM168 709l16 110h394l61 391h111l-62 -391h393l-18 -110h-391l-64 -394h-110l63 394h-393z" />
<glyph unicode="&#xb4;" horiz-adv-x="362" d="M262 1583l230 291h147l-248 -291h-129z" />
<glyph unicode="&#xb6;" horiz-adv-x="1267" d="M137 1018q31 196 166.5 306t345.5 110h580l-299 -1885h-121l278 1768h-331l-281 -1768h-121l166 1039q-210 0 -312.5 114t-70.5 316z" />
<glyph unicode="&#xb7;" horiz-adv-x="438" d="M121 498q6 34 30 52.5t58 18.5q38 0 59 -24t15 -64q-12 -71 -86 -71q-38 0 -60 24t-16 64z" />
<glyph unicode="&#xb8;" horiz-adv-x="436" d="M-119 -430l17 94q82 -43 186 -43q163 0 178 86q6 56 -68 72t-167 -6l86 227h100l-61 -150q97 11 157.5 -31t50.5 -122q-12 -81 -82.5 -125.5t-183.5 -44.5q-112 0 -213 43z" />
<glyph unicode="&#xbb;" horiz-adv-x="946" d="M49 129l316 363l-197 362h121l194 -350l-6 -29l-301 -346h-127zM399 129l316 363l-197 362h121l195 -350l-7 -29l-301 -346h-127z" />
<glyph unicode="&#xbc;" horiz-adv-x="1925" d="M104 557l15 96h190l101 633l-189 -69l17 98l215 78h75l-116 -740h149l-16 -96h-441zM328 -25l1171 1481h60l-1172 -1481h-59zM1063 186l14 93l545 557h111l-88 -555h157l-14 -95h-158l-31 -186h-98l29 186h-467zM1204 281h340l66 413z" />
<glyph unicode="&#xbd;" horiz-adv-x="1828" d="M94 557l15 96h190l100 633l-188 -69l16 98l215 78h76l-117 -740h150l-16 -96h-441zM317 -25l1172 1481h59l-1171 -1481h-60zM1065 0l8 53q22 148 125 228q53 44 92 67q8 4 46.5 25t66.5 35q116 58 171.5 108t67.5 115q10 58 -34 91.5t-121 33.5q-141 0 -287 -90l17 108 q131 76 274 76q122 0 196 -64.5t56 -167.5q-27 -157 -279 -286q-28 -14 -94 -51q-8 -4 -19 -11.5t-27.5 -18.5t-27.5 -18q-44 -30 -66 -62.5t-30 -74.5h469l-16 -96h-588z" />
<glyph unicode="&#xbe;" horiz-adv-x="2031" d="M113 608l16 99q111 -60 258 -60q231 0 252 158q12 75 -34 109t-144 34h-131l14 96h117q86 0 141 40t66 104q7 60 -40 95.5t-132 35.5q-136 0 -267 -64l17 105q122 55 266 55q119 0 192 -67.5t60 -165.5q-11 -64 -54.5 -113.5t-111.5 -69.5q72 -18 111 -73.5t26 -141.5 q-18 -110 -112 -171.5t-232 -61.5q-161 0 -278 57zM467 -25l1171 1481h60l-1172 -1481h-59zM1167 186l15 93l544 557h111l-88 -555h158l-15 -95h-157l-31 -186h-98l28 186h-467zM1309 281h340l65 413z" />
<glyph unicode="&#xbf;" horiz-adv-x="989" d="M-41 -125q12 74 68.5 158.5t100.5 129t137 129.5q13 13 20 19q160 150 180 267h115q-15 -93 -91 -191q-78 -100 -159 -170q-86 -74 -158 -166q-75 -92 -90 -180q-18 -111 62.5 -168t244.5 -57q208 0 404 118l-21 -124q-196 -111 -407 -111q-196 0 -314 92 q-116 91 -92 254zM498 934q4 34 28 53t58 19q38 0 59 -24t14 -62q-6 -34 -30.5 -53t-57.5 -19q-37 0 -57.5 24t-13.5 62z" />
<glyph unicode="&#xc0;" horiz-adv-x="1462" d="M-70 0l865 1434h139l409 -1434h-126l-109 385h-811l-229 -385h-138zM365 500h714l-217 764q-1 3 -10 49q-9 -19 -29 -51zM707 1874h141l139 -291h-125z" />
<glyph unicode="&#xc1;" horiz-adv-x="1462" d="M-70 0l865 1434h139l409 -1434h-126l-109 385h-811l-229 -385h-138zM365 500h714l-217 764q-1 3 -10 49q-9 -19 -29 -51zM795 1583l229 291h147l-247 -291h-129z" />
<glyph unicode="&#xc2;" horiz-adv-x="1462" d="M-70 0l865 1434h139l409 -1434h-126l-109 385h-811l-229 -385h-138zM365 500h714l-217 764q-1 3 -10 49q-9 -19 -29 -51zM565 1585l309 281h105l221 -281h-127l-155 193l-216 -193h-137z" />
<glyph unicode="&#xc3;" horiz-adv-x="1462" d="M-70 0l865 1434h139l409 -1434h-126l-109 385h-811l-229 -385h-138zM365 500h714l-217 764q-1 3 -10 49q-9 -19 -29 -51zM563 1595q1 88 49 139.5t119 51.5q66 0 170 -49q101 -49 141 -49q84 0 84 86h101q-1 -89 -48.5 -139t-121.5 -50q-67 0 -168 49t-141 49 q-39 0 -61.5 -23.5t-22.5 -64.5h-101z" />
<glyph unicode="&#xc4;" horiz-adv-x="1462" d="M-70 0l865 1434h139l409 -1434h-126l-109 385h-811l-229 -385h-138zM365 500h714l-217 764q-1 3 -10 49q-9 -19 -29 -51zM610 1720q6 31 33 54.5t59 23.5q36 0 59 -28t17 -64q-4 -32 -31 -55t-59 -23q-38 0 -61 27.5t-17 64.5zM1022 1720q6 31 33 54.5t59 23.5 q36 0 59 -28t17 -64q-4 -32 -31 -55t-59 -23q-38 0 -61 27.5t-17 64.5z" />
<glyph unicode="&#xc5;" horiz-adv-x="1462" d="M-70 0l865 1434h139l409 -1434h-126l-109 385h-811l-229 -385h-138zM365 500h714l-217 764q-1 3 -10 49q-9 -19 -29 -51zM707 1745q13 85 81 138.5t154 53.5q88 0 141.5 -58.5t40.5 -147.5q-13 -86 -80 -140.5t-153 -54.5q-88 0 -142.5 59.5t-41.5 149.5zM795 1737 q-7 -51 20.5 -85t75.5 -34q56 0 98 32.5t49 86.5q7 51 -20.5 84.5t-75.5 33.5q-56 0 -98 -32t-49 -86z" />
<glyph unicode="&#xc6;" horiz-adv-x="2048" d="M-115 0l1233 1434h944l-18 -117h-768l-84 -537h706l-18 -116h-706l-89 -547h783l-19 -117h-903l62 389h-643l-332 -389h-148zM459 500h565l129 809z" />
<glyph unicode="&#xc7;" horiz-adv-x="1325" d="M123 745q37 221 176 392q138 166 317 243q174 76 361 76q222 0 379 -98l-19 -117q-135 100 -348 100q-171 0 -323.5 -67t-270.5 -205q-118 -142 -153 -340q-24 -155 13 -281.5t122 -201.5q171 -154 407 -154q224 0 398 107l-21 -131q-164 -85 -379 -91l-51 -127 q97 11 158 -31t51 -122q-12 -81 -82.5 -125.5t-183.5 -44.5q-112 0 -213 43l16 94q82 -43 187 -43q163 0 178 86q6 56 -68.5 72t-167.5 -6l80 209q-259 24 -432 213q-88 94 -124 238t-7 312z" />
<glyph unicode="&#xc8;" horiz-adv-x="1271" d="M106 0l228 1434h952l-18 -117h-832l-84 -537h768l-16 -116h-770l-86 -547h842l-19 -117h-965zM653 1874h142l139 -291h-125z" />
<glyph unicode="&#xc9;" horiz-adv-x="1271" d="M106 0l228 1434h952l-18 -117h-832l-84 -537h768l-16 -116h-770l-86 -547h842l-19 -117h-965zM741 1583l230 291h147l-248 -291h-129z" />
<glyph unicode="&#xca;" horiz-adv-x="1271" d="M106 0l228 1434h952l-18 -117h-832l-84 -537h768l-16 -116h-770l-86 -547h842l-19 -117h-965zM512 1585l309 281h105l221 -281h-127l-156 193l-215 -193h-137z" />
<glyph unicode="&#xcb;" horiz-adv-x="1271" d="M106 0l228 1434h952l-18 -117h-832l-84 -537h768l-16 -116h-770l-86 -547h842l-19 -117h-965zM557 1720q6 31 33 54.5t59 23.5q36 0 59 -28t17 -64q-4 -32 -31 -55t-59 -23q-38 0 -61 27.5t-17 64.5zM969 1720q6 31 33 54.5t59 23.5q36 0 59 -28t17 -64q-4 -32 -31 -55 t-59 -23q-38 0 -61 27.5t-17 64.5z" />
<glyph unicode="&#xcc;" horiz-adv-x="522" d="M106 0l228 1434h121l-228 -1434h-121zM236 1874h141l139 -291h-125z" />
<glyph unicode="&#xcd;" horiz-adv-x="522" d="M106 0l228 1434h121l-228 -1434h-121zM324 1583l229 291h147l-247 -291h-129z" />
<glyph unicode="&#xce;" horiz-adv-x="522" d="M94 1585l309 281h105l221 -281h-127l-156 193l-215 -193h-137zM106 0l228 1434h121l-228 -1434h-121z" />
<glyph unicode="&#xcf;" horiz-adv-x="522" d="M106 0l228 1434h121l-228 -1434h-121zM139 1720q6 31 33 54.5t59 23.5q36 0 59 -28t17 -64q-4 -32 -31 -55t-59 -23q-38 0 -61 27.5t-17 64.5zM551 1720q6 31 33 54.5t59 23.5q36 0 59 -28t17 -64q-4 -32 -31 -55t-59 -23q-38 0 -61 27.5t-17 64.5z" />
<glyph unicode="&#xd0;" horiz-adv-x="1509" d="M63 659l17 111h151l107 664h438q362 0 533 -201t118 -524q-52 -321 -272 -514q-222 -195 -598 -195h-446l104 659h-152zM250 117h319q310 0 500.5 161t235.5 447q45 281 -93 436.5t-448 155.5h-326l-86 -547h475l-18 -111h-473z" />
<glyph unicode="&#xd1;" horiz-adv-x="1572" d="M106 0l228 1434h102l754 -1237q1 15 8 62.5t8 62.5l178 1112h121l-227 -1434h-102l-754 1239q-1 -18 -8 -65.5t-8 -59.5l-179 -1114h-121zM621 1595q1 88 48.5 139.5t118.5 51.5q66 0 170 -49q101 -49 142 -49q84 0 84 86h100q-1 -89 -48.5 -139t-121.5 -50 q-67 0 -168 49t-141 49q-39 0 -61.5 -23.5t-22.5 -64.5h-100z" />
<glyph unicode="&#xd2;" horiz-adv-x="1683" d="M117 725q48 287 266 502q106 106 261 167.5t329 61.5q253 1 418.5 -133.5t205.5 -341.5q45 -197 -24 -405.5t-225 -366.5q-107 -108 -263 -170t-335 -62q-230 0 -385 113q-161 115 -218 279q-57 166 -30 356zM232 589.5q0 -63.5 17.5 -125.5t44 -117t71.5 -102t100.5 -81 t130.5 -53t162 -19q297 0 493 187q194 185 234 438q8 64 8 127.5t-17.5 125t-44 117t-71.5 102t-100.5 80.5t-130.5 53t-162 19q-299 0 -492 -184q-195 -186 -235 -440q-8 -64 -8 -127.5zM817 1874h141l140 -291h-125z" />
<glyph unicode="&#xd3;" horiz-adv-x="1683" d="M117 725q48 287 266 502q106 106 261 167.5t329 61.5q253 1 418.5 -133.5t205.5 -341.5q45 -197 -24 -405.5t-225 -366.5q-107 -108 -263 -170t-335 -62q-230 0 -385 113q-161 115 -218 279q-57 166 -30 356zM232 589.5q0 -63.5 17.5 -125.5t44 -117t71.5 -102t100.5 -81 t130.5 -53t162 -19q297 0 493 187q194 185 234 438q8 64 8 127.5t-17.5 125t-44 117t-71.5 102t-100.5 80.5t-130.5 53t-162 19q-299 0 -492 -184q-195 -186 -235 -440q-8 -64 -8 -127.5zM905 1583l230 291h147l-248 -291h-129z" />
<glyph unicode="&#xd4;" horiz-adv-x="1683" d="M117 725q48 287 266 502q106 106 261 167.5t329 61.5q253 1 418.5 -133.5t205.5 -341.5q45 -197 -24 -405.5t-225 -366.5q-107 -108 -263 -170t-335 -62q-230 0 -385 113q-161 115 -218 279q-57 166 -30 356zM232 589.5q0 -63.5 17.5 -125.5t44 -117t71.5 -102t100.5 -81 t130.5 -53t162 -19q297 0 493 187q194 185 234 438q8 64 8 127.5t-17.5 125t-44 117t-71.5 102t-100.5 80.5t-130.5 53t-162 19q-299 0 -492 -184q-195 -186 -235 -440q-8 -64 -8 -127.5zM676 1585l309 281h105l221 -281h-127l-156 193l-215 -193h-137z" />
<glyph unicode="&#xd5;" horiz-adv-x="1683" d="M117 725q48 287 266 502q106 106 261 167.5t329 61.5q253 1 418.5 -133.5t205.5 -341.5q45 -197 -24 -405.5t-225 -366.5q-107 -108 -263 -170t-335 -62q-230 0 -385 113q-161 115 -218 279q-57 166 -30 356zM232 589.5q0 -63.5 17.5 -125.5t44 -117t71.5 -102t100.5 -81 t130.5 -53t162 -19q297 0 493 187q194 185 234 438q8 64 8 127.5t-17.5 125t-44 117t-71.5 102t-100.5 80.5t-130.5 53t-162 19q-299 0 -492 -184q-195 -186 -235 -440q-8 -64 -8 -127.5zM674 1595q1 88 49 139.5t119 51.5q66 0 170 -49q101 -49 141 -49q84 0 84 86h100 q-1 -89 -48.5 -139t-121.5 -50q-67 0 -168 49t-141 49q-39 0 -61.5 -23.5t-22.5 -64.5h-100z" />
<glyph unicode="&#xd6;" horiz-adv-x="1683" d="M117 725q48 287 266 502q106 106 261 167.5t329 61.5q253 1 418.5 -133.5t205.5 -341.5q45 -197 -24 -405.5t-225 -366.5q-107 -108 -263 -170t-335 -62q-230 0 -385 113q-161 115 -218 279q-57 166 -30 356zM232 589.5q0 -63.5 17.5 -125.5t44 -117t71.5 -102t100.5 -81 t130.5 -53t162 -19q297 0 493 187q194 185 234 438q8 64 8 127.5t-17.5 125t-44 117t-71.5 102t-100.5 80.5t-130.5 53t-162 19q-299 0 -492 -184q-195 -186 -235 -440q-8 -64 -8 -127.5zM721 1720q6 31 33 54.5t59 23.5q36 0 59 -28t17 -64q-4 -32 -31 -55t-59 -23 q-38 0 -61 27.5t-17 64.5zM1133 1720q6 31 33 54.5t59 23.5q36 0 58.5 -28t16.5 -64q-4 -32 -31 -55t-59 -23q-38 0 -60.5 27.5t-16.5 64.5z" />
<glyph unicode="&#xd7;" horiz-adv-x="937" d="M102 453l310 266l-226 266l84 76l226 -266l309 266l65 -76l-311 -266l225 -268l-84 -74l-223 268l-311 -268z" />
<glyph unicode="&#xd8;" horiz-adv-x="1683" d="M80 -98l215 243q-111 104 -157 258t-21 322q48 287 266 502q106 106 261 167.5t329 61.5q229 0 387 -110l164 186h121l-218 -244q112 -105 158.5 -258.5t20.5 -320.5q-48 -290 -258 -500q-107 -108 -263 -170t-335 -62q-226 0 -385 111l-164 -186h-121zM238 717 q-21 -139 13.5 -265.5t123.5 -215.5l903 1019q-130 86 -311 86q-298 0 -494 -184q-195 -186 -235 -440zM444 178q130 -86 314 -86q297 0 493 187q194 185 234 438q46 298 -137 481z" />
<glyph unicode="&#xd9;" horiz-adv-x="1542" d="M166.5 337.5q-7.5 78.5 5.5 178.5l145 918h121l-145 -922q-64 -420 393 -420q470 0 541 428l143 914h121l-145 -926q-43 -271 -215 -401t-443 -130q-83 0 -154.5 12t-136 39t-111 69t-79.5 102t-40.5 138.5zM733 1874h141l140 -291h-125z" />
<glyph unicode="&#xda;" horiz-adv-x="1542" d="M166.5 337.5q-7.5 78.5 5.5 178.5l145 918h121l-145 -922q-64 -420 393 -420q470 0 541 428l143 914h121l-145 -926q-43 -271 -215 -401t-443 -130q-83 0 -154.5 12t-136 39t-111 69t-79.5 102t-40.5 138.5zM821 1583l230 291h147l-248 -291h-129z" />
<glyph unicode="&#xdb;" horiz-adv-x="1542" d="M166.5 337.5q-7.5 78.5 5.5 178.5l145 918h121l-145 -922q-64 -420 393 -420q470 0 541 428l143 914h121l-145 -926q-43 -271 -215 -401t-443 -130q-83 0 -154.5 12t-136 39t-111 69t-79.5 102t-40.5 138.5zM592 1585l309 281h105l221 -281h-127l-156 193l-215 -193h-137 z" />
<glyph unicode="&#xdc;" horiz-adv-x="1542" d="M166.5 337.5q-7.5 78.5 5.5 178.5l145 918h121l-145 -922q-64 -420 393 -420q470 0 541 428l143 914h121l-145 -926q-43 -271 -215 -401t-443 -130q-83 0 -154.5 12t-136 39t-111 69t-79.5 102t-40.5 138.5zM637 1720q6 31 33 54.5t59 23.5q36 0 59 -28t17 -64 q-4 -32 -31 -55t-59 -23q-38 0 -61 27.5t-17 64.5zM1049 1720q6 31 33 54.5t59 23.5q36 0 59 -28t17 -64q-4 -32 -31.5 -55t-59.5 -23q-38 0 -60.5 27.5t-16.5 64.5z" />
<glyph unicode="&#xdd;" horiz-adv-x="1316" d="M168 1434h127l371 -758l612 758h139l-702 -875l-90 -559h-123l90 559zM709 1583l229 291h147l-247 -291h-129z" />
<glyph unicode="&#xde;" horiz-adv-x="1341" d="M106 0l228 1434h121l-41 -263h350q98 0 180 -13.5t156 -46.5t121.5 -84.5t68.5 -132.5t4 -185q-74 -447 -671 -447h-353l-43 -262h-121zM287 377h352q476 0 532 348q27 185 -86 258q-118 74 -325 74h-365z" />
<glyph unicode="&#xdf;" horiz-adv-x="1216" d="M68 0l161 1028q32 202 162 315t326 113q181 3 276 -92q92 -95 74 -211q-5 -43 -28.5 -87t-53.5 -80.5t-59.5 -70t-50 -65.5t-21.5 -57q-6 -35 20.5 -76t67 -82t80.5 -88.5t62 -112.5t10 -137q-28 -159 -158 -238q-131 -82 -299 -82q-151 0 -258 58l16 100q98 -55 223 -55 q144 0 243.5 60.5t117.5 176.5q10 64 -25 133t-92 125q-57 53 -93.5 111.5t-29.5 104.5q3 36 34.5 82.5t68.5 86t70 93t38 102.5q12 84 -52.5 141.5t-180.5 57.5q-147 0 -246.5 -84.5t-122.5 -231.5l-164 -1038h-116z" />
<glyph unicode="&#xe0;" d="M76 502q34 225 196 364q161 140 367 140q134 0 235 -63t154 -167l33 207h104l-155 -983h-105l33 203q-179 -226 -449 -226q-211 0 -331 150q-120 146 -82 375zM188 494q-27 -184 64 -297t254 -113q138 0 258.5 77t185.5 197l43 271q-25 118 -120 194t-226 76 q-168 0 -297 -108q-132 -111 -162 -297zM518 1423h141l140 -290h-125z" />
<glyph unicode="&#xe1;" d="M76 502q34 225 196 364q161 140 367 140q134 0 235 -63t154 -167l33 207h104l-155 -983h-105l33 203q-179 -226 -449 -226q-211 0 -331 150q-120 146 -82 375zM188 494q-27 -184 64 -297t254 -113q138 0 258.5 77t185.5 197l43 271q-25 118 -120 194t-226 76 q-168 0 -297 -108q-132 -111 -162 -297zM606 1133l230 290h147l-248 -290h-129z" />
<glyph unicode="&#xe2;" d="M76 502q34 225 196 364q161 140 367 140q134 0 235 -63t154 -167l33 207h104l-155 -983h-105l33 203q-179 -226 -449 -226q-211 0 -331 150q-120 146 -82 375zM188 494q-27 -184 64 -297t254 -113q138 0 258.5 77t185.5 197l43 271q-25 118 -120 194t-226 76 q-168 0 -297 -108q-132 -111 -162 -297zM377 1135l309 280h105l221 -280h-127l-156 192l-215 -192h-137z" />
<glyph unicode="&#xe3;" d="M76 502q34 225 196 364q161 140 367 140q134 0 235 -63t154 -167l33 207h104l-155 -983h-105l33 203q-179 -226 -449 -226q-211 0 -331 150q-120 146 -82 375zM188 494q-27 -184 64 -297t254 -113q138 0 258.5 77t185.5 197l43 271q-25 118 -120 194t-226 76 q-168 0 -297 -108q-132 -111 -162 -297zM375 1145q1 88 49 139t119 51q66 0 170 -49q101 -49 141 -49q84 0 84 86h100q-1 -88 -48.5 -138t-121.5 -50q-67 0 -168 49t-141 49q-39 0 -61.5 -23.5t-22.5 -64.5h-100z" />
<glyph unicode="&#xe4;" d="M76 502q34 225 196 364q161 140 367 140q134 0 235 -63t154 -167l33 207h104l-155 -983h-105l33 203q-179 -226 -449 -226q-211 0 -331 150q-120 146 -82 375zM188 494q-27 -184 64 -297t254 -113q138 0 258.5 77t185.5 197l43 271q-25 118 -120 194t-226 76 q-168 0 -297 -108q-132 -111 -162 -297zM422 1270q6 31 33 54.5t59 23.5q36 0 59 -28.5t17 -64.5q-4 -32 -31 -54.5t-59 -22.5q-38 0 -61 27.5t-17 64.5zM834 1270q6 31 33 54.5t59 23.5q36 0 58.5 -28.5t16.5 -64.5q-4 -32 -31 -54.5t-59 -22.5q-38 0 -60.5 27.5 t-16.5 64.5z" />
<glyph unicode="&#xe5;" d="M76 502q34 225 196 364q161 140 367 140q134 0 235 -63t154 -167l33 207h104l-155 -983h-105l33 203q-179 -226 -449 -226q-211 0 -331 150q-120 146 -82 375zM188 494q-27 -184 64 -297t254 -113q138 0 258.5 77t185.5 197l43 271q-25 118 -120 194t-226 76 q-168 0 -297 -108q-132 -111 -162 -297zM518 1294q13 85 81.5 139t154.5 54q88 0 141.5 -59t40.5 -148q-13 -86 -80.5 -140.5t-153.5 -54.5q-88 0 -142.5 59.5t-41.5 149.5zM606 1286q-7 -51 20.5 -85t75.5 -34q56 0 98.5 32.5t49.5 86.5q7 51 -20.5 85t-75.5 34 q-56 0 -98.5 -32.5t-49.5 -86.5z" />
<glyph unicode="&#xe6;" horiz-adv-x="2031" d="M76 502q34 225 196 364q161 140 367 140q134 0 235 -63t154 -167l33 207h104l-32 -217q71 115 184 177.5t244 62.5q106 0 186 -34.5t124 -92t63.5 -132t12.5 -154.5t-36 -159h-817q-15 -174 98 -262t281 -88q182 0 337 82l-18 -117q-147 -72 -340 -72q-133 0 -250 66 q-115 64 -153 190l-39 -233h-105l33 203q-179 -226 -449 -226q-211 0 -331 150q-120 146 -82 375zM188 494q-27 -184 64 -297t254 -113q138 0 258.5 77t185.5 197l43 271q-25 116 -120.5 193t-225.5 77q-168 0 -297 -108q-132 -111 -162 -297zM1110 537h715q12 46 12.5 94 t-15 96.5t-47 86.5t-90 61.5t-137.5 23.5q-158 0 -282 -100q-127 -103 -156 -262z" />
<glyph unicode="&#xe7;" horiz-adv-x="1013" d="M78 504q41 251 217 375q177 127 387 127q174 0 295 -86l-21 -109q-101 88 -266 88q-178 0 -319 -100q-147 -104 -181 -307q-30 -200 74 -304t285 -104q157 0 317 86l-18 -121q-135 -66 -297 -72l-51 -127q97 11 158 -31t51 -122q-12 -81 -83 -125.5t-184 -44.5 q-110 0 -211 43l17 94q82 -43 186 -43q167 0 176 86q9 54 -67 72q-77 18 -168 -6l80 209q-189 21 -301 157q-114 132 -76 365z" />
<glyph unicode="&#xe8;" horiz-adv-x="1120" d="M74 496q37 240 200 374q165 136 359 136q106 0 187 -34.5t127 -91.5t68.5 -131t17 -155t-33.5 -160h-817q-15 -174 99 -262q113 -88 280 -88q189 0 344 82l-18 -117q-147 -72 -344 -72q-79 0 -153.5 19.5t-139.5 61.5t-110 102t-64 146.5t-2 189.5zM197 537h716 q10 37 11 76.5t-6.5 80.5t-29 77.5t-53.5 65.5t-84 45.5t-118 16.5q-152 0 -277 -96q-125 -98 -159 -266zM475 1423h141l140 -290h-125z" />
<glyph unicode="&#xe9;" horiz-adv-x="1120" d="M74 496q37 240 200 374q165 136 359 136q106 0 187 -34.5t127 -91.5t68.5 -131t17 -155t-33.5 -160h-817q-15 -174 99 -262q113 -88 280 -88q189 0 344 82l-18 -117q-147 -72 -344 -72q-79 0 -153.5 19.5t-139.5 61.5t-110 102t-64 146.5t-2 189.5zM197 537h716 q10 37 11 76.5t-6.5 80.5t-29 77.5t-53.5 65.5t-84 45.5t-118 16.5q-152 0 -277 -96q-125 -98 -159 -266zM563 1133l230 290h147l-248 -290h-129z" />
<glyph unicode="&#xea;" horiz-adv-x="1120" d="M74 496q37 240 200 374q165 136 359 136q106 0 187 -34.5t127 -91.5t68.5 -131t17 -155t-33.5 -160h-817q-15 -174 99 -262q113 -88 280 -88q189 0 344 82l-18 -117q-147 -72 -344 -72q-79 0 -153.5 19.5t-139.5 61.5t-110 102t-64 146.5t-2 189.5zM197 537h716 q10 37 11 76.5t-6.5 80.5t-29 77.5t-53.5 65.5t-84 45.5t-118 16.5q-152 0 -277 -96q-125 -98 -159 -266zM334 1135l309 280h105l221 -280h-127l-156 192l-215 -192h-137z" />
<glyph unicode="&#xeb;" horiz-adv-x="1120" d="M74 496q37 240 200 374q165 136 359 136q106 0 187 -34.5t127 -91.5t68.5 -131t17 -155t-33.5 -160h-817q-15 -174 99 -262q113 -88 280 -88q189 0 344 82l-18 -117q-147 -72 -344 -72q-79 0 -153.5 19.5t-139.5 61.5t-110 102t-64 146.5t-2 189.5zM197 537h716 q10 37 11 76.5t-6.5 80.5t-29 77.5t-53.5 65.5t-84 45.5t-118 16.5q-152 0 -277 -96q-125 -98 -159 -266zM379 1270q6 31 33 54.5t59 23.5q36 0 59 -28.5t17 -64.5q-4 -32 -31 -54.5t-59 -22.5q-38 0 -61 27.5t-17 64.5zM791 1270q6 31 33 54.5t59 23.5q36 0 58.5 -28.5 t16.5 -64.5q-4 -32 -31 -54.5t-59 -22.5q-38 0 -60.5 27.5t-16.5 64.5z" />
<glyph unicode="&#xec;" horiz-adv-x="452" d="M74 0l155 983h117l-156 -983h-116zM166 1423h141l84 -290h-117z" />
<glyph unicode="&#xed;" horiz-adv-x="452" d="M74 0l155 983h117l-156 -983h-116zM219 1133l230 290h147l-248 -290h-129z" />
<glyph unicode="&#xee;" horiz-adv-x="452" d="M27 1135l274 280h105l186 -280h-125l-121 192l-182 -192h-137zM74 0l155 983h117l-156 -983h-116z" />
<glyph unicode="&#xef;" horiz-adv-x="452" d="M74 0l155 983h117l-156 -983h-116zM90 1270q6 29 30.5 50t53.5 21q35 0 56.5 -25.5t15.5 -60.5q-4 -29 -29.5 -50t-56.5 -21q-35 0 -55.5 25.5t-14.5 60.5zM406 1270q6 30 30 50.5t53 20.5q35 0 56.5 -25.5t15.5 -60.5q-4 -29 -29.5 -50t-56.5 -21q-35 0 -55 25.5 t-14 60.5z" />
<glyph unicode="&#xf0;" horiz-adv-x="1218" d="M72 463q30 194 186 323q157 127 348 127q157 0 268.5 -78.5t131.5 -207.5q0 7 3 26t3 29q27 420 -314 573l-247 -215l-60 68l211 180q-116 35 -276 35l12 111q196 0 354 -64l207 176l57 -67l-176 -152q407 -211 318 -784q-44 -271 -205 -416q-163 -150 -389 -150 q-218 0 -342 136q-125 131 -90 350zM186 449q-26 -163 63.5 -262t260.5 -99q159 0 273.5 89t166.5 245q24 177 -69 280q-95 103 -260 103t-287 -98q-124 -103 -148 -258z" />
<glyph unicode="&#xf1;" horiz-adv-x="1196" d="M68 0l155 983h105l-31 -182q187 205 422 205q173 0 264 -111q92 -115 66 -293l-97 -602h-116l94 596q24 145 -42 224t-198 79q-110 0 -217 -64t-184 -163l-105 -672h-116zM365 1145q1 88 48.5 139t118.5 51q66 0 170 -49q101 -49 142 -49q84 0 84 86h100 q-1 -88 -48.5 -138t-121.5 -50q-67 0 -168 49t-141 49q-39 0 -61.5 -23.5t-22.5 -64.5h-100z" />
<glyph unicode="&#xf2;" horiz-adv-x="1214" d="M76 502q37 236 211 370q175 134 383 134q206 0 342 -142q134 -146 94 -383q-37 -237 -209 -368q-177 -136 -385 -136q-97 0 -183.5 36t-149.5 100.5t-92 166t-11 222.5zM188 487q-27 -184 70 -290q95 -109 262 -109q174 0 309 111q134 110 164 297q27 182 -67 290 q-100 109 -264 109q-174 0 -310 -109q-137 -113 -164 -299zM504 1417h141l139 -291h-125z" />
<glyph unicode="&#xf3;" horiz-adv-x="1214" d="M76 502q37 236 211 370q175 134 383 134q206 0 342 -142q134 -146 94 -383q-37 -237 -209 -368q-177 -136 -385 -136q-97 0 -183.5 36t-149.5 100.5t-92 166t-11 222.5zM188 487q-27 -184 70 -290q95 -109 262 -109q174 0 309 111q134 110 164 297q27 182 -67 290 q-100 109 -264 109q-174 0 -310 -109q-137 -113 -164 -299zM592 1126l229 291h148l-248 -291h-129z" />
<glyph unicode="&#xf4;" horiz-adv-x="1214" d="M76 502q37 236 211 370q175 134 383 134q206 0 342 -142q134 -146 94 -383q-37 -237 -209 -368q-177 -136 -385 -136q-97 0 -183.5 36t-149.5 100.5t-92 166t-11 222.5zM188 487q-27 -184 70 -290q95 -109 262 -109q174 0 309 111q134 110 164 297q27 182 -67 290 q-100 109 -264 109q-174 0 -310 -109q-137 -113 -164 -299zM362 1128l310 281h104l221 -281h-127l-155 193l-215 -193h-138z" />
<glyph unicode="&#xf5;" horiz-adv-x="1214" d="M76 502q37 236 211 370q175 134 383 134q206 0 342 -142q134 -146 94 -383q-37 -237 -209 -368q-177 -136 -385 -136q-97 0 -183.5 36t-149.5 100.5t-92 166t-11 222.5zM188 487q-27 -184 70 -290q95 -109 262 -109q174 0 309 111q134 110 164 297q27 182 -67 290 q-100 109 -264 109q-174 0 -310 -109q-137 -113 -164 -299zM360 1139q1 88 49 139t119 51q66 0 170 -49q101 -49 142 -49q84 0 84 86h100q-1 -89 -48.5 -139t-121.5 -50q-65 0 -168 50q-101 49 -141 49q-39 0 -61.5 -23.5t-22.5 -64.5h-101z" />
<glyph unicode="&#xf6;" horiz-adv-x="1214" d="M76 502q37 236 211 370q175 134 383 134q206 0 342 -142q134 -146 94 -383q-37 -237 -209 -368q-177 -136 -385 -136q-97 0 -183.5 36t-149.5 100.5t-92 166t-11 222.5zM188 487q-27 -184 70 -290q95 -109 262 -109q174 0 309 111q134 110 164 297q27 182 -67 290 q-100 109 -264 109q-174 0 -310 -109q-137 -113 -164 -299zM408 1264q6 31 33 54t59 23q36 0 58.5 -28t16.5 -64q-4 -32 -31 -55t-59 -23q-38 0 -60.5 28t-16.5 65zM819 1264q6 31 33 54t59 23q36 0 59 -28t17 -64q-4 -32 -31 -55t-59 -23q-38 0 -61 28t-17 65z" />
<glyph unicode="&#xf7;" horiz-adv-x="1300" d="M170 662l16 110h983l-16 -110h-983zM516 264q12 72 86 72q39 0 60 -23t14 -63q-9 -72 -86 -72q-38 0 -59 23t-15 63zM664 1180q4 34 28 52.5t58 18.5q39 0 59 -22.5t14 -63.5q-12 -71 -88 -71q-37 0 -57.5 24t-13.5 62z" />
<glyph unicode="&#xf8;" horiz-adv-x="1214" d="M37 -121l170 209q-175 149 -131 414q37 236 211 370q175 134 383 134q124 0 235 -60l133 166h107l-172 -211q174 -151 133 -420q-37 -237 -209 -368q-177 -136 -385 -136q-133 0 -240 64l-129 -162h-106zM188 487q-34 -195 91 -311l550 680q-68 39 -170 39 q-171 0 -307 -109q-137 -113 -164 -299zM346 129q77 -41 174 -41q174 0 309 111q137 110 164 297q34 199 -94 315z" />
<glyph unicode="&#xf9;" horiz-adv-x="1193" d="M115 385l94 598h117l-95 -596q-24 -145 41.5 -224t198.5 -79q118 0 222 63t177 166l107 670h117l-156 -983h-104l30 182q-71 -89 -181.5 -147t-227.5 -58q-180 0 -274.5 112.5t-65.5 295.5zM483 1423h142l139 -290h-125z" />
<glyph unicode="&#xfa;" horiz-adv-x="1193" d="M115 385l94 598h117l-95 -596q-24 -145 41.5 -224t198.5 -79q118 0 222 63t177 166l107 670h117l-156 -983h-104l30 182q-71 -89 -181.5 -147t-227.5 -58q-180 0 -274.5 112.5t-65.5 295.5zM571 1133l230 290h147l-248 -290h-129z" />
<glyph unicode="&#xfb;" horiz-adv-x="1193" d="M115 385l94 598h117l-95 -596q-24 -145 41.5 -224t198.5 -79q118 0 222 63t177 166l107 670h117l-156 -983h-104l30 182q-71 -89 -181.5 -147t-227.5 -58q-180 0 -274.5 112.5t-65.5 295.5zM342 1135l309 280h105l221 -280h-127l-156 192l-215 -192h-137z" />
<glyph unicode="&#xfc;" horiz-adv-x="1193" d="M115 385l94 598h117l-95 -596q-24 -145 41.5 -224t198.5 -79q118 0 222 63t177 166l107 670h117l-156 -983h-104l30 182q-71 -89 -181.5 -147t-227.5 -58q-180 0 -274.5 112.5t-65.5 295.5zM387 1270q6 31 33 54.5t59 23.5q36 0 59 -28.5t17 -64.5q-4 -32 -31 -54.5 t-59 -22.5q-38 0 -61 27.5t-17 64.5zM799 1270q6 31 33 54.5t59 23.5q36 0 59 -28.5t17 -64.5q-4 -32 -31 -54.5t-59 -22.5q-38 0 -61 27.5t-17 64.5z" />
<glyph unicode="&#xfd;" horiz-adv-x="1095" d="M-61 -459l14 99q42 -11 82 -11q86 0 159 60.5t152 193.5l70 117l-328 983h117l282 -864l506 864h127l-680 -1147q-184 -309 -395 -309q-63 0 -106 14zM512 1133l229 290h148l-248 -290h-129z" />
<glyph unicode="&#xfe;" horiz-adv-x="1267" d="M-4 -451l299 1885h117l-105 -652q172 224 438 224q209 0 330 -148q119 -148 84 -377q-34 -223 -194 -362q-160 -142 -371 -142q-137 0 -234 63t-143 171l-104 -662h-117zM240 354q27 -119 121 -194.5t227 -75.5q169 0 299 109q127 109 157 296q30 183 -61 297 q-94 113 -256 113q-136 0 -256 -78t-188 -200z" />
<glyph unicode="&#xff;" horiz-adv-x="1095" d="M-61 -459l14 99q42 -11 82 -11q86 0 159 60.5t152 193.5l70 117l-328 983h117l282 -864l506 864h127l-680 -1147q-184 -309 -395 -309q-63 0 -106 14zM328 1270q6 31 33 54.5t59 23.5q36 0 59 -28.5t17 -64.5q-4 -32 -31 -54.5t-59 -22.5q-38 0 -61 27.5t-17 64.5z M739 1270q6 31 33 54.5t59 23.5q36 0 59 -28.5t17 -64.5q-4 -32 -31 -54.5t-59 -22.5q-38 0 -61 27.5t-17 64.5z" />
<glyph unicode="&#x152;" horiz-adv-x="2093" d="M121 758q47 282 276 489q229 209 557 209q146 0 240 -24l913 2l-18 -117h-768l-86 -537h709l-19 -116h-708l-87 -547h781l-19 -117l-899 -2q-102 -21 -221 -21q-175 0 -314.5 65.5t-219.5 178.5q-80 109 -111 249.5t-6 287.5zM230.5 579q7.5 -81 30.5 -153.5t71 -133.5 t111 -105.5t149 -69.5t186 -25q112 0 228 29l188 1190q-82 30 -246 30q-280 0 -473 -178t-233 -420q-19 -83 -11.5 -164z" />
<glyph unicode="&#x153;" horiz-adv-x="2017" d="M76 504q37 234 209 368q175 134 379 134q150 0 260.5 -80t146.5 -219q67 143 192 221t271 78q105 0 185.5 -34.5t126.5 -92.5t68 -132.5t17 -156t-33 -160.5h-808q-6 -87 23 -156.5t83 -111t122.5 -61.5t143.5 -17q179 0 342 82l-20 -117q-147 -72 -344 -72 q-161 0 -279.5 77.5t-152.5 219.5q-74 -144 -205.5 -220.5t-294.5 -76.5q-204 0 -336 144q-133 145 -96 383zM188 487q-27 -184 70 -290q95 -109 258 -109q175 0 307 111q132 108 162 297q27 187 -65 292q-94 107 -263 107t-305 -109q-137 -113 -164 -299zM1106 532h706 q10 38 11.5 78.5t-5.5 82.5t-28 78.5t-53.5 65.5t-84 45.5t-116.5 16.5q-153 0 -272 -98q-123 -99 -158 -269z" />
<glyph unicode="&#x178;" horiz-adv-x="1316" d="M168 1434h127l371 -758l612 758h139l-702 -875l-90 -559h-123l90 559zM524 1720q6 31 33 54.5t59 23.5q36 0 59 -28t17 -64q-4 -32 -31 -55t-59 -23q-38 0 -61 27.5t-17 64.5zM936 1720q6 31 33 54.5t59 23.5q36 0 59 -28t17 -64q-4 -32 -31 -55t-59 -23q-38 0 -61 27.5 t-17 64.5z" />
<glyph unicode="&#x2c6;" horiz-adv-x="612" d="M195 1585l309 281h104l221 -281h-127l-155 193l-215 -193h-137z" />
<glyph unicode="&#x2dc;" horiz-adv-x="681" d="M233 1595q1 88 49 139.5t119 51.5q66 0 170 -49q101 -49 142 -49q84 0 84 86h100q-1 -89 -48.5 -139t-121.5 -50q-67 0 -168 49t-141 49q-39 0 -61.5 -23.5t-22.5 -64.5h-101z" />
<glyph unicode="&#x2000;" horiz-adv-x="968" />
<glyph unicode="&#x2001;" horiz-adv-x="1937" />
<glyph unicode="&#x2002;" horiz-adv-x="968" />
<glyph unicode="&#x2003;" horiz-adv-x="1937" />
<glyph unicode="&#x2004;" horiz-adv-x="645" />
<glyph unicode="&#x2005;" horiz-adv-x="484" />
<glyph unicode="&#x2006;" horiz-adv-x="322" />
<glyph unicode="&#x2007;" horiz-adv-x="322" />
<glyph unicode="&#x2008;" horiz-adv-x="242" />
<glyph unicode="&#x2009;" horiz-adv-x="387" />
<glyph unicode="&#x200a;" horiz-adv-x="107" />
<glyph unicode="&#x2010;" horiz-adv-x="995" d="M115 449l16 110h721l-18 -110h-719z" />
<glyph unicode="&#x2011;" horiz-adv-x="995" d="M115 449l16 110h721l-18 -110h-719z" />
<glyph unicode="&#x2012;" horiz-adv-x="995" d="M115 449l16 110h721l-18 -110h-719z" />
<glyph unicode="&#x2013;" horiz-adv-x="1171" d="M115 449l16 110h897l-18 -110h-895z" />
<glyph unicode="&#x2014;" horiz-adv-x="1550" d="M115 449l16 110h1276l-16 -110h-1276z" />
<glyph unicode="&#x2018;" horiz-adv-x="425" d="M162 977l207 457h98l-180 -457h-125z" />
<glyph unicode="&#x2019;" horiz-adv-x="419" d="M168 977l180 457h125l-209 -457h-96z" />
<glyph unicode="&#x201a;" horiz-adv-x="446" d="M-74 -301l183 459h122l-208 -459h-97z" />
<glyph unicode="&#x201c;" horiz-adv-x="698" d="M162 977l207 457h98l-180 -457h-125zM434 977l207 457h98l-180 -457h-125z" />
<glyph unicode="&#x201d;" horiz-adv-x="694" d="M168 977l180 457h125l-209 -457h-96zM442 977l181 457h125l-209 -457h-97z" />
<glyph unicode="&#x201e;" horiz-adv-x="718" d="M-74 -301l183 459h122l-208 -459h-97zM199 -301l182 459h123l-209 -459h-96z" />
<glyph unicode="&#x2022;" horiz-adv-x="645" d="M209 725q7 56 48 88.5t97 32.5q58 0 91 -37.5t26 -99.5q-7 -56 -48 -88.5t-97 -32.5q-58 0 -91 37.5t-26 99.5z" />
<glyph unicode="&#x2026;" horiz-adv-x="1091" d="M53 72q4 31 29 51t57 20q39 0 60 -24t14 -62q-12 -73 -86 -73q-37 0 -59 25t-15 63zM391 72q4 31 29 51t57 20q39 0 60 -24t14 -62q-12 -73 -86 -73q-37 0 -59 25t-15 63zM729 72q4 31 29 51t57 20q39 0 60 -24t14 -62q-12 -73 -88 -73q-36 0 -57.5 25.5t-14.5 62.5z" />
<glyph unicode="&#x202f;" horiz-adv-x="387" />
<glyph unicode="&#x2039;" horiz-adv-x="593" d="M80 479l4 29l301 346h127l-315 -362l198 -363h-123z" />
<glyph unicode="&#x203a;" horiz-adv-x="595" d="M49 129l316 363l-197 362h121l194 -350l-6 -29l-301 -346h-127z" />
<glyph unicode="&#x205f;" horiz-adv-x="484" />
<glyph unicode="&#x20ac;" horiz-adv-x="1484" d="M72 504l16 102h162q0 68 8 115q12 61 12 65h-153l16 103h166q92 257 315 391q225 135 473 135q212 0 381 -100l-20 -115q-147 100 -361 100q-209 0 -391 -102t-268 -309h750l-17 -103h-766q-22 -85 -22 -180h760l-17 -102h-735q30 -188 176 -301q144 -111 338 -111 q243 0 414 103l-19 -127q-180 -91 -411 -91q-241 0 -416 144q-177 142 -207 383h-184z" />
<glyph unicode="&#x2122;" horiz-adv-x="1351" d="M205 1366l10 68h434l-10 -68h-180l-72 -451h-74l72 451h-180zM668 915l84 519h79l154 -295l250 295h86l-82 -519h-72l66 412l-236 -272h-43l-147 272l-68 -412h-71z" />
<glyph unicode="&#x25fc;" horiz-adv-x="983" d="M0 0v983h983v-983h-983z" />
<glyph unicode="&#xfb01;" horiz-adv-x="1126" d="M92 874l17 109h178l24 143q24 157 134 243.5t272 86.5q171 0 305 -82l-18 -110q-133 86 -281 86q-121 0 -200 -59.5t-97 -172.5l-23 -135h617l-156 -983h-116l139 874h-502l-137 -874h-117l139 874h-178z" />
<glyph unicode="&#xfb02;" horiz-adv-x="1146" d="M92 874l17 109h178l24 143q24 157 135.5 243.5t274.5 86.5q143 0 268 -61l2 12l121 31l-227 -1438h-117l205 1288q-115 62 -250 62q-123 0 -201 -59t-96 -173l-23 -135h345l-17 -109h-346l-137 -874h-117l139 874h-178z" />
<glyph unicode="&#xfb03;" horiz-adv-x="1761" d="M92 874l17 109h178l18 117q24 157 137 243.5t281 86.5q161 0 311 -99q115 139 324 139q158 0 299 -81l-19 -113q-127 86 -278 86q-122 0 -201.5 -62t-97.5 -182l-23 -135h617l-156 -983h-117l140 874h-502l-137 -874h-117l139 874h-520l-137 -874h-117l139 874h-178z M403 983h519l24 143q10 63 35 115q-115 80 -254 80q-126 0 -206 -59t-99 -170z" />
<glyph unicode="&#xfb04;" horiz-adv-x="1781" d="M92 874l17 109h178l18 117q14 114 89.5 195.5t179 113t228 13.5t230.5 -91q115 139 320 139q154 0 274 -63l2 12l121 31l-229 -1450h-117l207 1300q-118 62 -250 62q-124 0 -202.5 -61.5t-96.5 -182.5l-23 -135h344l-16 -109h-346l-137 -874h-117l139 874h-520l-137 -874 h-117l139 874h-178zM403 983h519l24 143q9 64 35 115q-112 80 -254 80q-124 0 -205.5 -59t-99.5 -170z" />
</font>
</defs>
</svg>
