<?xml version="1.0" standalone="no"?>
<!DOCTYPE svg PUBLIC "-//W3C//DTD SVG 1.1//EN" "http://www.w3.org/Graphics/SVG/1.1/DTD/svg11.dtd" >
<svg xmlns="http://www.w3.org/2000/svg">
<metadata></metadata>
<defs>
<font id="mullerregular_16" horiz-adv-x="1216" >
<font-face units-per-em="2048" ascent="1552" descent="-496" />
<missing-glyph horiz-adv-x="376" />
<glyph horiz-adv-x="0" />
<glyph unicode="&#xd;" horiz-adv-x="681" />
<glyph unicode=" "  horiz-adv-x="376" />
<glyph unicode="&#x09;" horiz-adv-x="376" />
<glyph unicode="&#xa0;" horiz-adv-x="376" />
<glyph unicode="!" horiz-adv-x="634" d="M20 227q17 99 84.5 151t165.5 52q113 0 175 -70t44 -190q-17 -100 -84 -151.5t-167 -51.5q-114 0 -176 69.5t-42 190.5zM129 563l90 871h461l-188 -871h-363z" />
<glyph unicode="&#x22;" horiz-adv-x="995" d="M127 887l88 547h375l-158 -547h-305zM614 887l88 547h375l-157 -547h-306z" />
<glyph unicode="#" horiz-adv-x="1497" d="M6 258l47 291h193l114 297h-157l47 291h227l101 258h383l-101 -258h162l100 258h383l-102 -258h121l-47 -291h-191l-115 -297h158l-47 -291h-227l-101 -258h-383l101 258h-160l-102 -258h-383l102 258h-123zM629 549h162l114 297h-162z" />
<glyph unicode="$" horiz-adv-x="1302" d="M2 109l66 409q204 -162 475 -162q187 0 196 68q4 24 -16.5 44.5t-58 36.5t-86.5 32.5t-103 37.5t-107.5 46t-99.5 63t-79 84.5t-46.5 114t-1.5 147.5q24 156 151.5 257t317.5 128l37 221h324l-35 -227q191 -26 338 -109l-62 -395q-188 135 -434 135q-153 0 -162 -59 q-4 -32 36 -55t135.5 -55t150.5 -58q67 -28 118 -62.5t94.5 -85.5t61.5 -122.5t5 -159.5q-56 -360 -508 -410l-35 -217h-324l35 224q-213 30 -383 129z" />
<glyph unicode="%" horiz-adv-x="1978" d="M129 1106q28 174 151 267t302 93q177 0 288 -108q108 -111 78 -309q-28 -172 -151.5 -266.5t-298.5 -94.5q-183 0 -291 111q-112 109 -78 307zM324 -123l1103 1679h267l-1104 -1679h-266zM436 1067q-9 -96 82 -96q54 0 85 32.5t36 83.5q9 97 -82 97q-54 0 -84.5 -32 t-36.5 -85zM1069 385q29 174 151.5 268.5t299.5 94.5q182 0 290 -111t78 -309q-29 -173 -152 -267t-300 -94q-183 0 -291 111q-110 110 -76 307zM1374 348q-9 -98 82 -98q106 0 121 117q9 98 -82 98q-54 0 -85 -33t-36 -84z" />
<glyph unicode="&#x26;" horiz-adv-x="1521" d="M25 383q19 124 106.5 214.5t239.5 168.5q-140 178 -113 326q27 167 182 272q153 102 365 102q228 0 356 -116q130 -118 96 -287q-41 -210 -376 -387l145 -176q82 107 94 227h373q-27 -253 -260 -473l213 -254h-412l-63 74q-223 -107 -463 -107q-250 0 -381 113 q-132 114 -102 303zM438 389q-10 -50 32 -80.5t117.5 -30.5t176.5 33l-193 224q-124 -65 -133 -146zM631 1057q-9 -57 59 -152q186 77 201 166q6 43 -23.5 75t-83.5 32q-64 0 -105.5 -34t-47.5 -87z" />
<glyph unicode="'" horiz-adv-x="507" d="M127 887l88 547h375l-158 -547h-305z" />
<glyph unicode="(" horiz-adv-x="710" d="M76 745q42 246 164 484q123 246 299 434h319q-300 -519 -371 -944q-68 -511 62 -950h-299q-120 215 -167 471t-7 505z" />
<glyph unicode=")" horiz-adv-x="714" d="M-109 -229q300 510 371 954q77 484 -61 940h301q116 -207 166 -469q48 -267 8 -516q-41 -241 -162 -477q-122 -241 -301 -432h-322z" />
<glyph unicode="*" horiz-adv-x="1093" d="M109 956l190 357l193 -125l2 246h383l-82 -246l221 125l82 -357l-244 -45l147 -153l-333 -211l-78 246l-156 -246l-287 211l193 153z" />
<glyph unicode="+" horiz-adv-x="1132" d="M51 547l55 344h336l54 334h344l-54 -334h336l-55 -344h-336l-53 -336h-344l53 336h-336z" />
<glyph unicode="," horiz-adv-x="595" d="M-160 -293l244 629h420l-336 -629h-328z" />
<glyph unicode="-" horiz-adv-x="978" d="M47 326l53 333h799l-53 -333h-799z" />
<glyph unicode="." horiz-adv-x="577" d="M-6 227q17 99 84.5 151t165.5 52q113 0 175 -70t44 -190q-17 -100 -84.5 -151.5t-167.5 -51.5q-114 0 -175.5 69.5t-41.5 190.5z" />
<glyph unicode="/" horiz-adv-x="1036" d="M-74 -125l914 1684h311l-913 -1684h-312z" />
<glyph unicode="0" horiz-adv-x="1441" d="M84 725q18 115 55.5 217t101 191.5t147 153.5t198 101t248.5 37q214 0 356 -104t188 -277q47 -171 13 -376q-18 -115 -55.5 -217t-101 -191.5t-147 -154t-198 -101.5t-248.5 -37q-215 0 -358 104.5t-187 276.5q-46 169 -12 377zM545 696q-26 -166 5.5 -243.5t125.5 -77.5 q100 0 160.5 76.5t89.5 244.5q52 322 -129 322q-99 0 -160.5 -77t-91.5 -245z" />
<glyph unicode="1" horiz-adv-x="1028" d="M-10 0l61 387h240l88 559l-238 -88l64 402l356 133h344l-160 -1006h216l-62 -387h-909z" />
<glyph unicode="2" horiz-adv-x="1273" d="M-23 2l33 205q38 217 178 342q72 63 131 104q57 40 156 95q25 15 91.5 49.5t74.5 38.5q4 2 24 15t33 21q54 38 62 80q5 33 -22.5 52.5t-80.5 19.5q-227 0 -499 -184l67 442q253 143 525 143q87 0 164.5 -16.5t145 -54t113 -92t65.5 -136t5 -180.5q-22 -133 -90 -207 q-76 -83 -207 -161q-28 -19 -155 -91q-10 -5 -60 -36q-60 -41 -72 -64h498l-61 -385h-1119z" />
<glyph unicode="3" horiz-adv-x="1236" d="M-4 66l61 391q198 -103 428 -103q211 3 226 105q5 37 -19 55t-78 18h-266l58 351h190q122 0 137 67q12 84 -135 84q-224 0 -442 -129l63 406q212 114 475 114q228 0 375 -108q147 -113 113 -320q-30 -204 -264 -278q118 -31 180.5 -126t40.5 -237q-22 -135 -116 -227 t-228 -127q-120 -35 -291 -35q-283 0 -508 99z" />
<glyph unicode="4" horiz-adv-x="1388" d="M-27 186l60 379l784 828h467l-133 -840h172l-57 -367h-174l-29 -186h-428l31 186h-693zM481 553h242l49 305z" />
<glyph unicode="5" horiz-adv-x="1232" d="M-12 66l57 366q148 -86 350 -86q266 0 287 129q8 58 -49.5 90.5t-171.5 32.5q-188 0 -342 -45l174 840h944l-61 -385l-547 2l-29 -140q58 9 115 9q73 0 140 -15.5t127 -50.5t100.5 -87.5t58 -132t2.5 -177.5q-17 -100 -64 -178.5t-112.5 -128.5t-151.5 -82.5t-175 -46 t-189 -13.5q-266 0 -463 99z" />
<glyph unicode="6" horiz-adv-x="1370" d="M86 729q29 178 108 317t195 222q225 157 506 157q234 0 420 -98l-55 -348q-141 84 -299 84q-285 0 -388 -219q145 65 301 65q89 0 170.5 -30.5t145 -87.5t93 -150t11.5 -207q-37 -234 -209 -350q-175 -117 -417 -117q-337 0 -487.5 200.5t-94.5 561.5zM514 516 q1 -111 39.5 -157t112.5 -46q75 0 125.5 35.5t62.5 104.5q7 59 -28.5 93t-102.5 34q-99 0 -209 -64z" />
<glyph unicode="7" horiz-adv-x="1212" d="M51 0l639 1008h-581l61 385h1137l-47 -303l-691 -1090h-518z" />
<glyph unicode="8" horiz-adv-x="1363" d="M29 408q17 98 85 183.5t167 137.5q-131 122 -101 309q27 158 185 273q156 114 432 114q264 0 407 -131q140 -131 113 -297q-17 -90 -66 -150t-149 -122q102 -63 143.5 -146.5t22.5 -213.5q-27 -170 -195 -283q-171 -115 -475 -115q-309 0 -453 129q-143 128 -116 312z M483 440q-5 -54 37.5 -92.5t118.5 -38.5q69 0 115.5 27t54.5 65q6 51 -22 76t-99 49q-32 13 -61.5 26t-43.5 19t-16 7q-75 -63 -84 -138zM604 993q-9 -68 103 -114q11 -4 49.5 -18.5t50.5 -18.5q75 63 84 133q5 44 -32.5 76t-102.5 32q-62 0 -103.5 -24.5t-48.5 -65.5z" />
<glyph unicode="9" horiz-adv-x="1368" d="M82 63l57 351q137 -84 307 -84q152 0 243.5 50.5t141.5 170.5q-141 -66 -294 -66q-96 0 -180 30t-148 86.5t-92.5 149t-10.5 207.5q38 234 213 351q174 116 416 116q332 0 484.5 -202t95.5 -559q-55 -354 -275 -525q-217 -172 -522 -172q-246 0 -436 96zM551 944 q-10 -60 29 -96.5t108 -36.5q103 0 203 59q-6 207 -164 207q-71 0 -120 -35.5t-56 -97.5z" />
<glyph unicode=":" horiz-adv-x="602" d="M10 219q17 95 82 145t160 50q109 0 169 -67t42 -185q-17 -95 -82.5 -145t-161.5 -50q-108 0 -167.5 67t-41.5 185zM102 788q13 94 78.5 144.5t161.5 50.5q109 0 170 -67.5t41 -182.5q-13 -95 -79.5 -145.5t-162.5 -50.5q-108 0 -167.5 66.5t-41.5 184.5z" />
<glyph unicode=";" horiz-adv-x="628" d="M-150 -293l244 629h420l-336 -629h-328zM119 801q17 100 84.5 151.5t167.5 51.5q112 0 174.5 -69.5t44.5 -189.5q-17 -100 -84.5 -152t-167.5 -52q-112 0 -174.5 70t-44.5 190z" />
<glyph unicode="&#x3c;" horiz-adv-x="1048" d="M49 502l68 430l915 274l-59 -381l-537 -118l500 -109l-59 -373z" />
<glyph unicode="=" horiz-adv-x="1282" d="M82 319l53 332h1028l-51 -332h-1030zM156 782l53 332h1028l-51 -332h-1030z" />
<glyph unicode="&#x3e;" horiz-adv-x="1046" d="M53 223l62 383l538 121l-501 113l59 368l825 -276l-67 -430z" />
<glyph unicode="?" horiz-adv-x="1040" d="M129 965l66 415q195 86 403 86q78 0 148 -11.5t136 -41t111 -73.5t66 -115t6 -160q-10 -61 -44 -120.5t-78.5 -104.5t-95.5 -91t-93.5 -81.5t-74 -73t-36.5 -68.5h-397q13 85 63.5 165t112.5 130q151 124 160 174q7 36 -18.5 53t-82.5 17q-159 0 -352 -100zM162 227 q17 99 84.5 151t165.5 52q113 0 175 -70t44 -190q-17 -100 -84.5 -151.5t-167.5 -51.5q-114 0 -175.5 69.5t-41.5 190.5z" />
<glyph unicode="@" horiz-adv-x="2136" d="M43 520q29 184 122 353t238 303q147 136 354 213t441 77q278 0 477.5 -115.5t296.5 -301.5q128 -234 88 -502q-41 -259 -188.5 -396t-372.5 -137q-130 0 -217 51t-121 134q-101 -131 -274 -131q-76 0 -138.5 27t-101.5 72t-65 103.5t-29 121t6 124.5q21 152 129 272 q107 119 277 119q163 0 252 -135l18 111h311l-76 -484q-15 -104 66 -104q74 0 112.5 67t63.5 209q29 199 -86 373q-59 89 -174.5 142t-265.5 53q-314 0 -529 -185q-215 -188 -258 -458q-22 -133 1.5 -242.5t82 -183.5t147 -125t193.5 -74t224 -23q233 0 460 68l-45 -330 q-186 -67 -440 -67q-172 0 -329.5 39.5t-290 122t-223.5 199t-128.5 281.5t-7.5 359zM913 481q-8 -61 16.5 -103t82.5 -42q87 0 133 70l29 172q-21 63 -95 63q-69 0 -113.5 -46.5t-52.5 -113.5z" />
<glyph unicode="A" horiz-adv-x="1566" d="M-100 0l762 1434h509l308 -1434h-461l-33 190h-506l-92 -190h-487zM641 532h289l-51 312q-15 94 -15 184q-32 -110 -69 -182z" />
<glyph unicode="B" horiz-adv-x="1429" d="M12 0l228 1434h698q240 0 367 -102q103 -83 104 -223q0 -32 -6 -67q-18 -107 -76.5 -176.5t-173.5 -111.5q115 -38 171 -134q39 -68 39 -159q0 -37 -7 -78q-35 -217 -203 -299q-173 -84 -432 -84h-709zM541 348h190q149 0 170 119q3 14 3 27q0 36 -22 58q-30 30 -98 30 h-206zM623 874l168 -2q61 0 100.5 29.5t50.5 79.5q2 11 2 21q0 32 -20 54q-26 29 -84 29h-183z" />
<glyph unicode="C" horiz-adv-x="1320" d="M70 739q24 150 90 274t155 207t198 139.5t219 82.5q106 25 212 24h8q241 0 418 -98l-63 -399q-107 88 -297 88q-165 0 -299 -84q-132 -82 -162 -262q-5 -32 -5 -62q0 -114 74 -180q95 -86 240 -86q214 0 383 102l-70 -438q-177 -80 -405 -80q-317 0 -526 185 q-108 93 -154 246q-28 93 -28 199q0 68 12 142z" />
<glyph unicode="D" horiz-adv-x="1521" d="M12 0l228 1434h606q362 0 528 -205q124 -156 124 -385q0 -74 -13 -156q-52 -327 -263.5 -507.5t-572.5 -180.5h-637zM549 397h123q286 0 336 336q9 50 9 91q0 212 -222 212h-146z" />
<glyph unicode="E" horiz-adv-x="1271" d="M12 0l228 1434h1085l-59 -373h-615l-24 -166h540l-55 -348h-541l-26 -170h624l-59 -377h-1098z" />
<glyph unicode="F" horiz-adv-x="1230" d="M12 0l228 1434h1063l-66 -414h-590l-29 -176h533l-66 -402h-530l-70 -442h-473z" />
<glyph unicode="G" horiz-adv-x="1417" d="M72 745q30 185 120 329.5t220 228.5q254 163 546 163q267 0 459 -92l-63 -403q-122 84 -334 84q-174 0 -307 -86q-135 -91 -162 -269q-7 -44 -7 -82q0 -105 56 -157q78 -72 188 -72q38 0 76 10l66 402h442l-119 -744q-209 -90 -469 -90q-159 0 -298 49t-244 142 q-107 94 -153 247q-28 94 -28 200q0 68 11 140z" />
<glyph unicode="H" horiz-adv-x="1548" d="M12 0l228 1434h473l-82 -510h391l80 510h471l-227 -1434h-472l80 510h-389l-80 -510h-473z" />
<glyph unicode="I" horiz-adv-x="688" d="M12 0l228 1434h473l-228 -1434h-473z" />
<glyph unicode="J" horiz-adv-x="1058" d="M-57 43l63 401q106 -41 227 -41q228 0 252 166l72 451h-328l64 414h803l-150 -949q-82 -510 -624 -510q-240 0 -379 68z" />
<glyph unicode="K" horiz-adv-x="1490" d="M12 0l228 1434h473l-82 -508h125l362 508h529l-555 -725l323 -709h-497l-226 512h-127l-80 -512h-473z" />
<glyph unicode="L" horiz-adv-x="1214" d="M12 0l228 1434h473l-162 -1020h614l-67 -414h-1086z" />
<glyph unicode="M" horiz-adv-x="1855" d="M12 0l228 1434h405l297 -639l488 639h450l-227 -1434h-461l106 666l-278 -363h-268l-170 365l-109 -668h-461z" />
<glyph unicode="N" horiz-adv-x="1560" d="M12 0l228 1434h356l424 -691q3 138 22 242l70 449h473l-227 -1434h-357l-421 688q0 -89 -21 -233l-74 -455h-473z" />
<glyph unicode="O" horiz-adv-x="1648" d="M72 745q50 316 278 519q230 202 592 202q365 0 545 -223q141 -175 140 -413q0 -68 -11 -142q-50 -315 -279 -516q-230 -205 -592 -205q-366 0 -546 223q-139 172 -139 410q0 69 12 145zM551 692q-4 -31 -4 -58q0 -98 48 -160q61 -78 189 -79q146 0 241 93t114 253 q4 33 4 63q-1 96 -47 156q-62 78 -191 78q-142 0 -236.5 -93t-117.5 -253z" />
<glyph unicode="P" horiz-adv-x="1409" d="M12 0l228 1434h616q89 0 166 -12.5t148 -40t122 -71t87.5 -105t44.5 -143.5q3 -31 4 -65q0 -56 -9 -120q-42 -269 -214.5 -385.5t-489.5 -116.5h-170l-60 -375h-473zM606 764h146q185 0 206 145q3 15 3 29q0 46 -31 72q-40 34 -117 34h-162z" />
<glyph unicode="Q" horiz-adv-x="1648" d="M72 745q50 316 278 519q230 202 592 202q365 0 545 -223q141 -175 141 -413q0 -68 -12 -142q-41 -252 -195 -432l107 -123l-303 -239l-119 137q-165 -64 -361 -64q-366 0 -546 223q-139 172 -139 410q0 69 12 145zM541 692q-4 -29 -4 -56q0 -103 53 -168q65 -83 196 -83 q33 0 43 2l-100 115l264 233l117 -139q31 61 41 145q3 29 3 56q0 104 -52 169q-66 83 -199 83q-147 0 -245 -96t-117 -261z" />
<glyph unicode="R" horiz-adv-x="1492" d="M12 0l228 1434h655q233 0 397 -113q87 -60 125 -170q24 -69 24 -149q0 -49 -9 -101q-46 -291 -306 -407l281 -494h-500l-221 424h-135l-66 -424h-473zM610 778h172q69 0 120 39.5t61 102.5q2 11 2 21q0 43 -27 72q-33 36 -96 36h-189z" />
<glyph unicode="S" horiz-adv-x="1294" d="M4 109l66 409q212 -156 473 -156q185 0 194 66q4 25 -11 44.5t-49.5 36t-71 30.5t-91 34.5t-94.5 40.5q-44 19 -80.5 40.5t-73.5 51t-61.5 63.5t-44.5 79q-22 44 -24 96q-1 14 0 29q0 41 5 88q30 193 205 301q174 104 404 104q308 0 524 -125l-62 -395q-190 129 -421 129 h-11q-156 0 -162 -65q-2 -22 20 -41.5t60.5 -36.5t88 -35t103 -40.5t106.5 -50t98 -67.5t77.5 -87.5t45.5 -114.5q6 -34 6.5 -70.5t-6.5 -75.5q-70 -424 -652 -424q-328 0 -561 142z" />
<glyph unicode="T" horiz-adv-x="1290" d="M92 1020l66 414h1241l-66 -414h-385l-162 -1020h-471l162 1020h-385z" />
<glyph unicode="U" horiz-adv-x="1517" d="M88 571l137 863h473l-139 -867q-3 -24 -3 -44q0 -61 29 -91q39 -41 132 -41q200 0 235 203l133 840h471l-139 -891q-95 -576 -745 -576q-102 0 -193.5 20t-173 66t-135.5 114t-78 172q-13 56 -13 119q0 54 9 113z" />
<glyph unicode="V" horiz-adv-x="1523" d="M127 1434h481l123 -879l408 879h522l-752 -1434h-483z" />
<glyph unicode="W" horiz-adv-x="2275" d="M137 1434h492l65 -865l363 865h391l82 -865l348 865h524l-659 -1434h-516l-72 723l-309 -723h-504z" />
<glyph unicode="X" horiz-adv-x="1495" d="M-137 0l622 733l-362 701h532l152 -363l278 363h564l-590 -697l379 -737h-533l-170 389l-309 -389h-563z" />
<glyph unicode="Y" horiz-adv-x="1540" d="M123 1434h504l168 -547l335 547h553l-696 -945l-80 -489h-469l80 489z" />
<glyph unicode="Z" horiz-adv-x="1320" d="M-39 0l47 299l639 721h-489l63 414h1149l-47 -301l-639 -719h549l-66 -414h-1206z" />
<glyph unicode="[" horiz-adv-x="790" d="M-25 -225l297 1884h631l-57 -371h-203l-182 -1141h203l-58 -372h-631z" />
<glyph unicode="\" horiz-adv-x="1011" d="M186 1559h297l379 -1684h-297z" />
<glyph unicode="]" horiz-adv-x="788" d="M-76 -225l58 372h202l183 1141h-203l57 371h631l-297 -1884h-631z" />
<glyph unicode="^" horiz-adv-x="1361" d="M63 659l562 775h381l319 -775h-426l-129 367l-250 -367h-457z" />
<glyph unicode="_" horiz-adv-x="1067" d="M-160 -416l56 346h1067l-56 -346h-1067z" />
<glyph unicode="`" horiz-adv-x="729" d="M293 1876h424l147 -336h-375z" />
<glyph unicode="a" horiz-adv-x="1277" d="M31 520q34 210 166 354q133 142 346 142q104 0 186 -49.5t125 -128.5l23 145h378l-155 -983h-379l16 106q-112 -139 -323 -139q-218 0 -320 164q-73 118 -73 271q0 56 10 118zM467 483q-3 -19 -3 -36q0 -49 24 -85q32 -48 94 -49q88 0 149 76l35 213q-11 31 -40 49.5 t-67 18.5q-76 0 -128 -52.5t-64 -134.5z" />
<glyph unicode="b" horiz-adv-x="1277" d="M-12 0l227 1434h432l-84 -519q119 101 271 101q213 0 315 -164q73 -118 73 -270q0 -57 -10 -119q-35 -211 -161 -352q-132 -144 -342 -144q-108 0 -190.5 46.5t-125.5 123.5l-26 -137h-379zM479 379q28 -66 105 -66q74 0 127 51t65 130q3 21 3 40q0 50 -21 86 q-29 50 -94 50q-85 0 -152 -76z" />
<glyph unicode="c" horiz-adv-x="1003" d="M27 498q34 257 225 389q186 131 422 131q178 0 315 -70l-53 -334q-91 48 -201 48q-106 0 -180.5 -45t-87.5 -132q-2 -14 -3 -27q0 -57 44 -91q52 -41 149 -41q135 0 250 53l-55 -361q-146 -51 -309 -51q-251 0 -402 139q-121 111 -121 299q0 44 7 93z" />
<glyph unicode="d" horiz-adv-x="1275" d="M33 520q30 207 166 352q132 144 344 144q180 0 268 -119l86 537h430l-227 -1434h-379l18 117q-117 -150 -323 -150q-214 0 -316 164q-76 121 -76 278q0 53 9 111zM467 483q-3 -19 -3 -36q0 -50 24 -86q32 -48 94 -48h6q78 0 143 76l35 215q-25 66 -107 66 q-77 0 -128.5 -52t-63.5 -135z" />
<glyph unicode="e" horiz-adv-x="1118" d="M31 528q15 102 58.5 185.5t103 138.5t132.5 93t145 54.5t142 16.5q104 0 187.5 -27t136.5 -73.5t86.5 -107.5t43.5 -131q5 -37 5 -74q-1 -34 -5 -68q-8 -72 -36 -142h-610q30 -125 258 -125q174 0 305 49l-47 -301q-146 -49 -354 -49q-240 0 -408 131q-86 67 -124 179 q-25 74 -26 159q0 44 7 92zM442 592h269q5 19 5 37q0 34 -18 61q-27 41 -90 41q-66 0 -112 -41t-54 -98z" />
<glyph unicode="f" horiz-adv-x="860" d="M55 639l56 344h139l14 96q64 387 479 387q140 0 246 -41l-49 -315q-54 23 -109 23q-125 0 -143 -105l-8 -45h215l-53 -344h-215l-103 -639h-430l101 639h-140z" />
<glyph unicode="g" horiz-adv-x="1277" d="M-8 -393l55 346q160 -86 338 -86q122 0 199 46.5t94 137.5l6 41q-88 -102 -264 -102q-219 0 -322 157q-74 113 -74 269q0 54 9 114q35 209 170 347q136 139 342 139q207 0 309 -164l23 131h378l-145 -934q-47 -278 -225 -405q-183 -127 -424 -127q-269 0 -469 90z M469 489q-3 -19 -3 -36q0 -50 24 -87q32 -48 94 -49q83 0 149 78l35 215q-25 66 -106 66q-76 0 -128.5 -52.5t-64.5 -134.5z" />
<glyph unicode="h" d="M-12 0l227 1434h432l-80 -500q131 82 256 82q185 0 267 -117q62 -91 62 -206q0 -34 -5 -70l-98 -623h-433l91 569q2 13 2 24q0 60 -70 60q-67 0 -125 -55l-94 -598h-432z" />
<glyph unicode="i" horiz-adv-x="600" d="M-10 0l155 983h433l-156 -983h-432zM190 1325q17 94 81.5 143.5t158.5 49.5q106 0 164 -66q44 -50 44 -127q0 -24 -5 -51q-13 -94 -78 -143.5t-160 -49.5q-107 0 -165 66q-45 50 -44 128q0 24 4 50z" />
<glyph unicode="j" horiz-adv-x="602" d="M-274 -442l53 340q41 -13 84 -13q59 0 88.5 27.5t40.5 91.5l155 979h431l-177 -1114q-28 -179 -143 -265.5t-295 -86.5q-141 0 -237 41zM193 1325q17 94 81 143.5t158 49.5q106 0 164 -66q43 -49 43 -127q0 -24 -4 -51q-13 -94 -78 -143.5t-160 -49.5q-106 0 -164 65 q-44 50 -44 128q0 24 4 51z" />
<glyph unicode="k" horiz-adv-x="1218" d="M-12 0l227 1434h432l-123 -766h64l225 315h479l-393 -512l227 -471h-444l-139 332h-72l-51 -332h-432z" />
<glyph unicode="l" horiz-adv-x="602" d="M-10 0l237 1495h432l-237 -1495h-432z" />
<glyph unicode="m" horiz-adv-x="1769" d="M-12 0l155 983h381l-16 -98q51 57 135.5 94t173.5 37q179 0 252 -129q135 129 330 129q175 0 252 -121q54 -89 54 -204q0 -42 -7 -87l-96 -604h-426l94 594q4 30 -12.5 45.5t-47.5 15.5q-54 0 -102 -45q0 -4 -4 -32l-92 -578h-426l94 594q4 29 -12.5 45t-44.5 16 q-67 0 -115 -57l-94 -598h-426z" />
<glyph unicode="n" d="M-12 0l155 983h379l-14 -92q146 125 323 125q179 0 261 -117q61 -91 60 -204q0 -34 -5 -70l-98 -625h-433l91 569q2 13 2 24q0 60 -70 60q-57 0 -125 -53l-94 -600h-432z" />
<glyph unicode="o" d="M31 524q37 239 204.5 365.5t419.5 126.5h21q78 0 150 -20q82 -22 149 -69t113 -113.5t64 -158.5q9 -47 9 -98q0 -48 -8 -98q-41 -247 -213 -367q-174 -125 -414 -125q-116 0 -214 36t-169.5 103.5t-102.5 175.5q-18 63 -18 135q0 51 9 107zM444 481q-2 -15 -2 -29 q0 -50 24 -82q30 -42 95 -42q73 0 119 47t57 127q2 15 2 29q1 51 -23 83q-30 42 -95 41q-73 0 -119.5 -47t-57.5 -127z" />
<glyph unicode="p" horiz-adv-x="1280" d="M-84 -451l229 1434h379l-18 -115q130 148 325 148q216 0 318 -164q74 -119 74 -275q0 -55 -9 -114q-35 -214 -161 -352q-129 -144 -344 -144q-174 0 -277 115l-84 -533h-432zM479 377q27 -64 109 -64q72 0 124 52.5t66 132.5q3 20 3 37q0 49 -21 85q-30 50 -96 50 q-87 0 -150 -78z" />
<glyph unicode="q" horiz-adv-x="1277" d="M31 520q34 210 166 354q133 142 346 142q106 0 188.5 -49.5t122.5 -126.5l23 143h378l-227 -1434h-430l80 506q-94 -88 -264 -88q-218 0 -320 164q-73 118 -73 271q0 56 10 118zM467 483q-3 -19 -3 -36q0 -50 24 -86q32 -48 94 -48h6q78 0 143 76l35 215q-11 27 -41 46.5 t-66 19.5q-74 0 -127 -53t-65 -134z" />
<glyph unicode="r" horiz-adv-x="860" d="M-12 0l155 983h381l-16 -106q109 129 308 129q39 0 81 -5l-63 -397q-55 19 -112 19q-38 0 -74 -8q-94 -20 -144 -80l-84 -535h-432z" />
<glyph unicode="s" horiz-adv-x="1009" d="M-10 57l53 334q60 -51 150.5 -80.5t171.5 -31.5q15 -1 28 -1q83 0 88 33q4 24 -36 45.5t-119.5 51.5t-124.5 55q-67 36 -103 105q-28 53 -29 118q0 20 3 41q40 289 485 289q215 0 389 -86l-49 -312q-140 101 -295 101q-84 0 -90 -39q-3 -20 20.5 -36t63.5 -30t88.5 -31 t95 -43t82.5 -60t53 -90q10 -33 10 -71q0 -26 -5 -55q-13 -86 -62 -148t-125 -93q-137 -56 -340 -56q-231 0 -403 90z" />
<glyph unicode="t" horiz-adv-x="886" d="M37 639l55 344h137l41 264l449 101l-57 -365h219l-56 -344h-219l-37 -231q-2 -11 -1 -21q0 -33 16 -49q22 -22 75 -21q60 0 134 23l-54 -336q-118 -39 -264 -39q-59 0 -112 11t-103 39.5t-83 71.5t-47 112q-7 36 -7 77q0 38 6 80l45 283h-137z" />
<glyph unicode="u" d="M35 365l98 618h432l-90 -563q-2 -14 -2 -26q0 -66 72 -66q71 0 123 55l94 600h432l-156 -983h-381l17 92q-119 -125 -301 -125q-183 0 -271 117q-72 93 -72 215q0 32 5 66z" />
<glyph unicode="v" horiz-adv-x="1230" d="M66 983h438l65 -571l250 571h473l-544 -983h-457z" />
<glyph unicode="w" horiz-adv-x="1732" d="M74 983h422l32 -539l222 539h329l47 -539l201 539h457l-469 -983h-420l-51 485l-213 -485h-410z" />
<glyph unicode="x" horiz-adv-x="1167" d="M-115 0l426 502l-248 481h433l106 -225l166 225h469l-412 -494l262 -489h-452l-100 227l-179 -227h-471z" />
<glyph unicode="y" horiz-adv-x="1234" d="M-57 -440l55 344q64 -23 127 -23q138 0 221 144l-293 958h436l121 -532l211 532h469l-538 -1053q-212 -411 -574 -411q-123 0 -235 41z" />
<glyph unicode="z" horiz-adv-x="1034" d="M-39 0l39 252l393 387h-299l53 344h865l-41 -252l-393 -387h360l-53 -344h-924z" />
<glyph unicode="{" horiz-adv-x="841" d="M27 537l59 366q77 -6 117.5 18t52.5 95l47 303q38 233 213 321q176 89 434 15l-53 -340q-160 46 -195 -172l-32 -215q-35 -204 -219 -213q74 -5 118.5 -69.5t28.5 -168.5l-35 -213q-14 -94 17.5 -128t126.5 -21l-54 -342q-278 -56 -422 55t-114 315l47 291q12 76 -35 90 q-43 13 -102 13z" />
<glyph unicode="|" horiz-adv-x="632" d="M-25 -205l295 1864h428l-295 -1864h-428z" />
<glyph unicode="}" horiz-adv-x="841" d="M-74 -223l54 336q91 -18 134.5 23t61.5 155l33 213q18 102 76 156t145 59q-72 5 -118.5 72t-30.5 165l34 213q14 94 -17 127.5t-126 20.5l55 348q280 56 424 -55q145 -112 111 -320l-47 -295q-6 -35 4 -57t30 -30t46.5 -10.5t54.5 1.5l-57 -364q-147 15 -168 -117 l-50 -303q-37 -230 -206.5 -317t-442.5 -21z" />
<glyph unicode="~" horiz-adv-x="1241" d="M76 475q-4 207 87 316.5t243 109.5q94 0 231 -49q134 -49 162 -49q62 0 65 88h334q6 -207 -85.5 -316.5t-246.5 -109.5q-90 0 -227 49t-164 49q-62 0 -65 -88h-334z" />
<glyph unicode="&#xa1;" horiz-adv-x="612" d="M-92 -451l188 871h363l-90 -871h-461zM102 813q17 99 84.5 151t165.5 52q114 0 175.5 -69.5t43.5 -190.5q-17 -100 -84.5 -151.5t-167.5 -51.5q-112 0 -174.5 70t-42.5 190z" />
<glyph unicode="&#xa2;" horiz-adv-x="1050" d="M37 498q34 257 225 389q186 131 422 131h16l33 211h182l-36 -236q71 -21 120 -45l-53 -334q-67 31 -121 41l-51 -321q63 8 144 45l-56 -361q-68 -24 -143 -36l-37 -228h-182l32 213q-241 6 -387 146q-142 136 -108 385zM477 485q-18 -124 115 -151l49 315 q-146 -41 -164 -164z" />
<glyph unicode="&#xa3;" horiz-adv-x="1247" d="M-25 0l60 369h43q61 0 100 36t47 95l8 49h-139l49 307h140l12 80q37 243 194.5 366t399.5 123q188 0 362 -77l-51 -338q-103 63 -244 63q-192 0 -219 -166l-8 -51h338l-49 -307h-336l-10 -53q-12 -96 -84 -127h561l-59 -369h-1115z" />
<glyph unicode="&#xa4;" horiz-adv-x="1142" d="M35 393l133 123q-42 111 -21 229q15 111 86 201l-92 101l189 172l104 -121q87 37 201 37q119 0 205 -45l151 133l156 -179l-139 -126q43 -108 22 -230q-15 -116 -86 -199l94 -100l-192 -172l-103 117q-87 -35 -200 -35q-117 0 -203 45l-147 -129zM485 707 q-6 -39 16.5 -65t69.5 -26q53 0 84.5 32t36.5 79q6 39 -16.5 65.5t-69.5 26.5q-53 0 -84.5 -32.5t-36.5 -79.5z" />
<glyph unicode="&#xa5;" horiz-adv-x="1566" d="M170 207l35 225h313l14 80h-313l35 225h190l-274 656h481l160 -527l305 527h529l-486 -656h189l-35 -225h-312l-14 -80h311l-34 -225h-314l-32 -207h-469l32 207h-311z" />
<glyph unicode="&#xa6;" horiz-adv-x="651" d="M-16 -205l127 799h428l-127 -799h-428zM154 860l127 799h428l-127 -799h-428z" />
<glyph unicode="&#xa7;" horiz-adv-x="1081" d="M25 23l47 303q146 -93 315 -93q112 0 121 37q1 25 -31 42.5t-141 54.5q-135 48 -199.5 123t-46.5 198q19 148 184 236q-122 94 -98 256q24 156 160 221t326 65q207 0 385 -90l-43 -282q-129 75 -293 75q-89 0 -95 -41q-2 -12 7 -22t30 -19.5t43.5 -17.5t58.5 -21.5 t64 -25.5q119 -51 174 -122.5t37 -186.5q-21 -140 -172 -246q113 -88 86 -246q-46 -295 -524 -295q-196 0 -395 97zM446 721q-9 -56 74 -86l98 -33q48 28 54 68q9 53 -74 88q-8 4 -46 16.5t-46 16.5q-51 -26 -60 -70z" />
<glyph unicode="&#xa8;" horiz-adv-x="894" d="M244 1718q7 84 66.5 135.5t142.5 51.5q88 0 139.5 -57.5t44.5 -149.5q-7 -84 -66.5 -135.5t-142.5 -51.5q-88 0 -139.5 57.5t-44.5 149.5zM715 1718q7 84 66.5 135.5t142.5 51.5q88 0 139.5 -57.5t44.5 -149.5q-7 -84 -66.5 -135.5t-142.5 -51.5q-88 0 -139.5 57.5 t-44.5 149.5z" />
<glyph unicode="&#xa9;" horiz-adv-x="1695" d="M84 745q37 231 176 402q139 168 320 244q178 75 385 75q155 0 290.5 -51t235.5 -147q101 -98 145 -249.5t15 -330.5q-41 -236 -176 -399q-135 -166 -320 -244q-178 -78 -389 -78q-328 0 -533 211q-207 210 -149 567zM227 707q-41 -281 121 -443t424 -162q277 0 483 164 q207 165 250 461q41 280 -121 442t-423 162q-278 0 -484 -164q-207 -165 -250 -460zM453 729q13 85 51 155.5t89.5 116.5t115.5 78t127.5 46t126.5 14q171 0 290 -70l-36 -242q-80 45 -187 45q-94 0 -156 -39t-73 -120q-10 -71 35 -111.5t120 -40.5q134 0 226 51l-39 -252 q-127 -65 -299 -65q-62 0 -122.5 16t-116 50.5t-94.5 84t-56 123t-2 160.5z" />
<glyph unicode="&#xab;" horiz-adv-x="1376" d="M31 455l12 84l332 379h438l-371 -426l228 -426h-424zM600 455l12 84l332 379h438l-370 -426l227 -426h-424z" />
<glyph unicode="&#xac;" horiz-adv-x="1183" d="M76 637l55 346h1014l-92 -580h-357l37 234h-657z" />
<glyph unicode="&#xad;" horiz-adv-x="978" d="M47 326l53 333h799l-53 -333h-799z" />
<glyph unicode="&#xae;" horiz-adv-x="1695" d="M84 745q37 231 176 402q139 168 320 244q178 75 385 75q155 0 290.5 -51t235.5 -147q101 -98 145 -249.5t15 -330.5q-41 -236 -176 -399q-135 -166 -320 -244q-178 -78 -389 -78q-328 0 -533 211q-207 210 -149 567zM227 707q-41 -281 121 -443t424 -162q277 0 483 164 q207 165 250 461q41 280 -121 442t-423 162q-278 0 -484 -164q-207 -165 -250 -460zM467 324l125 798h383q147 0 242 -80q94 -79 67 -237q-27 -160 -174 -221l152 -260h-291l-123 227h-14h-58l-35 -227h-274zM809 758h94q95 0 107 71q5 26 -14 46t-50 20h-115z" />
<glyph unicode="&#xaf;" horiz-adv-x="737" d="M199 1550l47 297h743l-47 -297h-743z" />
<glyph unicode="&#xb0;" horiz-adv-x="905" d="M117 1112q26 164 150 259t300 95q184 0 291 -110q107 -113 80 -301q-29 -175 -151 -271t-304 -96q-181 0 -288 113q-108 114 -78 311zM418 1069q-4 -44 20 -70t68 -26q54 0 86 31.5t37 85.5q5 43 -18.5 68.5t-67.5 25.5q-53 0 -86.5 -31.5t-38.5 -83.5z" />
<glyph unicode="&#xb1;" horiz-adv-x="1191" d="M-4 0l55 344h1014l-53 -344h-1016zM115 752l55 344h334l51 311h344l-51 -311h336l-54 -344h-335l-50 -314h-344l50 314h-336z" />
<glyph unicode="&#xb4;" horiz-adv-x="710" d="M244 1540l254 336h444l-301 -336h-397z" />
<glyph unicode="&#xb6;" horiz-adv-x="1701" d="M111 999q32 207 175.5 321t372.5 114h1045l-299 -1885h-442l233 1471h-147l-236 -1471h-442l153 965q-223 0 -336 131q-114 129 -77 354z" />
<glyph unicode="&#xb7;" horiz-adv-x="593" d="M43 516q17 100 84.5 151.5t167.5 51.5q114 0 175.5 -69t41.5 -189q-17 -100 -84 -152.5t-168 -52.5q-112 0 -173.5 70t-43.5 190z" />
<glyph unicode="&#xb8;" horiz-adv-x="471" d="M-178 -442l37 227q65 -39 164 -39q111 0 120 49q4 24 -22.5 36.5t-66.5 12t-83 -5.5l70 162h252l-45 -90q89 -6 136 -61t34 -140q-11 -66 -60 -110.5t-118.5 -64t-155.5 -19.5q-155 0 -262 43z" />
<glyph unicode="&#xbb;" horiz-adv-x="1378" d="M-39 66l373 426l-230 426h424l215 -390l-12 -84l-330 -378h-440zM532 66l373 426l-229 426h424l217 -390l-14 -84l-330 -378h-441z" />
<glyph unicode="&#xbc;" horiz-adv-x="1912" d="M66 557l36 231h158l53 336l-157 -51l39 242l229 78h207l-96 -605h141l-37 -231h-573zM326 -33l1183 1499h129l-1183 -1499h-129zM1012 113l35 225l471 498h280l-80 -504h103l-35 -219h-103l-18 -113h-256l16 113h-413zM1317 332h143l31 184z" />
<glyph unicode="&#xbd;" horiz-adv-x="1849" d="M59 557l37 231h158l53 336l-157 -51l38 242l230 78h207l-97 -605h142l-37 -231h-574zM319 -33l1184 1499h129l-1183 -1499h-130zM1028 0l19 121q18 116 85.5 191.5t192.5 140.5q14 8 56.5 29.5t50.5 25.5q20 12 34 20q34 22 37 45q4 19 -11.5 30t-45.5 11 q-139 0 -311 -112l43 270q159 84 309 84q140 0 231 -76q92 -77 68 -225q-12 -71 -52 -117.5t-128 -99.5q-3 -2 -97 -59q-39 -22 -67 -50h291l-35 -229h-670z" />
<glyph unicode="&#xbe;" horiz-adv-x="2015" d="M70 612l36 234q121 -62 250 -62t138 58q5 23 -10.5 36t-47.5 13h-157l34 211h111q83 0 86 43q4 23 -15.5 35t-58.5 12q-141 0 -274 -68l39 238q139 65 276 65q138 0 230 -69q92 -71 71 -199q-21 -118 -157 -158q69 -20 106.5 -80t24.5 -147q-37 -223 -371 -223 q-186 0 -311 61zM428 -33l1184 1499h129l-1184 -1499h-129zM1114 113l35 225l471 498h281l-80 -504h102l-35 -219h-102l-19 -113h-256l17 113h-414zM1419 332h144l30 184z" />
<glyph unicode="&#xbf;" horiz-adv-x="1028" d="M-61 -82q8 52 34.5 102.5t63 90.5t78 78.5t83 72.5t76 65.5t58 65t28.5 64.5h396q-11 -81 -62 -161t-112 -130q-152 -122 -162 -178q-6 -36 19.5 -53t82.5 -17q171 0 352 94l-67 -413q-180 -82 -401 -82q-78 0 -148 11.5t-136 41t-111 73.5t-66 115t-6 160zM375 813 q17 99 84.5 151t165.5 52q114 0 175.5 -69.5t43.5 -190.5q-17 -100 -84.5 -151.5t-167.5 -51.5q-112 0 -174.5 70t-42.5 190z" />
<glyph unicode="&#xc0;" horiz-adv-x="1566" d="M-100 0l762 1434h509l308 -1434h-461l-33 190h-506l-92 -190h-487zM588 1876h424l147 -336h-375zM641 532h289l-51 312q-15 94 -15 184q-32 -110 -69 -182z" />
<glyph unicode="&#xc1;" horiz-adv-x="1566" d="M-100 0l762 1434h509l308 -1434h-461l-33 190h-506l-92 -190h-487zM641 532h289l-51 312q-15 94 -15 184q-32 -110 -69 -182zM694 1540l254 336h445l-301 -336h-398z" />
<glyph unicode="&#xc2;" horiz-adv-x="1566" d="M-100 0l762 1434h509l308 -1434h-461l-33 190h-506l-92 -190h-487zM477 1530l318 350h379l206 -350h-344l-71 123l-113 -123h-375zM641 532h289l-51 312q-15 94 -15 184q-32 -110 -69 -182z" />
<glyph unicode="&#xc3;" horiz-adv-x="1566" d="M-100 0l762 1434h509l308 -1434h-461l-33 190h-506l-92 -190h-487zM510 1526q-21 157 55 262q76 104 205 104q76 0 172 -41t121 -41t40.5 22t10.5 48h277q21 -159 -56 -262q-77 -105 -207 -105q-71 0 -167 41t-125 41q-26 0 -41.5 -21.5t-10.5 -47.5h-274zM641 532h289 l-51 312q-15 94 -15 184q-32 -110 -69 -182z" />
<glyph unicode="&#xc4;" horiz-adv-x="1566" d="M-100 0l762 1434h509l308 -1434h-461l-33 190h-506l-92 -190h-487zM528 1718q7 84 66.5 135.5t142.5 51.5q88 0 140 -57.5t45 -149.5q-7 -84 -66.5 -135.5t-142.5 -51.5q-88 0 -140 57.5t-45 149.5zM641 532h289l-51 312q-15 94 -15 184q-32 -110 -69 -182zM999 1718 q7 84 66.5 135.5t142.5 51.5q88 0 140 -57.5t45 -149.5q-7 -84 -66.5 -135.5t-142.5 -51.5q-88 0 -140 57.5t-45 149.5z" />
<glyph unicode="&#xc5;" horiz-adv-x="1566" d="M-100 0l762 1434h509l308 -1434h-461l-33 190h-506l-92 -190h-487zM641 532h289l-51 312q-15 94 -15 184q-32 -110 -69 -182zM690 1794q18 109 104 173.5t203 64.5q123 0 205 -82q81 -84 60 -213q-18 -114 -103 -177t-207 -63q-121 0 -200 82q-83 80 -62 215zM905 1767 q-5 -32 12.5 -52.5t49.5 -20.5q68 0 77 67q6 31 -10 51.5t-51 20.5q-31 0 -52 -18.5t-26 -47.5z" />
<glyph unicode="&#xc6;" horiz-adv-x="2134" d="M-123 0l1106 1434h1204l-59 -373h-561l-25 -166h488l-56 -348h-487l-29 -170h574l-60 -377h-1034l31 195h-439l-145 -195h-508zM776 532h246l70 422z" />
<glyph unicode="&#xc7;" horiz-adv-x="1320" d="M64.5 490q-18.5 112 5.5 249q24 150 90 274t155 207t198 139.5t219 82t220 24.5q241 0 418 -98l-63 -399q-107 88 -297 88q-165 0 -299 -84q-132 -82 -162 -262q-24 -158 69 -242q95 -86 240 -86q214 0 383 102l-70 -438q-140 -63 -331 -78l-29 -59q89 -6 136 -61 t34 -140q-11 -66 -60 -110.5t-118.5 -64t-155.5 -19.5q-155 0 -262 43l37 227q65 -39 164 -39q112 0 121 49q4 24 -22.5 36.5t-66.5 12t-83 -5.5l61 144q-101 19 -187.5 58.5t-160.5 103t-119.5 149t-64 197.5z" />
<glyph unicode="&#xc8;" horiz-adv-x="1271" d="M12 0l228 1434h1085l-59 -373h-615l-24 -166h540l-55 -348h-541l-26 -170h624l-59 -377h-1098zM459 1876h424l147 -336h-375z" />
<glyph unicode="&#xc9;" horiz-adv-x="1271" d="M12 0l228 1434h1085l-59 -373h-615l-24 -166h540l-55 -348h-541l-26 -170h624l-59 -377h-1098zM565 1540l254 336h445l-301 -336h-398z" />
<glyph unicode="&#xca;" horiz-adv-x="1271" d="M12 0l228 1434h1085l-59 -373h-615l-24 -166h540l-55 -348h-541l-26 -170h624l-59 -377h-1098zM348 1530l318 350h378l207 -350h-344l-71 123l-113 -123h-375z" />
<glyph unicode="&#xcb;" horiz-adv-x="1271" d="M12 0l228 1434h1085l-59 -373h-615l-24 -166h540l-55 -348h-541l-26 -170h624l-59 -377h-1098zM399 1718q7 84 66.5 135.5t142.5 51.5q88 0 140 -57.5t45 -149.5q-7 -84 -66.5 -135.5t-142.5 -51.5q-88 0 -140 57.5t-45 149.5zM870 1718q7 84 66.5 135.5t142.5 51.5 q88 0 140 -57.5t45 -149.5q-7 -84 -66.5 -135.5t-142.5 -51.5q-88 0 -140 57.5t-45 149.5z" />
<glyph unicode="&#xcc;" horiz-adv-x="688" d="M12 0l228 1434h473l-228 -1434h-473zM145 1876h424l148 -336h-375z" />
<glyph unicode="&#xcd;" horiz-adv-x="688" d="M12 0l228 1434h473l-228 -1434h-473zM252 1540l254 336h444l-301 -336h-397z" />
<glyph unicode="&#xce;" horiz-adv-x="688" d="M12 0l228 1434h473l-228 -1434h-473zM35 1530l317 350h379l207 -350h-344l-72 123l-112 -123h-375z" />
<glyph unicode="&#xcf;" horiz-adv-x="688" d="M12 0l228 1434h473l-228 -1434h-473zM86 1718q7 84 66.5 135.5t142.5 51.5q88 0 139.5 -57.5t44.5 -149.5q-7 -84 -66.5 -135.5t-142.5 -51.5q-88 0 -139.5 57.5t-44.5 149.5zM557 1718q7 84 66.5 135.5t142.5 51.5q88 0 139.5 -57.5t44.5 -149.5q-7 -84 -66.5 -135.5 t-142.5 -51.5q-88 0 -139.5 57.5t-44.5 149.5z" />
<glyph unicode="&#xd0;" horiz-adv-x="1550" d="M12 575l45 279h119l92 580h606q361 0 527 -205q165 -204 112 -541q-52 -327 -263 -507.5t-572 -180.5h-637l90 575h-119zM575 397h123q286 0 336 336q52 303 -213 303h-145l-29 -182h209l-45 -279h-207z" />
<glyph unicode="&#xd1;" horiz-adv-x="1560" d="M12 0l228 1434h356l424 -691q3 138 22 242l70 449h473l-227 -1434h-357l-421 688q0 -89 -21 -233l-74 -455h-473zM465 1526q-21 157 55 262q76 104 205 104q76 0 172 -41t121 -41t40.5 22t10.5 48h277q21 -159 -56 -262q-76 -105 -207 -105q-72 0 -168 41t-124 41 q-26 0 -41.5 -21.5t-10.5 -47.5h-274z" />
<glyph unicode="&#xd2;" horiz-adv-x="1648" d="M72 745q50 316 278 519q230 202 592 202q365 0 545 -223q181 -225 129 -555q-50 -315 -279 -516q-230 -205 -592 -205q-366 0 -546 223t-127 555zM551 692q-17 -140 44 -218.5t189 -78.5q146 0 241 93t114 253q19 140 -42.5 218.5t-191.5 78.5q-142 0 -236.5 -93 t-117.5 -253zM625 1876h424l147 -336h-375z" />
<glyph unicode="&#xd3;" horiz-adv-x="1648" d="M72 745q50 316 278 519q230 202 592 202q365 0 545 -223q181 -225 129 -555q-50 -315 -279 -516q-230 -205 -592 -205q-366 0 -546 223t-127 555zM551 692q-17 -140 44 -218.5t189 -78.5q146 0 241 93t114 253q19 140 -42.5 218.5t-191.5 78.5q-142 0 -236.5 -93 t-117.5 -253zM731 1540l254 336h445l-302 -336h-397z" />
<glyph unicode="&#xd4;" horiz-adv-x="1648" d="M72 745q50 316 278 519q230 202 592 202q365 0 545 -223q181 -225 129 -555q-50 -315 -279 -516q-230 -205 -592 -205q-366 0 -546 223t-127 555zM514 1530l317 350h379l207 -350h-344l-72 123l-112 -123h-375zM551 692q-17 -140 44 -218.5t189 -78.5q146 0 241 93 t114 253q19 140 -42.5 218.5t-191.5 78.5q-142 0 -236.5 -93t-117.5 -253z" />
<glyph unicode="&#xd5;" horiz-adv-x="1648" d="M72 745q50 316 278 519q230 202 592 202q365 0 545 -223q181 -225 129 -555q-50 -315 -279 -516q-230 -205 -592 -205q-366 0 -546 223t-127 555zM547 1526q-21 157 55 262q76 104 205 104q76 0 172 -41t121 -41t40.5 22t10.5 48h276q21 -160 -55 -262 q-76 -105 -207 -105q-72 0 -168 41t-125 41q-25 0 -40.5 -21.5t-10.5 -47.5h-274zM551 692q-17 -140 44 -218.5t189 -78.5q146 0 241 93t114 253q19 140 -42.5 218.5t-191.5 78.5q-142 0 -236.5 -93t-117.5 -253z" />
<glyph unicode="&#xd6;" horiz-adv-x="1648" d="M72 745q50 316 278 519q230 202 592 202q365 0 545 -223q181 -225 129 -555q-50 -315 -279 -516q-230 -205 -592 -205q-366 0 -546 223t-127 555zM551 692q-17 -140 44 -218.5t189 -78.5q146 0 241 93t114 253q19 140 -42.5 218.5t-191.5 78.5q-142 0 -236.5 -93 t-117.5 -253zM565 1718q7 84 66.5 135.5t142.5 51.5q88 0 139.5 -57.5t44.5 -149.5q-7 -84 -66 -135.5t-142 -51.5q-88 0 -140 57.5t-45 149.5zM1036 1718q7 84 66.5 135.5t142.5 51.5q88 0 140 -57.5t45 -149.5q-7 -84 -66.5 -135.5t-142.5 -51.5q-88 0 -140 57.5 t-45 149.5z" />
<glyph unicode="&#xd7;" horiz-adv-x="1077" d="M41 465l291 250l-211 252l254 225l211 -250l291 250l198 -225l-293 -252l213 -250l-256 -225l-209 249l-292 -249z" />
<glyph unicode="&#xd8;" horiz-adv-x="1648" d="M16 -98l217 250q-219 219 -161 593q50 316 278 519q230 202 592 202q217 0 369 -82l129 148h233l-219 -252q106 -106 148.5 -260.5t13.5 -331.5q-50 -315 -279 -516q-230 -205 -592 -205q-211 0 -368 80l-127 -145h-234zM551 692q-15 -88 16 -160l430 492q-43 14 -94 14 q-142 0 -237 -93t-115 -253zM692 410q46 -15 90 -15q146 0 241 93t114 253q16 93 -17 160z" />
<glyph unicode="&#xd9;" horiz-adv-x="1517" d="M88 571l137 863h473l-139 -867q-13 -94 26 -135t132 -41q200 0 235 203l133 840h471l-139 -891q-95 -576 -745 -576q-102 0 -193.5 20t-173 66t-136 114t-78 172t-3.5 232zM539 1876h424l147 -336h-375z" />
<glyph unicode="&#xda;" horiz-adv-x="1517" d="M88 571l137 863h473l-139 -867q-13 -94 26 -135t132 -41q200 0 235 203l133 840h471l-139 -891q-95 -576 -745 -576q-102 0 -193.5 20t-173 66t-136 114t-78 172t-3.5 232zM645 1540l254 336h444l-301 -336h-397z" />
<glyph unicode="&#xdb;" horiz-adv-x="1517" d="M88 571l137 863h473l-139 -867q-13 -94 26 -135t132 -41q200 0 235 203l133 840h471l-139 -891q-95 -576 -745 -576q-102 0 -193.5 20t-173 66t-136 114t-78 172t-3.5 232zM428 1530l317 350h379l207 -350h-344l-72 123l-112 -123h-375z" />
<glyph unicode="&#xdc;" horiz-adv-x="1517" d="M88 571l137 863h473l-139 -867q-13 -94 26 -135t132 -41q200 0 235 203l133 840h471l-139 -891q-95 -576 -745 -576q-102 0 -193.5 20t-173 66t-136 114t-78 172t-3.5 232zM479 1718q7 84 66.5 135.5t142.5 51.5q88 0 139.5 -57.5t44.5 -149.5q-7 -84 -66 -135.5 t-142 -51.5q-88 0 -140 57.5t-45 149.5zM950 1718q7 84 66.5 135.5t142.5 51.5q88 0 139.5 -57.5t44.5 -149.5q-7 -84 -66 -135.5t-142 -51.5q-88 0 -140 57.5t-45 149.5z" />
<glyph unicode="&#xdd;" horiz-adv-x="1540" d="M123 1434h504l168 -547l335 547h553l-696 -945l-80 -489h-469l80 489zM659 1540l254 336h445l-301 -336h-398z" />
<glyph unicode="&#xde;" horiz-adv-x="1406" d="M12 0l228 1434h473l-31 -187h143q105 -1 194.5 -18.5t168.5 -58.5t129.5 -104t71.5 -159.5t2 -218.5q-22 -141 -81.5 -240t-154 -155.5t-210.5 -81.5t-267 -25h-164l-29 -186h-473zM578 578h139q191 0 215 149q7 62 -32 95.5t-114 33.5h-163z" />
<glyph unicode="&#xdf;" horiz-adv-x="1267" d="M-10 0l155 987q77 476 578 479q99 1 181.5 -22.5t136.5 -61.5t89.5 -87t48 -100.5t5.5 -100.5q-9 -75 -99 -179q-87 -100 -96 -157q-10 -58 109 -191q49 -56 78.5 -140t19.5 -169q-15 -142 -129 -215q-113 -76 -268 -76q-141 0 -277 56l49 319q51 -23 107 -23 q46 0 74.5 21t33.5 53q6 21 -11.5 56t-45.5 74.5t-56 81.5t-43.5 87.5t-6.5 81.5q9 54 75 139q66 84 74 127q7 38 -11.5 59t-55.5 21q-104 0 -125 -110l-158 -1010h-432z" />
<glyph unicode="&#xe0;" horiz-adv-x="1277" d="M31 520q34 210 166 354q133 142 346 142q104 0 186 -49.5t125 -128.5l23 145h378l-155 -983h-379l16 106q-112 -139 -323 -139q-218 0 -320 164q-100 161 -63 389zM346 1446h424l148 -336h-375zM467 483q-11 -73 21 -121.5t94 -48.5q88 0 149 76l35 213q-11 31 -40 49.5 t-67 18.5q-76 0 -128 -52.5t-64 -134.5z" />
<glyph unicode="&#xe1;" horiz-adv-x="1277" d="M31 520q34 210 166 354q133 142 346 142q104 0 186 -49.5t125 -128.5l23 145h378l-155 -983h-379l16 106q-112 -139 -323 -139q-218 0 -320 164q-100 161 -63 389zM453 1110l254 336h444l-301 -336h-397zM467 483q-11 -73 21 -121.5t94 -48.5q88 0 149 76l35 213 q-11 31 -40 49.5t-67 18.5q-76 0 -128 -52.5t-64 -134.5z" />
<glyph unicode="&#xe2;" horiz-adv-x="1277" d="M31 520q34 210 166 354q133 142 346 142q104 0 186 -49.5t125 -128.5l23 145h378l-155 -983h-379l16 106q-112 -139 -323 -139q-218 0 -320 164q-100 161 -63 389zM236 1100l317 350h379l207 -350h-344l-72 123l-113 -123h-374zM467 483q-11 -73 21 -121.5t94 -48.5 q88 0 149 76l35 213q-11 31 -40 49.5t-67 18.5q-76 0 -128 -52.5t-64 -134.5z" />
<glyph unicode="&#xe3;" horiz-adv-x="1277" d="M31 520q34 210 166 354q133 142 346 142q104 0 186 -49.5t125 -128.5l23 145h378l-155 -983h-379l16 106q-112 -139 -323 -139q-218 0 -320 164q-100 161 -63 389zM268 1096q-21 156 56 262q76 104 204 104q76 0 172 -41t121 -41t40.5 22t10.5 48h277q21 -160 -55 -262 q-76 -105 -207 -105q-72 0 -168 41t-125 41q-25 0 -40.5 -21.5t-10.5 -47.5h-275zM467 483q-11 -73 21 -121.5t94 -48.5q88 0 149 76l35 213q-11 31 -40 49.5t-67 18.5q-76 0 -128 -52.5t-64 -134.5z" />
<glyph unicode="&#xe4;" horiz-adv-x="1277" d="M31 520q34 210 166 354q133 142 346 142q104 0 186 -49.5t125 -128.5l23 145h378l-155 -983h-379l16 106q-112 -139 -323 -139q-218 0 -320 164q-100 161 -63 389zM287 1288q7 84 66.5 135.5t142.5 51.5q88 0 139.5 -57.5t44.5 -149.5q-7 -84 -66.5 -135.5t-142.5 -51.5 q-88 0 -139.5 57.5t-44.5 149.5zM467 483q-11 -73 21 -121.5t94 -48.5q88 0 149 76l35 213q-11 31 -40 49.5t-67 18.5q-76 0 -128 -52.5t-64 -134.5zM758 1288q7 84 66.5 135.5t142.5 51.5q88 0 139.5 -57.5t44.5 -149.5q-7 -84 -66.5 -135.5t-142.5 -51.5 q-88 0 -139.5 57.5t-44.5 149.5z" />
<glyph unicode="&#xe5;" horiz-adv-x="1277" d="M31 520q34 210 166 354q133 142 346 142q104 0 186 -49.5t125 -128.5l23 145h378l-155 -983h-379l16 106q-112 -139 -323 -139q-218 0 -320 164q-100 161 -63 389zM449 1364q18 109 104 173.5t203 64.5q123 0 205 -82q80 -83 59 -213q-18 -114 -102.5 -177t-206.5 -63 t-201 82q-82 79 -61 215zM467 483q-11 -73 21 -121.5t94 -48.5q88 0 149 76l35 213q-11 31 -40 49.5t-67 18.5q-76 0 -128 -52.5t-64 -134.5zM664 1337q-5 -32 12 -52.5t49 -20.5q69 0 78 67q6 31 -10.5 51.5t-51.5 20.5q-30 0 -51 -18t-26 -48z" />
<glyph unicode="&#xe6;" horiz-adv-x="1892" d="M31 520q34 210 166 354q133 142 346 142q105 0 188 -49t123 -127l23 143h346l-21 -131q108 164 314 164q117 0 197 -51t113 -137t27 -199t-53 -238h-618q30 -121 254 -121q147 0 278 41l-45 -299q-125 -45 -254 -45q-230 0 -330 152l-18 -119h-346l16 109 q-112 -142 -323 -142q-218 0 -320 164q-100 161 -63 389zM463 483q-11 -74 21 -122.5t94 -49.5q85 0 149 76l35 213q-11 31 -40 49.5t-67 18.5q-74 0 -127 -52t-65 -133zM1212 592h269q14 57 -13 98t-90 41q-69 0 -113.5 -40t-52.5 -99z" />
<glyph unicode="&#xe7;" horiz-adv-x="1003" d="M27 498q34 257 225 389q186 131 422 131q179 0 313 -70l-53 -334q-91 48 -201 48q-106 0 -180.5 -45t-85.5 -132q-12 -77 39.5 -118t148.5 -41q134 0 252 53l-57 -361q-111 -37 -229 -47l-29 -61q88 -6 135.5 -61.5t34.5 -139.5q-16 -97 -109 -145.5t-227 -48.5 q-153 0 -260 43l35 227q68 -39 166 -39q111 0 120 49q5 24 -22.5 36.5t-68.5 12t-83 -5.5l64 148q-189 42 -284 174.5t-66 337.5z" />
<glyph unicode="&#xe8;" horiz-adv-x="1118" d="M31 528q15 102 58.5 185.5t103 138.5t132.5 93t145 54.5t142 16.5q104 0 187.5 -27t136.5 -73.5t86.5 -107.5t43 -131t1 -142t-36.5 -142h-610q30 -125 258 -125q174 0 305 49l-47 -301q-146 -49 -354 -49q-240 0 -408 131q-86 67 -124.5 179t-18.5 251zM283 1425h424 l147 -335h-375zM442 592h269q14 57 -13 98t-90 41q-66 0 -112 -41t-54 -98z" />
<glyph unicode="&#xe9;" horiz-adv-x="1118" d="M31 528q15 102 58.5 185.5t103 138.5t132.5 93t145 54.5t142 16.5q104 0 187.5 -27t136.5 -73.5t86.5 -107.5t43 -131t1 -142t-36.5 -142h-610q30 -125 258 -125q174 0 305 49l-47 -301q-146 -49 -354 -49q-240 0 -408 131q-86 67 -124.5 179t-18.5 251zM389 1090 l254 335h444l-301 -335h-397zM442 592h269q14 57 -13 98t-90 41q-66 0 -112 -41t-54 -98z" />
<glyph unicode="&#xea;" horiz-adv-x="1118" d="M31 528q15 102 58.5 185.5t103 138.5t132.5 93t145 54.5t142 16.5q104 0 187.5 -27t136.5 -73.5t86.5 -107.5t43 -131t1 -142t-36.5 -142h-610q30 -125 258 -125q174 0 305 49l-47 -301q-146 -49 -354 -49q-240 0 -408 131q-86 67 -124.5 179t-18.5 251zM172 1079 l317 351h379l207 -351h-344l-72 123l-112 -123h-375zM442 592h269q14 57 -13 98t-90 41q-66 0 -112 -41t-54 -98z" />
<glyph unicode="&#xeb;" horiz-adv-x="1118" d="M31 528q15 102 58.5 185.5t103 138.5t132.5 93t145 54.5t142 16.5q104 0 187.5 -27t136.5 -73.5t86.5 -107.5t43 -131t1 -142t-36.5 -142h-610q30 -125 258 -125q174 0 305 49l-47 -301q-146 -49 -354 -49q-240 0 -408 131q-86 67 -124.5 179t-18.5 251zM223 1268 q7 83 66.5 134.5t142.5 51.5q88 0 139.5 -57.5t44.5 -149.5q-7 -84 -66 -135t-142 -51q-88 0 -140 57.5t-45 149.5zM442 592h269q14 57 -13 98t-90 41q-66 0 -112 -41t-54 -98zM694 1268q7 83 66.5 134.5t142.5 51.5q88 0 139.5 -57.5t44.5 -149.5q-7 -84 -66 -135t-142 -51 q-88 0 -140 57.5t-45 149.5z" />
<glyph unicode="&#xec;" horiz-adv-x="600" d="M-10 0l155 983h433l-156 -983h-432zM74 1425h434l76 -335h-387z" />
<glyph unicode="&#xed;" horiz-adv-x="600" d="M-10 0l155 983h433l-156 -983h-432zM137 1090l254 335h445l-301 -335h-398z" />
<glyph unicode="&#xee;" horiz-adv-x="600" d="M-35 1079l277 351h379l165 -351h-350l-35 123l-75 -123h-361zM-10 0l155 983h433l-156 -983h-432z" />
<glyph unicode="&#xef;" horiz-adv-x="600" d="M-10 0l155 983h433l-156 -983h-432zM0 1266q7 79 63.5 128.5t135.5 49.5q85 0 133 -54.5t41 -142.5q-7 -79 -63.5 -127.5t-135.5 -48.5q-85 0 -133 54t-41 141zM430 1266q7 79 63.5 128.5t135.5 49.5q85 0 133 -54.5t41 -142.5q-7 -79 -63.5 -127.5t-135.5 -48.5 q-85 0 -133 54t-41 141z" />
<glyph unicode="&#xf0;" horiz-adv-x="1171" d="M18 469q27 197 158 301q128 104 295 104q190 0 283 -124q8 43 2 98q-9 137 -119 215l-164 -145l-123 141l103 82q-65 19 -181 16l31 332q243 0 432 -92l162 139l123 -139l-121 -105q291 -266 217 -727q-22 -132 -66 -235.5t-101.5 -171t-131 -111t-151.5 -62t-166 -18.5 q-225 0 -369 135q-147 135 -113 367zM416 432q-9 -66 22 -104q30 -37 90 -37q62 0 102.5 37t47.5 104q12 141 -115 141q-61 0 -100 -36q-38 -35 -47 -105z" />
<glyph unicode="&#xf1;" d="M-12 0l155 983h379l-14 -92q146 125 323 125q179 0 261 -117q79 -119 55 -274l-98 -625h-433l91 569q15 84 -68 84q-57 0 -125 -53l-94 -600h-432zM246 1075q-21 157 55 262q77 105 205 105q76 0 172 -41t121 -41t40.5 22t10.5 48h276q21 -161 -55 -263 q-76 -104 -207 -104q-72 0 -168 41t-125 41q-25 0 -40.5 -22t-10.5 -48h-274z" />
<glyph unicode="&#xf2;" d="M31 524q37 239 204.5 365.5t419.5 126.5q89 3 171 -19.5t149 -69.5t113 -113.5t64 -158.5t1 -196q-41 -247 -213 -367q-174 -125 -414 -125q-116 0 -214 36t-169.5 103.5t-102.5 175.5t-9 242zM317 1417h424l148 -336h-375zM444 481q-8 -70 21.5 -111.5t95.5 -41.5 q73 0 119 47t57 127q8 70 -21.5 111.5t-94.5 41.5q-73 0 -119.5 -47t-57.5 -127z" />
<glyph unicode="&#xf3;" d="M31 524q37 239 204.5 365.5t419.5 126.5q89 3 171 -19.5t149 -69.5t113 -113.5t64 -158.5t1 -196q-41 -247 -213 -367q-174 -125 -414 -125q-116 0 -214 36t-169.5 103.5t-102.5 175.5t-9 242zM424 1081l254 336h444l-301 -336h-397zM444 481q-8 -70 21.5 -111.5 t95.5 -41.5q73 0 119 47t57 127q8 70 -21.5 111.5t-94.5 41.5q-73 0 -119.5 -47t-57.5 -127z" />
<glyph unicode="&#xf4;" d="M31 524q37 239 204.5 365.5t419.5 126.5q89 3 171 -19.5t149 -69.5t113 -113.5t64 -158.5t1 -196q-41 -247 -213 -367q-174 -125 -414 -125q-116 0 -214 36t-169.5 103.5t-102.5 175.5t-9 242zM207 1071l317 350h379l207 -350h-344l-72 123l-112 -123h-375zM444 481 q-8 -70 21.5 -111.5t95.5 -41.5q73 0 119 47t57 127q8 70 -21.5 111.5t-94.5 41.5q-73 0 -119.5 -47t-57.5 -127z" />
<glyph unicode="&#xf5;" d="M31 524q37 239 204.5 365.5t419.5 126.5q89 3 171 -19.5t149 -69.5t113 -113.5t64 -158.5t1 -196q-41 -247 -213 -367q-174 -125 -414 -125q-116 0 -214 36t-169.5 103.5t-102.5 175.5t-9 242zM240 1067q-21 157 55 262q77 105 205 105q76 0 172 -41t121 -41t40.5 21.5 t10.5 47.5h276q21 -160 -55 -262q-76 -104 -207 -104q-72 0 -168 41t-125 41q-25 0 -40.5 -22t-10.5 -48h-274zM444 481q-8 -70 21.5 -111.5t95.5 -41.5q73 0 119 47t57 127q8 70 -21.5 111.5t-94.5 41.5q-73 0 -119.5 -47t-57.5 -127z" />
<glyph unicode="&#xf6;" d="M31 524q37 239 204.5 365.5t419.5 126.5q89 3 171 -19.5t149 -69.5t113 -113.5t64 -158.5t1 -196q-41 -247 -213 -367q-174 -125 -414 -125q-116 0 -214 36t-169.5 103.5t-102.5 175.5t-9 242zM258 1260q7 83 66.5 134.5t142.5 51.5q88 0 139.5 -57.5t44.5 -149.5 q-7 -83 -66.5 -134.5t-142.5 -51.5q-88 0 -139.5 57.5t-44.5 149.5zM444 481q-8 -70 21.5 -111.5t95.5 -41.5q73 0 119 47t57 127q8 70 -21.5 111.5t-94.5 41.5q-73 0 -119.5 -47t-57.5 -127zM729 1260q7 83 66.5 134.5t142.5 51.5q88 0 139.5 -57.5t44.5 -149.5 q-7 -83 -66.5 -134.5t-142.5 -51.5q-88 0 -139.5 57.5t-44.5 149.5z" />
<glyph unicode="&#xf7;" horiz-adv-x="1142" d="M49 551l53 334h1031l-54 -334h-1030zM281 266q17 97 84.5 149t164.5 52q114 0 176 -69t44 -189q-17 -100 -84.5 -151.5t-167.5 -51.5q-114 0 -175.5 69.5t-41.5 190.5zM434 1229q17 97 85 149t165 52q113 0 175 -69.5t44 -189.5q-17 -100 -84.5 -151t-167.5 -51 q-114 0 -175.5 69.5t-41.5 190.5z" />
<glyph unicode="&#xf8;" d="M31 524q37 239 204.5 365.5t419.5 126.5q145 0 258 -55l121 151h105l-154 -192q218 -156 168 -461q-41 -247 -213 -367q-174 -125 -414 -125q-148 0 -256 51l-118 -149h-107l154 192q-218 150 -168 463zM442 481q-8 -58 15 -96l209 264q-44 6 -48 6q-72 0 -118.5 -47 t-57.5 -127zM520 334q18 -6 41 -6q72 0 117.5 46.5t56.5 127.5q10 52 -10 90z" />
<glyph unicode="&#xf9;" d="M35 365l98 618h432l-90 -563q-15 -92 70 -92q71 0 123 55l94 600h432l-156 -983h-381l17 92q-119 -125 -301 -125q-183 0 -271 117q-91 117 -67 281zM326 1425h424l147 -335h-375z" />
<glyph unicode="&#xfa;" d="M35 365l98 618h432l-90 -563q-15 -92 70 -92q71 0 123 55l94 600h432l-156 -983h-381l17 92q-119 -125 -301 -125q-183 0 -271 117q-91 117 -67 281zM432 1090l254 335h444l-301 -335h-397z" />
<glyph unicode="&#xfb;" d="M35 365l98 618h432l-90 -563q-15 -92 70 -92q71 0 123 55l94 600h432l-156 -983h-381l17 92q-119 -125 -301 -125q-183 0 -271 117q-91 117 -67 281zM215 1079l317 351h379l207 -351h-344l-72 123l-112 -123h-375z" />
<glyph unicode="&#xfc;" d="M35 365l98 618h432l-90 -563q-15 -92 70 -92q71 0 123 55l94 600h432l-156 -983h-381l17 92q-119 -125 -301 -125q-183 0 -271 117q-91 117 -67 281zM266 1268q7 83 66.5 134.5t142.5 51.5q88 0 139.5 -57.5t44.5 -149.5q-7 -84 -66 -135t-142 -51q-88 0 -140 57.5 t-45 149.5zM737 1268q7 83 66.5 134.5t142.5 51.5q88 0 139.5 -57.5t44.5 -149.5q-7 -84 -66 -135t-142 -51q-88 0 -140 57.5t-45 149.5z" />
<glyph unicode="&#xfd;" horiz-adv-x="1234" d="M-57 -440l55 344q64 -23 127 -23q138 0 221 144l-293 958h436l121 -532l211 532h469l-538 -1053q-212 -411 -574 -411q-123 0 -235 41zM432 1090l254 335h444l-301 -335h-397z" />
<glyph unicode="&#xfe;" horiz-adv-x="1280" d="M-84 -451l301 1885h430l-82 -512q119 94 266 94q216 0 318 -164q100 -160 65 -389q-35 -214 -161 -352q-129 -144 -344 -144q-174 0 -277 115l-84 -533h-432zM479 377q27 -64 109 -64q72 0 124 52.5t66 132.5q11 72 -18.5 122t-95.5 50q-87 0 -150 -78z" />
<glyph unicode="&#xff;" horiz-adv-x="1234" d="M-57 -440l55 344q64 -23 127 -23q138 0 221 144l-293 958h436l121 -532l211 532h469l-538 -1053q-212 -411 -574 -411q-123 0 -235 41zM266 1268q7 83 66.5 134.5t142.5 51.5q88 0 139.5 -57.5t44.5 -149.5q-7 -84 -66 -135t-142 -51q-88 0 -140 57.5t-45 149.5z M737 1268q7 83 66.5 134.5t142.5 51.5q88 0 139.5 -57.5t44.5 -149.5q-7 -84 -66 -135t-142 -51q-88 0 -140 57.5t-45 149.5z" />
<glyph unicode="&#x152;" horiz-adv-x="2099" d="M72 745q50 312 270 517q216 204 555 204q139 0 242 -32h1013l-59 -373h-539l-24 -166h465l-56 -348h-464l-27 -170h549l-60 -377h-1007q-100 -33 -232 -33q-342 0 -510 223q-168 224 -116 555zM549 705q-22 -147 49 -230q72 -84 178 -84q119 0 211 53l90 562 q-62 36 -162 36q-125 0 -235 -84q-107 -85 -131 -253z" />
<glyph unicode="&#x153;" horiz-adv-x="1847" d="M31 526q41 246 207 369q167 123 397 123q221 0 342 -139q149 137 379 137q112 1 200.5 -33t142 -94t80 -139t20.5 -170.5t-42 -186.5h-610q30 -125 258 -125q174 0 305 49l-47 -301q-146 -49 -352 -49q-265 0 -406 150q-150 -150 -409 -150q-231 0 -369 150 q-139 149 -96 409zM446 481q-8 -66 20 -109.5t91 -43.5q80 0 127 47.5t55 130.5q6 66 -20.5 107.5t-89.5 41.5q-80 0 -127.5 -46.5t-55.5 -127.5zM1171 594h269q14 57 -13 98t-90 41q-66 0 -112 -41t-54 -98z" />
<glyph unicode="&#x178;" horiz-adv-x="1540" d="M123 1434h504l168 -547l335 547h553l-696 -945l-80 -489h-469l80 489zM494 1718q7 84 66 135.5t142 51.5q88 0 140 -57.5t45 -149.5q-7 -84 -66.5 -135.5t-142.5 -51.5q-88 0 -139.5 57.5t-44.5 149.5zM965 1718q7 84 66.5 135.5t142.5 51.5q88 0 139.5 -57.5 t44.5 -149.5q-7 -84 -66.5 -135.5t-142.5 -51.5q-88 0 -139.5 57.5t-44.5 149.5z" />
<glyph unicode="&#x2c6;" horiz-adv-x="856" d="M172 1530l317 350h379l207 -350h-344l-72 123l-112 -123h-375z" />
<glyph unicode="&#x2dc;" horiz-adv-x="860" d="M215 1526q-21 157 55 262q76 104 205 104q76 0 172 -41t121 -41t40.5 22t10.5 48h277q21 -159 -56 -262q-76 -105 -206 -105q-72 0 -168 41t-125 41q-26 0 -41.5 -21.5t-10.5 -47.5h-274z" />
<glyph unicode="&#x2000;" horiz-adv-x="1016" />
<glyph unicode="&#x2001;" horiz-adv-x="2032" />
<glyph unicode="&#x2002;" horiz-adv-x="1016" />
<glyph unicode="&#x2003;" horiz-adv-x="2032" />
<glyph unicode="&#x2004;" horiz-adv-x="677" />
<glyph unicode="&#x2005;" horiz-adv-x="508" />
<glyph unicode="&#x2006;" horiz-adv-x="338" />
<glyph unicode="&#x2007;" horiz-adv-x="338" />
<glyph unicode="&#x2008;" horiz-adv-x="254" />
<glyph unicode="&#x2009;" horiz-adv-x="406" />
<glyph unicode="&#x200a;" horiz-adv-x="112" />
<glyph unicode="&#x2010;" horiz-adv-x="978" d="M47 326l53 333h799l-53 -333h-799z" />
<glyph unicode="&#x2011;" horiz-adv-x="978" d="M47 326l53 333h799l-53 -333h-799z" />
<glyph unicode="&#x2012;" horiz-adv-x="978" d="M47 326l53 333h799l-53 -333h-799z" />
<glyph unicode="&#x2013;" horiz-adv-x="1193" d="M47 326l53 333h1014l-53 -333h-1014z" />
<glyph unicode="&#x2014;" horiz-adv-x="1615" d="M47 326l53 333h1436l-53 -333h-1436z" />
<glyph unicode="&#x2018;" horiz-adv-x="618" d="M57 805l336 629h330l-246 -629h-420z" />
<glyph unicode="&#x2019;" horiz-adv-x="610" d="M76 805l246 629h419l-338 -629h-327z" />
<glyph unicode="&#x201a;" horiz-adv-x="595" d="M-160 -293l244 629h420l-336 -629h-328z" />
<glyph unicode="&#x201c;" horiz-adv-x="1103" d="M57 805l336 629h330l-246 -629h-420zM543 805l336 629h329l-245 -629h-420z" />
<glyph unicode="&#x201d;" horiz-adv-x="1093" d="M76 805l246 629h419l-338 -629h-327zM559 805l246 629h420l-338 -629h-328z" />
<glyph unicode="&#x201e;" horiz-adv-x="1077" d="M-160 -293l244 629h420l-336 -629h-328zM324 -293l245 629h420l-338 -629h-327z" />
<glyph unicode="&#x2022;" horiz-adv-x="894" d="M121 745q25 150 128 228t251 78q164 0 250.5 -95.5t58.5 -267.5q-24 -153 -124.5 -231t-252.5 -78q-157 0 -248 94q-90 93 -63 272z" />
<glyph unicode="&#x2026;" horiz-adv-x="1810" d="M-6 227q17 99 84.5 151t165.5 52q113 0 175 -70t44 -190q-17 -100 -84.5 -151.5t-167.5 -51.5q-114 0 -175.5 69.5t-41.5 190.5zM610 227q17 99 84.5 151t165.5 52q113 0 175 -70t44 -190q-17 -100 -84.5 -151.5t-167.5 -51.5q-114 0 -175.5 69.5t-41.5 190.5zM1227 227 q17 99 84.5 151t165.5 52q113 0 175 -70t44 -190q-17 -100 -84.5 -151.5t-167.5 -51.5q-114 0 -175.5 69.5t-41.5 190.5z" />
<glyph unicode="&#x202f;" horiz-adv-x="406" />
<glyph unicode="&#x2039;" horiz-adv-x="806" d="M31 455l12 84l332 379h438l-371 -426l228 -426h-424z" />
<glyph unicode="&#x203a;" horiz-adv-x="806" d="M-39 66l373 426l-230 426h424l215 -390l-12 -84l-330 -378h-440z" />
<glyph unicode="&#x205f;" horiz-adv-x="508" />
<glyph unicode="&#x20ac;" horiz-adv-x="1478" d="M39 479l29 183h137q0 38 8 69h-135l28 182h158q103 259 324 385q222 127 481 127q233 0 428 -92l-63 -389q-128 84 -314 84q-205 0 -323 -115h389l-29 -182h-459q-10 -33 -10 -69h459l-29 -183h-385q77 -108 254 -108q209 0 371 98l-66 -422q-177 -80 -401 -80 q-265 0 -457 131t-227 381h-168z" />
<glyph unicode="&#x2122;" horiz-adv-x="1458" d="M160 1225l33 209h505l-32 -209h-136l-53 -330h-235l53 330h-135zM659 895l86 539h226l100 -230l166 230h250l-86 -539h-232l37 225l-88 -123h-135l-55 129l-37 -231h-232z" />
<glyph unicode="&#x25fc;" horiz-adv-x="983" d="M0 0v983h983v-983h-983z" />
<glyph unicode="&#xfb01;" horiz-adv-x="1378" d="M55 639l56 344h139l10 70q37 222 199 329t391 107q208 0 399 -72l-53 -327q-140 51 -278 51q-102 0 -162.5 -39t-71.5 -107l-4 -12h676l-156 -983h-432l102 639h-243l-103 -639h-430l101 639h-140z" />
<glyph unicode="&#xfb02;" horiz-adv-x="1423" d="M55 639l56 344h139l12 78q34 211 184 319q151 109 351 109q163 0 317 -53l365 39l-234 -1475h-432l178 1120q-71 20 -119 17q-75 0 -125.5 -36t-62.5 -102l-4 -16h184l-55 -344h-182l-103 -639h-430l101 639h-140z" />
<glyph unicode="&#xfb03;" horiz-adv-x="2111" d="M55 639l56 344h139l10 61q30 199 180 304q150 102 357 102q195 0 340 -80q158 137 430 137q213 0 399 -71l-53 -328q-140 51 -277 51q-102 0 -163 -38.5t-72 -108.5l-6 -29h694l-156 -983h-432l103 639h-263l-102 -639h-430l100 639h-282l-103 -639h-430l101 639h-140z M680 983h285l8 57q3 8 12 62q-55 22 -131 22q-72 0 -116.5 -34t-55.5 -91z" />
<glyph unicode="&#xfb04;" horiz-adv-x="2140" d="M55 639l56 344h139l10 61q30 198 178 304q147 102 350 102q197 0 351 -80q145 127 374 127q166 0 320 -53l362 39l-235 -1483h-432l178 1130q-59 20 -113 17q-77 0 -130.5 -37t-63.5 -102l-4 -25h184l-55 -344h-183l-102 -639h-430l100 639h-282l-103 -639h-430l101 639 h-140zM680 983h285l8 57q3 22 12 62q-52 22 -131 22q-72 0 -116.5 -34t-55.5 -91z" />
</font>
</defs>
</svg>
